<ttFont>
    <TTGlyph name=".notdef" xMin="56" yMin="-49" xMax="1157" yMax="619">
      <contour>
        <pt x="712" y="225" on="1"/>
        <pt x="735" y="225" on="0"/>
        <pt x="750" y="270" on="0"/>
        <pt x="747" y="292" on="1"/>
        <pt x="746" y="296" on="0"/>
        <pt x="744" y="292" on="1"/>
        <pt x="737" y="252" on="0"/>
        <pt x="717" y="235" on="1"/>
        <pt x="704" y="254" on="0"/>
        <pt x="704" y="284" on="1"/>
        <pt x="719" y="290" on="0"/>
        <pt x="737" y="339" on="0"/>
        <pt x="737" y="393" on="0"/>
        <pt x="719" y="417" on="0"/>
        <pt x="694" y="421" on="1"/>
        <pt x="678" y="391" on="0"/>
        <pt x="668" y="295" on="0"/>
        <pt x="676" y="255" on="1"/>
        <pt x="677" y="252" on="1"/>
        <pt x="666" y="234" on="0"/>
        <pt x="662" y="235" on="1"/>
        <pt x="650" y="277" on="0"/>
        <pt x="661" y="341" on="1"/>
        <pt x="650" y="352" on="0"/>
        <pt x="635" y="350" on="1"/>
        <pt x="630" y="340" on="0"/>
        <pt x="630" y="330" on="1"/>
        <pt x="620" y="333" on="0"/>
        <pt x="609" y="333" on="1"/>
        <pt x="592" y="316" on="0"/>
        <pt x="590" y="279" on="1"/>
        <pt x="590" y="264" on="1"/>
        <pt x="581" y="242" on="0"/>
        <pt x="569" y="236" on="1"/>
        <pt x="563" y="241" on="0"/>
        <pt x="559" y="256" on="1"/>
        <pt x="584" y="264" on="0"/>
        <pt x="584" y="302" on="1"/>
        <pt x="584" y="342" on="0"/>
        <pt x="541" y="339" on="1"/>
        <pt x="531" y="322" on="0"/>
        <pt x="529" y="281" on="1"/>
        <pt x="527" y="228" on="0"/>
        <pt x="568" y="228" on="1"/>
        <pt x="584" y="229" on="0"/>
        <pt x="594" y="245" on="1"/>
        <pt x="600" y="227" on="0"/>
        <pt x="620" y="228" on="1"/>
        <pt x="626" y="228" on="0"/>
        <pt x="638" y="236" on="0"/>
        <pt x="639" y="242" on="1"/>
        <pt x="645" y="225" on="0"/>
        <pt x="662" y="225" on="1"/>
        <pt x="675" y="225" on="0"/>
        <pt x="681" y="242" on="1"/>
        <pt x="690" y="225" on="0"/>
      </contour>
      <contour>
        <pt x="437" y="336" on="1"/>
        <pt x="423" y="352" on="0"/>
        <pt x="403" y="350" on="1"/>
        <pt x="413" y="276" on="0"/>
        <pt x="407" y="249" on="1"/>
        <pt x="403" y="242" on="0"/>
        <pt x="401" y="241" on="1"/>
        <pt x="392" y="271" on="0"/>
        <pt x="394" y="328" on="1"/>
        <pt x="386" y="336" on="0"/>
        <pt x="367" y="339" on="1"/>
        <pt x="362" y="329" on="0"/>
        <pt x="362" y="308" on="1"/>
        <pt x="362" y="281" on="0"/>
        <pt x="366" y="264" on="1"/>
        <pt x="359" y="240" on="0"/>
        <pt x="338" y="233" on="1"/>
        <pt x="313" y="255" on="0"/>
        <pt x="317" y="377" on="0"/>
        <pt x="334" y="394" on="1"/>
        <pt x="338" y="388" on="0"/>
        <pt x="344" y="359" on="0"/>
        <pt x="343" y="348" on="1"/>
        <pt x="342" y="346" on="0"/>
        <pt x="343" y="344" on="0"/>
        <pt x="345" y="347" on="1"/>
        <pt x="364" y="363" on="0"/>
        <pt x="364" y="381" on="1"/>
        <pt x="364" y="420" on="0"/>
        <pt x="320" y="427" on="1"/>
        <pt x="276" y="390" on="0"/>
        <pt x="278" y="306" on="1"/>
        <pt x="279" y="271" on="0"/>
        <pt x="309" y="223" on="0"/>
        <pt x="340" y="223" on="1"/>
        <pt x="364" y="223" on="0"/>
        <pt x="372" y="248" on="1"/>
        <pt x="382" y="227" on="0"/>
        <pt x="402" y="227" on="1"/>
        <pt x="408" y="227" on="0"/>
        <pt x="410" y="232" on="1"/>
        <pt x="404" y="180" on="0"/>
        <pt x="394" y="165" on="1"/>
        <pt x="389" y="158" on="0"/>
        <pt x="381" y="153" on="1"/>
        <pt x="378" y="166" on="0"/>
        <pt x="382" y="190" on="1"/>
        <pt x="371" y="201" on="0"/>
        <pt x="353" y="201" on="1"/>
        <pt x="349" y="185" on="0"/>
        <pt x="349" y="175" on="1"/>
        <pt x="349" y="158" on="0"/>
        <pt x="360" y="143" on="0"/>
        <pt x="375" y="143" on="1"/>
        <pt x="414" y="143" on="0"/>
        <pt x="446" y="261" on="0"/>
      </contour>
      <contour>
        <pt x="441" y="341" on="1"/>
        <pt x="452" y="316" on="0"/>
        <pt x="457" y="226" on="1"/>
        <pt x="476" y="223" on="0"/>
        <pt x="481" y="244" on="1"/>
        <pt x="484" y="252" on="0"/>
        <pt x="484" y="278" on="1"/>
        <pt x="486" y="285" on="0"/>
        <pt x="498" y="304" on="0"/>
        <pt x="498" y="305" on="1"/>
        <pt x="501" y="281" on="0"/>
        <pt x="525" y="287" on="1"/>
        <pt x="522" y="310" on="0"/>
        <pt x="527" y="334" on="1"/>
        <pt x="519" y="345" on="0"/>
        <pt x="499" y="345" on="1"/>
        <pt x="494" y="335" on="0"/>
        <pt x="494" y="327" on="1"/>
        <pt x="492" y="318" on="0"/>
        <pt x="481" y="298" on="1"/>
        <pt x="480" y="321" on="0"/>
        <pt x="472" y="333" on="1"/>
        <pt x="468" y="338" on="0"/>
        <pt x="460" y="339" on="1"/>
        <pt x="450" y="341" on="0"/>
      </contour>
      <contour>
        <pt x="619" y="238" on="1"/>
        <pt x="614" y="256" on="0"/>
        <pt x="621" y="308" on="0"/>
        <pt x="628" y="316" on="1"/>
        <pt x="625" y="286" on="0"/>
        <pt x="633" y="258" on="1"/>
        <pt x="632" y="248" on="0"/>
      </contour>
      <contour>
        <pt x="704" y="297" on="1"/>
        <pt x="705" y="339" on="0"/>
        <pt x="717" y="385" on="1"/>
        <pt x="720" y="366" on="0"/>
        <pt x="713" y="310" on="0"/>
      </contour>
      <contour>
        <pt x="566" y="317" on="1"/>
        <pt x="572" y="311" on="0"/>
        <pt x="572" y="298" on="1"/>
        <pt x="572" y="269" on="0"/>
        <pt x="559" y="266" on="1"/>
        <pt x="559" y="296" on="0"/>
      </contour>
      <contour>
        <pt x="495" y="98" on="1"/>
        <pt x="468" y="98" on="1"/>
        <pt x="467" y="93" on="0"/>
        <pt x="456" y="79" on="0"/>
        <pt x="449" y="79" on="1"/>
        <pt x="460" y="70" on="0"/>
        <pt x="460" y="64" on="1"/>
        <pt x="460" y="61" on="0"/>
        <pt x="436" y="52" on="0"/>
        <pt x="391" y="36" on="0"/>
        <pt x="373" y="26" on="1"/>
        <pt x="406" y="16" on="0"/>
        <pt x="416" y="5" on="1"/>
        <pt x="416" y="2" on="0"/>
        <pt x="414" y="0" on="0"/>
        <pt x="411" y="0" on="0"/>
        <pt x="410" y="-1" on="1"/>
        <pt x="383" y="12" on="0"/>
        <pt x="359" y="13" on="1"/>
        <pt x="328" y="14" on="0"/>
        <pt x="295" y="-19" on="1"/>
        <pt x="288" y="-17" on="0"/>
        <pt x="286" y="-13" on="1"/>
        <pt x="297" y="5" on="0"/>
        <pt x="323" y="17" on="1"/>
        <pt x="295" y="19" on="0"/>
        <pt x="265" y="4" on="1"/>
        <pt x="261" y="7" on="0"/>
        <pt x="261" y="11" on="1"/>
        <pt x="268" y="16" on="0"/>
        <pt x="285" y="24" on="0"/>
        <pt x="297" y="27" on="0"/>
        <pt x="315" y="29" on="0"/>
        <pt x="324" y="29" on="0"/>
        <pt x="342" y="29" on="0"/>
        <pt x="344" y="29" on="1"/>
        <pt x="382" y="48" on="0"/>
        <pt x="439" y="67" on="1"/>
        <pt x="427" y="79" on="1"/>
        <pt x="418" y="79" on="0"/>
        <pt x="409" y="96" on="0"/>
        <pt x="409" y="103" on="1"/>
        <pt x="209" y="132" on="0"/>
        <pt x="197" y="311" on="1"/>
        <pt x="194" y="359" on="0"/>
        <pt x="188" y="405" on="0"/>
        <pt x="165" y="455" on="0"/>
        <pt x="144" y="467" on="1"/>
        <pt x="59" y="483" on="1"/>
        <pt x="56" y="488" on="1"/>
        <pt x="118" y="517" on="1"/>
        <pt x="118" y="556" on="0"/>
        <pt x="179" y="619" on="0"/>
        <pt x="226" y="619" on="1"/>
        <pt x="269" y="619" on="0"/>
        <pt x="332" y="573" on="0"/>
        <pt x="362" y="521" on="1"/>
        <pt x="375" y="502" on="0"/>
        <pt x="491" y="477" on="0"/>
        <pt x="736" y="442" on="0"/>
        <pt x="817" y="426" on="1"/>
        <pt x="835" y="427" on="0"/>
        <pt x="996" y="443" on="0"/>
        <pt x="1142" y="458" on="0"/>
        <pt x="1144" y="458" on="1"/>
        <pt x="1152" y="460" on="0"/>
        <pt x="1157" y="442" on="0"/>
        <pt x="1150" y="436" on="1"/>
        <pt x="1124" y="412" on="0"/>
        <pt x="1013" y="385" on="0"/>
        <pt x="910" y="363" on="0"/>
        <pt x="893" y="345" on="1"/>
        <pt x="883" y="335" on="0"/>
        <pt x="824" y="270" on="0"/>
        <pt x="782" y="228" on="0"/>
        <pt x="718" y="172" on="0"/>
        <pt x="647" y="130" on="0"/>
        <pt x="609" y="117" on="1"/>
        <pt x="612" y="95" on="0"/>
        <pt x="602" y="85" on="1"/>
        <pt x="615" y="75" on="0"/>
        <pt x="615" y="71" on="1"/>
        <pt x="615" y="66" on="0"/>
        <pt x="593" y="51" on="0"/>
        <pt x="554" y="26" on="0"/>
        <pt x="540" y="14" on="1"/>
        <pt x="581" y="12" on="0"/>
        <pt x="597" y="2" on="1"/>
        <pt x="597" y="-2" on="0"/>
        <pt x="594" y="-6" on="1"/>
        <pt x="556" y="3" on="0"/>
        <pt x="524" y="-1" on="1"/>
        <pt x="497" y="-7" on="0"/>
        <pt x="471" y="-48" on="1"/>
        <pt x="464" y="-49" on="0"/>
        <pt x="463" y="-44" on="1"/>
        <pt x="470" y="-17" on="0"/>
        <pt x="490" y="-5" on="1"/>
        <pt x="462" y="-9" on="0"/>
        <pt x="441" y="-28" on="1"/>
        <pt x="436" y="-25" on="0"/>
        <pt x="436" y="-21" on="1"/>
        <pt x="444" y="-10" on="0"/>
        <pt x="465" y="3" on="0"/>
        <pt x="479" y="7" on="0"/>
        <pt x="504" y="11" on="0"/>
        <pt x="508" y="12" on="1"/>
        <pt x="524" y="24" on="0"/>
        <pt x="592" y="69" on="1"/>
        <pt x="590" y="71" on="0"/>
        <pt x="577" y="79" on="1"/>
        <pt x="566" y="78" on="0"/>
        <pt x="552" y="94" on="0"/>
        <pt x="550" y="102" on="1"/>
        <pt x="526" y="98" on="0"/>
      </contour>
    </TTGlyph>
    <TTGlyph name="A" xMin="50" yMin="0" xMax="653" yMax="700">
      <contour>
        <pt x="50" y="0" on="1"/>
        <pt x="290" y="700" on="1"/>
        <pt x="408" y="700" on="1"/>
        <pt x="653" y="0" on="1"/>
        <pt x="569" y="0" on="1"/>
        <pt x="517" y="145" on="1"/>
        <pt x="184" y="145" on="1"/>
        <pt x="134" y="0" on="1"/>
      </contour>
      <contour>
        <pt x="351" y="640" on="1"/>
        <pt x="347" y="640" on="1"/>
        <pt x="347" y="628" on="0"/>
        <pt x="340" y="611" on="1"/>
        <pt x="205" y="210" on="1"/>
        <pt x="496" y="210" on="1"/>
        <pt x="358" y="611" on="1"/>
        <pt x="351" y="628" on="0"/>
      </contour>
    </TTGlyph>
    <TTGlyph name="AE" xMin="25" yMin="0" xMax="828" yMax="700">
      <contour>
        <pt x="828" y="70" on="1"/>
        <pt x="828" y="0" on="1"/>
        <pt x="410" y="0" on="1"/>
        <pt x="410" y="145" on="1"/>
        <pt x="168" y="145" on="1"/>
        <pt x="118" y="0" on="1"/>
        <pt x="25" y="0" on="1"/>
        <pt x="280" y="700" on="1"/>
        <pt x="828" y="700" on="1"/>
        <pt x="828" y="630" on="1"/>
        <pt x="494" y="630" on="1"/>
        <pt x="494" y="390" on="1"/>
        <pt x="772" y="390" on="1"/>
        <pt x="772" y="320" on="1"/>
        <pt x="494" y="320" on="1"/>
        <pt x="494" y="70" on="1"/>
      </contour>
      <contour>
        <pt x="336" y="630" on="1"/>
        <pt x="189" y="210" on="1"/>
        <pt x="410" y="210" on="1"/>
        <pt x="410" y="630" on="1"/>
      </contour>
    </TTGlyph>
    <TTGlyph name="Aacute" xMin="50" yMin="0" xMax="653" yMax="870">
      <component glyphName="A" x="0" y="0" flags="0x204"/>
      <component glyphName="acute.case" x="210" y="0" flags="0x4"/>
    </TTGlyph>
    <TTGlyph name="Acircumflex" xMin="50" yMin="0" xMax="653" yMax="870">
      <component glyphName="A" x="0" y="0" flags="0x204"/>
      <component glyphName="circumflex.case" x="221" y="0" flags="0x4"/>
    </TTGlyph>
    <TTGlyph name="Adieresis" xMin="50" yMin="0" xMax="653" yMax="848">
      <component glyphName="A" x="0" y="0" flags="0x204"/>
      <component glyphName="dieresis.case" x="157" y="0" flags="0x4"/>
    </TTGlyph>
    <TTGlyph name="Agrave" xMin="50" yMin="0" xMax="653" yMax="870">
      <component glyphName="A" x="0" y="0" flags="0x204"/>
      <component glyphName="grave.case" x="170" y="0" flags="0x4"/>
    </TTGlyph>
    <TTGlyph name="Aring" xMin="50" yMin="0" xMax="653" yMax="911">
      <component glyphName="A" x="0" y="0" flags="0x204"/>
      <component glyphName="ring" x="182" y="200" flags="0x4"/>
    </TTGlyph>
    <TTGlyph name="Atilde" xMin="50" yMin="0" xMax="653" yMax="848">
      <component glyphName="A" x="0" y="0" flags="0x204"/>
      <component glyphName="tilde.case" x="190" y="0" flags="0x4"/>
    </TTGlyph>
    <TTGlyph name="B" xMin="100" yMin="0" xMax="578" yMax="700">
      <contour>
        <pt x="477" y="289" on="1"/>
        <pt x="455" y="307" on="1"/>
        <pt x="443" y="317" on="0"/>
        <pt x="433" y="320" on="0"/>
        <pt x="418" y="320" on="1"/>
        <pt x="184" y="320" on="1"/>
        <pt x="184" y="70" on="1"/>
        <pt x="445" y="70" on="1"/>
        <pt x="463" y="70" on="0"/>
        <pt x="473" y="73" on="0"/>
        <pt x="491" y="87" on="0"/>
        <pt x="494" y="96" on="0"/>
        <pt x="494" y="111" on="1"/>
        <pt x="494" y="253" on="1"/>
        <pt x="494" y="269" on="0"/>
        <pt x="490" y="279" on="0"/>
      </contour>
      <contour>
        <pt x="184" y="630" on="1"/>
        <pt x="184" y="390" on="1"/>
        <pt x="401" y="390" on="1"/>
        <pt x="419" y="390" on="0"/>
        <pt x="430" y="393" on="0"/>
        <pt x="440" y="401" on="1"/>
        <pt x="466" y="422" on="1"/>
        <pt x="478" y="432" on="0"/>
        <pt x="482" y="442" on="0"/>
        <pt x="482" y="459" on="1"/>
        <pt x="482" y="589" on="1"/>
        <pt x="482" y="604" on="0"/>
        <pt x="479" y="613" on="0"/>
        <pt x="461" y="627" on="0"/>
        <pt x="451" y="630" on="0"/>
        <pt x="433" y="630" on="1"/>
      </contour>
      <contour>
        <pt x="488" y="366" on="1"/>
        <pt x="488" y="361" on="1"/>
        <pt x="500" y="361" on="0"/>
        <pt x="516" y="348" on="1"/>
        <pt x="564" y="309" on="1"/>
        <pt x="573" y="301" on="0"/>
        <pt x="578" y="288" on="0"/>
        <pt x="578" y="270" on="1"/>
        <pt x="578" y="90" on="1"/>
        <pt x="578" y="60" on="0"/>
        <pt x="554" y="40" on="1"/>
        <pt x="546" y="34" on="0"/>
        <pt x="530" y="20" on="1"/>
        <pt x="506" y="0" on="0"/>
        <pt x="482" y="0" on="1"/>
        <pt x="100" y="0" on="1"/>
        <pt x="100" y="700" on="1"/>
        <pt x="470" y="700" on="1"/>
        <pt x="494" y="700" on="0"/>
        <pt x="518" y="680" on="1"/>
        <pt x="542" y="660" on="1"/>
        <pt x="566" y="640" on="0"/>
        <pt x="566" y="610" on="1"/>
        <pt x="566" y="439" on="1"/>
        <pt x="566" y="418" on="0"/>
        <pt x="550" y="405" on="1"/>
        <pt x="516" y="379" on="1"/>
        <pt x="500" y="366" on="0"/>
      </contour>
    </TTGlyph>
    <TTGlyph name="C" xMin="100" yMin="0" xMax="614" yMax="700">
      <contour>
        <pt x="614" y="570" on="1"/>
        <pt x="530" y="570" on="1"/>
        <pt x="530" y="589" on="1"/>
        <pt x="530" y="604" on="0"/>
        <pt x="527" y="613" on="0"/>
        <pt x="509" y="627" on="0"/>
        <pt x="499" y="630" on="0"/>
        <pt x="481" y="630" on="1"/>
        <pt x="233" y="630" on="1"/>
        <pt x="215" y="630" on="0"/>
        <pt x="205" y="627" on="0"/>
        <pt x="187" y="613" on="0"/>
        <pt x="184" y="604" on="0"/>
        <pt x="184" y="589" on="1"/>
        <pt x="184" y="111" on="1"/>
        <pt x="184" y="96" on="0"/>
        <pt x="187" y="87" on="0"/>
        <pt x="205" y="73" on="0"/>
        <pt x="215" y="70" on="0"/>
        <pt x="233" y="70" on="1"/>
        <pt x="481" y="70" on="1"/>
        <pt x="499" y="70" on="0"/>
        <pt x="509" y="73" on="0"/>
        <pt x="527" y="87" on="0"/>
        <pt x="530" y="96" on="0"/>
        <pt x="530" y="111" on="1"/>
        <pt x="530" y="130" on="1"/>
        <pt x="614" y="130" on="1"/>
        <pt x="614" y="90" on="1"/>
        <pt x="614" y="60" on="0"/>
        <pt x="590" y="40" on="1"/>
        <pt x="566" y="20" on="1"/>
        <pt x="542" y="0" on="0"/>
        <pt x="518" y="0" on="1"/>
        <pt x="196" y="0" on="1"/>
        <pt x="172" y="0" on="0"/>
        <pt x="148" y="20" on="1"/>
        <pt x="124" y="40" on="1"/>
        <pt x="100" y="60" on="0"/>
        <pt x="100" y="90" on="1"/>
        <pt x="100" y="610" on="1"/>
        <pt x="100" y="640" on="0"/>
        <pt x="124" y="660" on="1"/>
        <pt x="148" y="680" on="1"/>
        <pt x="172" y="700" on="0"/>
        <pt x="196" y="700" on="1"/>
        <pt x="518" y="700" on="1"/>
        <pt x="542" y="700" on="0"/>
        <pt x="566" y="680" on="1"/>
        <pt x="590" y="660" on="1"/>
        <pt x="614" y="640" on="0"/>
        <pt x="614" y="610" on="1"/>
      </contour>
    </TTGlyph>
    <TTGlyph name="Ccedilla" xMin="100" yMin="-220" xMax="614" yMax="700">
      <contour>
        <pt x="518" y="0" on="1"/>
        <pt x="389" y="0" on="1"/>
        <pt x="389" y="-59" on="1"/>
        <pt x="415" y="-40" on="0"/>
        <pt x="425" y="-40" on="1"/>
        <pt x="457" y="-40" on="1"/>
        <pt x="469" y="-40" on="0"/>
        <pt x="481" y="-50" on="1"/>
        <pt x="493" y="-60" on="1"/>
        <pt x="505" y="-70" on="0"/>
        <pt x="505" y="-85" on="1"/>
        <pt x="505" y="-175" on="1"/>
        <pt x="505" y="-190" on="0"/>
        <pt x="493" y="-200" on="1"/>
        <pt x="481" y="-210" on="1"/>
        <pt x="469" y="-220" on="0"/>
        <pt x="457" y="-220" on="1"/>
        <pt x="346" y="-220" on="1"/>
        <pt x="334" y="-220" on="0"/>
        <pt x="322" y="-210" on="1"/>
        <pt x="310" y="-200" on="1"/>
        <pt x="298" y="-190" on="0"/>
        <pt x="298" y="-175" on="1"/>
        <pt x="298" y="-143" on="1"/>
        <pt x="347" y="-143" on="1"/>
        <pt x="347" y="-152" on="1"/>
        <pt x="347" y="-163" on="0"/>
        <pt x="359" y="-173" on="0"/>
        <pt x="372" y="-173" on="1"/>
        <pt x="430" y="-173" on="1"/>
        <pt x="444" y="-173" on="0"/>
        <pt x="456" y="-163" on="0"/>
        <pt x="456" y="-152" on="1"/>
        <pt x="456" y="-108" on="1"/>
        <pt x="456" y="-97" on="0"/>
        <pt x="444" y="-87" on="0"/>
        <pt x="431" y="-87" on="1"/>
        <pt x="410" y="-87" on="1"/>
        <pt x="404" y="-87" on="0"/>
        <pt x="399" y="-90" on="1"/>
        <pt x="389" y="-97" on="1"/>
        <pt x="340" y="-97" on="1"/>
        <pt x="340" y="0" on="1"/>
        <pt x="196" y="0" on="1"/>
        <pt x="172" y="0" on="0"/>
        <pt x="148" y="20" on="1"/>
        <pt x="124" y="40" on="1"/>
        <pt x="100" y="60" on="0"/>
        <pt x="100" y="90" on="1"/>
        <pt x="100" y="610" on="1"/>
        <pt x="100" y="640" on="0"/>
        <pt x="124" y="660" on="1"/>
        <pt x="148" y="680" on="1"/>
        <pt x="172" y="700" on="0"/>
        <pt x="196" y="700" on="1"/>
        <pt x="518" y="700" on="1"/>
        <pt x="542" y="700" on="0"/>
        <pt x="566" y="680" on="1"/>
        <pt x="590" y="660" on="1"/>
        <pt x="614" y="640" on="0"/>
        <pt x="614" y="610" on="1"/>
        <pt x="614" y="570" on="1"/>
        <pt x="530" y="570" on="1"/>
        <pt x="530" y="589" on="1"/>
        <pt x="530" y="604" on="0"/>
        <pt x="527" y="613" on="0"/>
        <pt x="509" y="627" on="0"/>
        <pt x="499" y="630" on="0"/>
        <pt x="481" y="630" on="1"/>
        <pt x="233" y="630" on="1"/>
        <pt x="215" y="630" on="0"/>
        <pt x="205" y="627" on="0"/>
        <pt x="187" y="613" on="0"/>
        <pt x="184" y="604" on="0"/>
        <pt x="184" y="589" on="1"/>
        <pt x="184" y="111" on="1"/>
        <pt x="184" y="96" on="0"/>
        <pt x="187" y="87" on="0"/>
        <pt x="205" y="73" on="0"/>
        <pt x="215" y="70" on="0"/>
        <pt x="233" y="70" on="1"/>
        <pt x="481" y="70" on="1"/>
        <pt x="499" y="70" on="0"/>
        <pt x="509" y="73" on="0"/>
        <pt x="527" y="87" on="0"/>
        <pt x="530" y="96" on="0"/>
        <pt x="530" y="111" on="1"/>
        <pt x="530" y="130" on="1"/>
        <pt x="614" y="130" on="1"/>
        <pt x="614" y="90" on="1"/>
        <pt x="614" y="60" on="0"/>
        <pt x="590" y="40" on="1"/>
        <pt x="566" y="20" on="1"/>
        <pt x="542" y="0" on="0"/>
      </contour>
    </TTGlyph>
    <TTGlyph name="D" xMin="100" yMin="0" xMax="638" yMax="700">
      <contour>
        <pt x="100" y="0" on="1"/>
        <pt x="100" y="700" on="1"/>
        <pt x="470" y="700" on="1"/>
        <pt x="496" y="700" on="0"/>
        <pt x="518" y="680" on="1"/>
        <pt x="614" y="600" on="1"/>
        <pt x="638" y="580" on="0"/>
        <pt x="638" y="560" on="1"/>
        <pt x="638" y="140" on="1"/>
        <pt x="638" y="120" on="0"/>
        <pt x="614" y="100" on="1"/>
        <pt x="518" y="20" on="1"/>
        <pt x="496" y="0" on="0"/>
        <pt x="470" y="0" on="1"/>
      </contour>
      <contour>
        <pt x="554" y="170" on="1"/>
        <pt x="554" y="530" on="1"/>
        <pt x="554" y="550" on="0"/>
        <pt x="530" y="570" on="1"/>
        <pt x="482" y="610" on="1"/>
        <pt x="460" y="630" on="0"/>
        <pt x="434" y="630" on="1"/>
        <pt x="184" y="630" on="1"/>
        <pt x="184" y="70" on="1"/>
        <pt x="434" y="70" on="1"/>
        <pt x="460" y="70" on="0"/>
        <pt x="482" y="90" on="1"/>
        <pt x="530" y="130" on="1"/>
        <pt x="554" y="150" on="0"/>
      </contour>
    </TTGlyph>
    <TTGlyph name="E" xMin="100" yMin="0" xMax="548" yMax="700">
      <contour>
        <pt x="548" y="70" on="1"/>
        <pt x="548" y="0" on="1"/>
        <pt x="100" y="0" on="1"/>
        <pt x="100" y="700" on="1"/>
        <pt x="548" y="700" on="1"/>
        <pt x="548" y="630" on="1"/>
        <pt x="184" y="630" on="1"/>
        <pt x="184" y="390" on="1"/>
        <pt x="492" y="390" on="1"/>
        <pt x="492" y="320" on="1"/>
        <pt x="184" y="320" on="1"/>
        <pt x="184" y="70" on="1"/>
      </contour>
    </TTGlyph>
    <TTGlyph name="Eacute" xMin="100" yMin="0" xMax="548" yMax="870">
      <component glyphName="E" x="0" y="0" flags="0x204"/>
      <component glyphName="acute.case" x="190" y="0" flags="0x4"/>
    </TTGlyph>
    <TTGlyph name="Ecircumflex" xMin="100" yMin="0" xMax="548" yMax="870">
      <component glyphName="E" x="0" y="0" flags="0x204"/>
      <component glyphName="circumflex.case" x="208" y="0" flags="0x4"/>
    </TTGlyph>
    <TTGlyph name="Edieresis" xMin="100" yMin="0" xMax="548" yMax="848">
      <component glyphName="E" x="0" y="0" flags="0x204"/>
      <component glyphName="dieresis.case" x="137" y="0" flags="0x4"/>
    </TTGlyph>
    <TTGlyph name="Egrave" xMin="100" yMin="0" xMax="548" yMax="870">
      <component glyphName="E" x="0" y="0" flags="0x204"/>
      <component glyphName="grave.case" x="150" y="0" flags="0x4"/>
    </TTGlyph>
    <TTGlyph name="Eth" xMin="15" yMin="0" xMax="645" yMax="700">
      <contour>
        <pt x="107" y="385" on="1"/>
        <pt x="107" y="700" on="1"/>
        <pt x="477" y="700" on="1"/>
        <pt x="503" y="700" on="0"/>
        <pt x="525" y="680" on="1"/>
        <pt x="621" y="600" on="1"/>
        <pt x="645" y="580" on="0"/>
        <pt x="645" y="560" on="1"/>
        <pt x="645" y="140" on="1"/>
        <pt x="645" y="120" on="0"/>
        <pt x="621" y="100" on="1"/>
        <pt x="525" y="20" on="1"/>
        <pt x="503" y="0" on="0"/>
        <pt x="477" y="0" on="1"/>
        <pt x="107" y="0" on="1"/>
        <pt x="107" y="320" on="1"/>
        <pt x="15" y="320" on="1"/>
        <pt x="15" y="385" on="1"/>
      </contour>
      <contour>
        <pt x="357" y="385" on="1"/>
        <pt x="357" y="320" on="1"/>
        <pt x="191" y="320" on="1"/>
        <pt x="191" y="70" on="1"/>
        <pt x="441" y="70" on="1"/>
        <pt x="467" y="70" on="0"/>
        <pt x="489" y="90" on="1"/>
        <pt x="537" y="130" on="1"/>
        <pt x="561" y="150" on="0"/>
        <pt x="561" y="170" on="1"/>
        <pt x="561" y="530" on="1"/>
        <pt x="561" y="550" on="0"/>
        <pt x="537" y="570" on="1"/>
        <pt x="489" y="610" on="1"/>
        <pt x="467" y="630" on="0"/>
        <pt x="441" y="630" on="1"/>
        <pt x="191" y="630" on="1"/>
        <pt x="191" y="385" on="1"/>
      </contour>
    </TTGlyph>
    <TTGlyph name="Euro" xMin="20" yMin="0" xMax="632" yMax="700">
      <contour>
        <pt x="430" y="320" on="1"/>
        <pt x="430" y="255" on="1"/>
        <pt x="204" y="255" on="1"/>
        <pt x="204" y="111" on="1"/>
        <pt x="204" y="96" on="0"/>
        <pt x="207" y="87" on="0"/>
        <pt x="225" y="73" on="0"/>
        <pt x="235" y="70" on="0"/>
        <pt x="253" y="70" on="1"/>
        <pt x="499" y="70" on="1"/>
        <pt x="517" y="70" on="0"/>
        <pt x="527" y="73" on="0"/>
        <pt x="545" y="87" on="0"/>
        <pt x="548" y="96" on="0"/>
        <pt x="548" y="111" on="1"/>
        <pt x="548" y="130" on="1"/>
        <pt x="632" y="130" on="1"/>
        <pt x="632" y="90" on="1"/>
        <pt x="632" y="60" on="0"/>
        <pt x="608" y="40" on="1"/>
        <pt x="584" y="20" on="1"/>
        <pt x="560" y="0" on="0"/>
        <pt x="536" y="0" on="1"/>
        <pt x="216" y="0" on="1"/>
        <pt x="192" y="0" on="0"/>
        <pt x="168" y="20" on="1"/>
        <pt x="144" y="40" on="1"/>
        <pt x="120" y="60" on="0"/>
        <pt x="120" y="90" on="1"/>
        <pt x="120" y="255" on="1"/>
        <pt x="20" y="255" on="1"/>
        <pt x="20" y="320" on="1"/>
        <pt x="120" y="320" on="1"/>
        <pt x="120" y="381" on="1"/>
        <pt x="20" y="381" on="1"/>
        <pt x="20" y="446" on="1"/>
        <pt x="120" y="446" on="1"/>
        <pt x="120" y="610" on="1"/>
        <pt x="120" y="640" on="0"/>
        <pt x="144" y="660" on="1"/>
        <pt x="168" y="680" on="1"/>
        <pt x="192" y="700" on="0"/>
        <pt x="216" y="700" on="1"/>
        <pt x="536" y="700" on="1"/>
        <pt x="560" y="700" on="0"/>
        <pt x="584" y="680" on="1"/>
        <pt x="608" y="660" on="1"/>
        <pt x="632" y="640" on="0"/>
        <pt x="632" y="610" on="1"/>
        <pt x="632" y="570" on="1"/>
        <pt x="548" y="570" on="1"/>
        <pt x="548" y="589" on="1"/>
        <pt x="548" y="604" on="0"/>
        <pt x="545" y="613" on="0"/>
        <pt x="527" y="627" on="0"/>
        <pt x="517" y="630" on="0"/>
        <pt x="499" y="630" on="1"/>
        <pt x="253" y="630" on="1"/>
        <pt x="235" y="630" on="0"/>
        <pt x="225" y="627" on="0"/>
        <pt x="207" y="613" on="0"/>
        <pt x="204" y="604" on="0"/>
        <pt x="204" y="589" on="1"/>
        <pt x="204" y="446" on="1"/>
        <pt x="460" y="446" on="1"/>
        <pt x="460" y="381" on="1"/>
        <pt x="204" y="381" on="1"/>
        <pt x="204" y="320" on="1"/>
      </contour>
    </TTGlyph>
    <TTGlyph name="F" xMin="100" yMin="0" xMax="508" yMax="700">
      <contour>
        <pt x="184" y="0" on="1"/>
        <pt x="100" y="0" on="1"/>
        <pt x="100" y="700" on="1"/>
        <pt x="508" y="700" on="1"/>
        <pt x="508" y="630" on="1"/>
        <pt x="184" y="630" on="1"/>
        <pt x="184" y="390" on="1"/>
        <pt x="452" y="390" on="1"/>
        <pt x="452" y="320" on="1"/>
        <pt x="184" y="320" on="1"/>
      </contour>
    </TTGlyph>
    <TTGlyph name="G" xMin="100" yMin="0" xMax="612" yMax="700">
      <contour>
        <pt x="612" y="570" on="1"/>
        <pt x="528" y="570" on="1"/>
        <pt x="528" y="589" on="1"/>
        <pt x="528" y="604" on="0"/>
        <pt x="525" y="613" on="0"/>
        <pt x="507" y="627" on="0"/>
        <pt x="497" y="630" on="0"/>
        <pt x="479" y="630" on="1"/>
        <pt x="233" y="630" on="1"/>
        <pt x="215" y="630" on="0"/>
        <pt x="205" y="627" on="0"/>
        <pt x="187" y="613" on="0"/>
        <pt x="184" y="604" on="0"/>
        <pt x="184" y="589" on="1"/>
        <pt x="184" y="111" on="1"/>
        <pt x="184" y="96" on="0"/>
        <pt x="187" y="87" on="0"/>
        <pt x="205" y="73" on="0"/>
        <pt x="215" y="70" on="0"/>
        <pt x="233" y="70" on="1"/>
        <pt x="479" y="70" on="1"/>
        <pt x="497" y="70" on="0"/>
        <pt x="507" y="73" on="0"/>
        <pt x="525" y="87" on="0"/>
        <pt x="528" y="96" on="0"/>
        <pt x="528" y="111" on="1"/>
        <pt x="528" y="290" on="1"/>
        <pt x="376" y="290" on="1"/>
        <pt x="376" y="360" on="1"/>
        <pt x="612" y="360" on="1"/>
        <pt x="612" y="90" on="1"/>
        <pt x="612" y="60" on="0"/>
        <pt x="588" y="40" on="1"/>
        <pt x="564" y="20" on="1"/>
        <pt x="540" y="0" on="0"/>
        <pt x="516" y="0" on="1"/>
        <pt x="196" y="0" on="1"/>
        <pt x="172" y="0" on="0"/>
        <pt x="148" y="20" on="1"/>
        <pt x="124" y="40" on="1"/>
        <pt x="100" y="60" on="0"/>
        <pt x="100" y="90" on="1"/>
        <pt x="100" y="610" on="1"/>
        <pt x="100" y="640" on="0"/>
        <pt x="124" y="660" on="1"/>
        <pt x="148" y="680" on="1"/>
        <pt x="172" y="700" on="0"/>
        <pt x="196" y="700" on="1"/>
        <pt x="516" y="700" on="1"/>
        <pt x="540" y="700" on="0"/>
        <pt x="564" y="680" on="1"/>
        <pt x="588" y="660" on="1"/>
        <pt x="612" y="640" on="0"/>
        <pt x="612" y="610" on="1"/>
      </contour>
    </TTGlyph>
    <TTGlyph name="H" xMin="100" yMin="0" xMax="632" yMax="700">
      <contour>
        <pt x="548" y="700" on="1"/>
        <pt x="632" y="700" on="1"/>
        <pt x="632" y="0" on="1"/>
        <pt x="548" y="0" on="1"/>
        <pt x="548" y="325" on="1"/>
        <pt x="184" y="325" on="1"/>
        <pt x="184" y="0" on="1"/>
        <pt x="100" y="0" on="1"/>
        <pt x="100" y="700" on="1"/>
        <pt x="184" y="700" on="1"/>
        <pt x="184" y="390" on="1"/>
        <pt x="548" y="390" on="1"/>
      </contour>
    </TTGlyph>
    <TTGlyph name="I" xMin="100" yMin="0" xMax="184" yMax="700">
      <contour>
        <pt x="100" y="700" on="1"/>
        <pt x="184" y="700" on="1"/>
        <pt x="184" y="0" on="1"/>
        <pt x="100" y="0" on="1"/>
      </contour>
    </TTGlyph>
    <TTGlyph name="Iacute" xMin="78" yMin="0" xMax="273" yMax="870">
      <component glyphName="I" x="0" y="0" flags="0x204"/>
      <component glyphName="acute.case" x="18" y="0" flags="0x4"/>
    </TTGlyph>
    <TTGlyph name="Icircumflex" xMin="11" yMin="0" xMax="270" yMax="870">
      <component glyphName="I" x="0" y="0" flags="0x204"/>
      <component glyphName="circumflex.case" x="11" y="0" flags="0x4"/>
    </TTGlyph>
    <TTGlyph name="Idieresis" xMin="12" yMin="0" xMax="274" yMax="848">
      <component glyphName="I" x="0" y="0" flags="0x204"/>
      <component glyphName="dieresis.case" x="-51" y="0" flags="0x4"/>
    </TTGlyph>
    <TTGlyph name="Igrave" xMin="2" yMin="0" xMax="197" yMax="870">
      <component glyphName="I" x="0" y="0" flags="0x204"/>
      <component glyphName="grave.case" x="-58" y="0" flags="0x4"/>
    </TTGlyph>
    <TTGlyph name="J" xMin="35" yMin="0" xMax="409" yMax="700">
      <contour>
        <pt x="325" y="700" on="1"/>
        <pt x="409" y="700" on="1"/>
        <pt x="409" y="90" on="1"/>
        <pt x="409" y="60" on="0"/>
        <pt x="385" y="40" on="1"/>
        <pt x="361" y="20" on="1"/>
        <pt x="337" y="0" on="0"/>
        <pt x="313" y="0" on="1"/>
        <pt x="131" y="0" on="1"/>
        <pt x="107" y="0" on="0"/>
        <pt x="83" y="20" on="1"/>
        <pt x="59" y="40" on="1"/>
        <pt x="35" y="60" on="0"/>
        <pt x="35" y="90" on="1"/>
        <pt x="35" y="160" on="1"/>
        <pt x="119" y="160" on="1"/>
        <pt x="119" y="111" on="1"/>
        <pt x="119" y="96" on="0"/>
        <pt x="122" y="87" on="0"/>
        <pt x="140" y="73" on="0"/>
        <pt x="150" y="70" on="0"/>
        <pt x="168" y="70" on="1"/>
        <pt x="276" y="70" on="1"/>
        <pt x="294" y="70" on="0"/>
        <pt x="304" y="73" on="0"/>
        <pt x="322" y="87" on="0"/>
        <pt x="325" y="96" on="0"/>
        <pt x="325" y="111" on="1"/>
      </contour>
    </TTGlyph>
    <TTGlyph name="K" xMin="100" yMin="0" xMax="574" yMax="700">
      <contour>
        <pt x="100" y="700" on="1"/>
        <pt x="184" y="700" on="1"/>
        <pt x="184" y="390" on="1"/>
        <pt x="292" y="390" on="1"/>
        <pt x="443" y="633" on="1"/>
        <pt x="457" y="657" on="0"/>
        <pt x="479" y="672" on="1"/>
        <pt x="498" y="685" on="1"/>
        <pt x="514" y="696" on="0"/>
        <pt x="527" y="700" on="0"/>
        <pt x="545" y="700" on="1"/>
        <pt x="567" y="700" on="1"/>
        <pt x="567" y="661" on="1"/>
        <pt x="567" y="638" on="0"/>
        <pt x="561" y="626" on="0"/>
        <pt x="543" y="616" on="1"/>
        <pt x="532" y="610" on="1"/>
        <pt x="516" y="601" on="0"/>
        <pt x="506" y="591" on="0"/>
        <pt x="495" y="574" on="1"/>
        <pt x="375" y="380" on="1"/>
        <pt x="360" y="355" on="0"/>
        <pt x="350" y="355" on="1"/>
        <pt x="350" y="351" on="1"/>
        <pt x="360" y="351" on="0"/>
        <pt x="375" y="327" on="1"/>
        <pt x="502" y="126" on="1"/>
        <pt x="512" y="109" on="0"/>
        <pt x="523" y="99" on="0"/>
        <pt x="539" y="90" on="1"/>
        <pt x="550" y="84" on="1"/>
        <pt x="568" y="74" on="0"/>
        <pt x="574" y="62" on="0"/>
        <pt x="574" y="39" on="1"/>
        <pt x="574" y="0" on="1"/>
        <pt x="546" y="0" on="1"/>
        <pt x="528" y="0" on="0"/>
        <pt x="515" y="4" on="0"/>
        <pt x="499" y="15" on="1"/>
        <pt x="480" y="28" on="1"/>
        <pt x="465" y="39" on="0"/>
        <pt x="455" y="50" on="0"/>
        <pt x="444" y="68" on="1"/>
        <pt x="288" y="320" on="1"/>
        <pt x="184" y="320" on="1"/>
        <pt x="184" y="0" on="1"/>
        <pt x="100" y="0" on="1"/>
      </contour>
    </TTGlyph>
    <TTGlyph name="L" xMin="100" yMin="0" xMax="532" yMax="700">
      <contour>
        <pt x="532" y="70" on="1"/>
        <pt x="532" y="0" on="1"/>
        <pt x="100" y="0" on="1"/>
        <pt x="100" y="700" on="1"/>
        <pt x="184" y="700" on="1"/>
        <pt x="184" y="70" on="1"/>
      </contour>
    </TTGlyph>
    <TTGlyph name="M" xMin="100" yMin="0" xMax="816" yMax="700">
      <contour>
        <pt x="180" y="640" on="1"/>
        <pt x="177" y="639" on="1"/>
        <pt x="184" y="615" on="0"/>
        <pt x="184" y="591" on="1"/>
        <pt x="184" y="0" on="1"/>
        <pt x="100" y="0" on="1"/>
        <pt x="100" y="700" on="1"/>
        <pt x="236" y="700" on="1"/>
        <pt x="450" y="141" on="1"/>
        <pt x="456" y="124" on="0"/>
        <pt x="456" y="113" on="1"/>
        <pt x="460" y="113" on="1"/>
        <pt x="460" y="124" on="0"/>
        <pt x="466" y="141" on="1"/>
        <pt x="681" y="700" on="1"/>
        <pt x="816" y="700" on="1"/>
        <pt x="816" y="0" on="1"/>
        <pt x="732" y="0" on="1"/>
        <pt x="732" y="591" on="1"/>
        <pt x="732" y="615" on="0"/>
        <pt x="739" y="639" on="1"/>
        <pt x="736" y="640" on="1"/>
        <pt x="490" y="0" on="1"/>
        <pt x="426" y="0" on="1"/>
        <pt x="380" y="113" on="0"/>
        <pt x="297" y="325" on="0"/>
        <pt x="243" y="468" on="0"/>
        <pt x="203" y="577" on="0"/>
        <pt x="181" y="637" on="0"/>
      </contour>
    </TTGlyph>
    <TTGlyph name="N" xMin="100" yMin="0" xMax="630" yMax="700">
      <contour>
        <pt x="550" y="130" on="1"/>
        <pt x="553" y="131" on="1"/>
        <pt x="546" y="155" on="0"/>
        <pt x="546" y="179" on="1"/>
        <pt x="546" y="700" on="1"/>
        <pt x="630" y="700" on="1"/>
        <pt x="630" y="0" on="1"/>
        <pt x="546" y="0" on="1"/>
        <pt x="180" y="562" on="1"/>
        <pt x="177" y="561" on="1"/>
        <pt x="184" y="537" on="0"/>
        <pt x="184" y="513" on="1"/>
        <pt x="184" y="0" on="1"/>
        <pt x="100" y="0" on="1"/>
        <pt x="100" y="700" on="1"/>
        <pt x="184" y="700" on="1"/>
      </contour>
    </TTGlyph>
    <TTGlyph name="Ntilde" xMin="100" yMin="0" xMax="630" yMax="848">
      <component glyphName="N" x="0" y="0" flags="0x204"/>
      <component glyphName="tilde.case" x="223" y="0" flags="0x4"/>
    </TTGlyph>
    <TTGlyph name="O" xMin="100" yMin="0" xMax="658" yMax="700">
      <contour>
        <pt x="196" y="700" on="1"/>
        <pt x="562" y="700" on="1"/>
        <pt x="586" y="700" on="0"/>
        <pt x="610" y="680" on="1"/>
        <pt x="634" y="660" on="1"/>
        <pt x="658" y="640" on="0"/>
        <pt x="658" y="610" on="1"/>
        <pt x="658" y="90" on="1"/>
        <pt x="658" y="60" on="0"/>
        <pt x="634" y="40" on="1"/>
        <pt x="610" y="20" on="1"/>
        <pt x="586" y="0" on="0"/>
        <pt x="562" y="0" on="1"/>
        <pt x="196" y="0" on="1"/>
        <pt x="172" y="0" on="0"/>
        <pt x="148" y="20" on="1"/>
        <pt x="124" y="40" on="1"/>
        <pt x="100" y="60" on="0"/>
        <pt x="100" y="90" on="1"/>
        <pt x="100" y="610" on="1"/>
        <pt x="100" y="640" on="0"/>
        <pt x="124" y="660" on="1"/>
        <pt x="148" y="680" on="1"/>
        <pt x="172" y="700" on="0"/>
      </contour>
      <contour>
        <pt x="574" y="111" on="1"/>
        <pt x="574" y="589" on="1"/>
        <pt x="574" y="604" on="0"/>
        <pt x="571" y="613" on="0"/>
        <pt x="553" y="627" on="0"/>
        <pt x="543" y="630" on="0"/>
        <pt x="525" y="630" on="1"/>
        <pt x="233" y="630" on="1"/>
        <pt x="215" y="630" on="0"/>
        <pt x="205" y="627" on="0"/>
        <pt x="187" y="613" on="0"/>
        <pt x="184" y="604" on="0"/>
        <pt x="184" y="589" on="1"/>
        <pt x="184" y="111" on="1"/>
        <pt x="184" y="96" on="0"/>
        <pt x="187" y="87" on="0"/>
        <pt x="205" y="73" on="0"/>
        <pt x="215" y="70" on="0"/>
        <pt x="233" y="70" on="1"/>
        <pt x="525" y="70" on="1"/>
        <pt x="543" y="70" on="0"/>
        <pt x="553" y="73" on="0"/>
        <pt x="571" y="87" on="0"/>
        <pt x="574" y="96" on="0"/>
      </contour>
    </TTGlyph>
    <TTGlyph name="OE" xMin="100" yMin="0" xMax="950" yMax="700">
      <contour>
        <pt x="950" y="70" on="1"/>
        <pt x="950" y="0" on="1"/>
        <pt x="196" y="0" on="1"/>
        <pt x="172" y="0" on="0"/>
        <pt x="148" y="20" on="1"/>
        <pt x="124" y="40" on="1"/>
        <pt x="100" y="60" on="0"/>
        <pt x="100" y="90" on="1"/>
        <pt x="100" y="610" on="1"/>
        <pt x="100" y="640" on="0"/>
        <pt x="124" y="660" on="1"/>
        <pt x="148" y="680" on="1"/>
        <pt x="172" y="700" on="0"/>
        <pt x="196" y="700" on="1"/>
        <pt x="950" y="700" on="1"/>
        <pt x="950" y="630" on="1"/>
        <pt x="618" y="630" on="1"/>
        <pt x="618" y="390" on="1"/>
        <pt x="895" y="390" on="1"/>
        <pt x="895" y="320" on="1"/>
        <pt x="618" y="320" on="1"/>
        <pt x="618" y="70" on="1"/>
      </contour>
      <contour>
        <pt x="233" y="70" on="1"/>
        <pt x="534" y="70" on="1"/>
        <pt x="534" y="630" on="1"/>
        <pt x="233" y="630" on="1"/>
        <pt x="215" y="630" on="0"/>
        <pt x="205" y="627" on="0"/>
        <pt x="187" y="613" on="0"/>
        <pt x="184" y="604" on="0"/>
        <pt x="184" y="589" on="1"/>
        <pt x="184" y="111" on="1"/>
        <pt x="184" y="96" on="0"/>
        <pt x="187" y="87" on="0"/>
        <pt x="205" y="73" on="0"/>
        <pt x="215" y="70" on="0"/>
      </contour>
    </TTGlyph>
    <TTGlyph name="Oacute" xMin="100" yMin="0" xMax="658" yMax="870">
      <component glyphName="O" x="0" y="0" flags="0x4"/>
      <component glyphName="acute.case" x="263" y="0" flags="0x4"/>
    </TTGlyph>
    <TTGlyph name="Ocircumflex" xMin="100" yMin="0" xMax="658" yMax="870">
      <component glyphName="O" x="0" y="0" flags="0x4"/>
      <component glyphName="circumflex.case" x="263" y="0" flags="0x4"/>
    </TTGlyph>
    <TTGlyph name="Odieresis" xMin="100" yMin="0" xMax="658" yMax="848">
      <component glyphName="O" x="0" y="0" flags="0x4"/>
      <component glyphName="dieresis.case" x="200" y="0" flags="0x4"/>
    </TTGlyph>
    <TTGlyph name="Ograve" xMin="100" yMin="0" xMax="658" yMax="870">
      <component glyphName="O" x="0" y="0" flags="0x4"/>
      <component glyphName="grave.case" x="213" y="0" flags="0x4"/>
    </TTGlyph>
    <TTGlyph name="Oslash" xMin="89" yMin="-50" xMax="675" yMax="750">
      <contour>
        <pt x="196" y="700" on="1"/>
        <pt x="562" y="700" on="1"/>
        <pt x="571" y="700" on="0"/>
        <pt x="575" y="699" on="1"/>
        <pt x="611" y="750" on="1"/>
        <pt x="675" y="750" on="1"/>
        <pt x="620" y="671" on="1"/>
        <pt x="634" y="660" on="1"/>
        <pt x="658" y="640" on="0"/>
        <pt x="658" y="610" on="1"/>
        <pt x="658" y="90" on="1"/>
        <pt x="658" y="60" on="0"/>
        <pt x="634" y="40" on="1"/>
        <pt x="610" y="20" on="1"/>
        <pt x="586" y="0" on="0"/>
        <pt x="562" y="0" on="1"/>
        <pt x="196" y="0" on="1"/>
        <pt x="188" y="0" on="0"/>
        <pt x="184" y="1" on="1"/>
        <pt x="149" y="-50" on="1"/>
        <pt x="89" y="-50" on="1"/>
        <pt x="141" y="25" on="1"/>
        <pt x="124" y="40" on="1"/>
        <pt x="100" y="60" on="0"/>
        <pt x="100" y="90" on="1"/>
        <pt x="100" y="610" on="1"/>
        <pt x="100" y="640" on="0"/>
        <pt x="124" y="660" on="1"/>
        <pt x="148" y="680" on="1"/>
        <pt x="172" y="700" on="0"/>
      </contour>
      <contour>
        <pt x="528" y="630" on="1"/>
        <pt x="233" y="630" on="1"/>
        <pt x="215" y="630" on="0"/>
        <pt x="205" y="627" on="0"/>
        <pt x="187" y="613" on="0"/>
        <pt x="184" y="604" on="0"/>
        <pt x="184" y="589" on="1"/>
        <pt x="184" y="111" on="1"/>
        <pt x="184" y="94" on="0"/>
        <pt x="186" y="90" on="1"/>
      </contour>
      <contour>
        <pt x="574" y="111" on="1"/>
        <pt x="574" y="589" on="1"/>
        <pt x="574" y="600" on="0"/>
        <pt x="573" y="604" on="1"/>
        <pt x="232" y="70" on="1"/>
        <pt x="525" y="70" on="1"/>
        <pt x="543" y="70" on="0"/>
        <pt x="553" y="73" on="0"/>
        <pt x="571" y="87" on="0"/>
        <pt x="574" y="96" on="0"/>
      </contour>
    </TTGlyph>
    <TTGlyph name="Otilde" xMin="100" yMin="0" xMax="658" yMax="848">
      <component glyphName="O" x="0" y="0" flags="0x4"/>
      <component glyphName="tilde.case" x="232" y="0" flags="0x4"/>
    </TTGlyph>
    <TTGlyph name="P" xMin="100" yMin="0" xMax="566" yMax="700">
      <contour>
        <pt x="184" y="280" on="1"/>
        <pt x="184" y="0" on="1"/>
        <pt x="100" y="0" on="1"/>
        <pt x="100" y="700" on="1"/>
        <pt x="470" y="700" on="1"/>
        <pt x="494" y="700" on="0"/>
        <pt x="518" y="680" on="1"/>
        <pt x="542" y="660" on="1"/>
        <pt x="566" y="640" on="0"/>
        <pt x="566" y="610" on="1"/>
        <pt x="566" y="370" on="1"/>
        <pt x="566" y="340" on="0"/>
        <pt x="542" y="320" on="1"/>
        <pt x="518" y="300" on="1"/>
        <pt x="494" y="280" on="0"/>
        <pt x="470" y="280" on="1"/>
      </contour>
      <contour>
        <pt x="184" y="630" on="1"/>
        <pt x="184" y="350" on="1"/>
        <pt x="433" y="350" on="1"/>
        <pt x="451" y="350" on="0"/>
        <pt x="461" y="353" on="0"/>
        <pt x="479" y="367" on="0"/>
        <pt x="482" y="376" on="0"/>
        <pt x="482" y="391" on="1"/>
        <pt x="482" y="589" on="1"/>
        <pt x="482" y="604" on="0"/>
        <pt x="479" y="613" on="0"/>
        <pt x="461" y="627" on="0"/>
        <pt x="451" y="630" on="0"/>
        <pt x="433" y="630" on="1"/>
      </contour>
    </TTGlyph>
    <TTGlyph name="Q" xMin="100" yMin="-140" xMax="666" yMax="700">
      <contour>
        <pt x="196" y="700" on="1"/>
        <pt x="562" y="700" on="1"/>
        <pt x="586" y="700" on="0"/>
        <pt x="610" y="680" on="1"/>
        <pt x="634" y="660" on="1"/>
        <pt x="658" y="640" on="0"/>
        <pt x="658" y="610" on="1"/>
        <pt x="658" y="90" on="1"/>
        <pt x="658" y="60" on="0"/>
        <pt x="634" y="40" on="1"/>
        <pt x="610" y="20" on="1"/>
        <pt x="586" y="0" on="0"/>
        <pt x="562" y="0" on="1"/>
        <pt x="451" y="0" on="1"/>
        <pt x="504" y="-60" on="1"/>
        <pt x="513" y="-70" on="0"/>
        <pt x="541" y="-70" on="1"/>
        <pt x="648" y="-70" on="1"/>
        <pt x="661" y="-80" on="0"/>
        <pt x="666" y="-91" on="0"/>
        <pt x="666" y="-114" on="1"/>
        <pt x="666" y="-140" on="1"/>
        <pt x="509" y="-140" on="1"/>
        <pt x="475" y="-140" on="0"/>
        <pt x="461" y="-120" on="1"/>
        <pt x="361" y="0" on="1"/>
        <pt x="196" y="0" on="1"/>
        <pt x="172" y="0" on="0"/>
        <pt x="148" y="20" on="1"/>
        <pt x="124" y="40" on="1"/>
        <pt x="100" y="60" on="0"/>
        <pt x="100" y="90" on="1"/>
        <pt x="100" y="610" on="1"/>
        <pt x="100" y="640" on="0"/>
        <pt x="124" y="660" on="1"/>
        <pt x="148" y="680" on="1"/>
        <pt x="172" y="700" on="0"/>
      </contour>
      <contour>
        <pt x="574" y="111" on="1"/>
        <pt x="574" y="589" on="1"/>
        <pt x="574" y="604" on="0"/>
        <pt x="571" y="613" on="0"/>
        <pt x="553" y="627" on="0"/>
        <pt x="543" y="630" on="0"/>
        <pt x="525" y="630" on="1"/>
        <pt x="233" y="630" on="1"/>
        <pt x="215" y="630" on="0"/>
        <pt x="205" y="627" on="0"/>
        <pt x="187" y="613" on="0"/>
        <pt x="184" y="604" on="0"/>
        <pt x="184" y="589" on="1"/>
        <pt x="184" y="111" on="1"/>
        <pt x="184" y="96" on="0"/>
        <pt x="187" y="87" on="0"/>
        <pt x="205" y="73" on="0"/>
        <pt x="215" y="70" on="0"/>
        <pt x="233" y="70" on="1"/>
        <pt x="525" y="70" on="1"/>
        <pt x="543" y="70" on="0"/>
        <pt x="553" y="73" on="0"/>
        <pt x="571" y="87" on="0"/>
        <pt x="574" y="96" on="0"/>
      </contour>
    </TTGlyph>
    <TTGlyph name="R" xMin="100" yMin="0" xMax="588" yMax="700">
      <contour>
        <pt x="100" y="700" on="1"/>
        <pt x="470" y="700" on="1"/>
        <pt x="494" y="700" on="0"/>
        <pt x="518" y="680" on="1"/>
        <pt x="542" y="660" on="1"/>
        <pt x="566" y="640" on="0"/>
        <pt x="566" y="610" on="1"/>
        <pt x="566" y="376" on="1"/>
        <pt x="566" y="345" on="0"/>
        <pt x="541" y="324" on="1"/>
        <pt x="516" y="303" on="1"/>
        <pt x="494" y="285" on="0"/>
        <pt x="470" y="285" on="1"/>
        <pt x="414" y="285" on="1"/>
        <pt x="517" y="125" on="1"/>
        <pt x="528" y="108" on="0"/>
        <pt x="537" y="99" on="0"/>
        <pt x="553" y="90" on="1"/>
        <pt x="564" y="84" on="1"/>
        <pt x="582" y="74" on="0"/>
        <pt x="588" y="62" on="0"/>
        <pt x="588" y="39" on="1"/>
        <pt x="588" y="0" on="1"/>
        <pt x="563" y="0" on="1"/>
        <pt x="545" y="0" on="0"/>
        <pt x="532" y="4" on="0"/>
        <pt x="516" y="15" on="1"/>
        <pt x="497" y="28" on="1"/>
        <pt x="475" y="43" on="0"/>
        <pt x="461" y="67" on="1"/>
        <pt x="328" y="280" on="1"/>
        <pt x="184" y="280" on="1"/>
        <pt x="184" y="0" on="1"/>
        <pt x="100" y="0" on="1"/>
      </contour>
      <contour>
        <pt x="184" y="630" on="1"/>
        <pt x="184" y="350" on="1"/>
        <pt x="433" y="350" on="1"/>
        <pt x="451" y="350" on="0"/>
        <pt x="461" y="353" on="0"/>
        <pt x="479" y="367" on="0"/>
        <pt x="482" y="376" on="0"/>
        <pt x="482" y="391" on="1"/>
        <pt x="482" y="589" on="1"/>
        <pt x="482" y="604" on="0"/>
        <pt x="479" y="613" on="0"/>
        <pt x="461" y="627" on="0"/>
        <pt x="451" y="630" on="0"/>
        <pt x="433" y="630" on="1"/>
      </contour>
    </TTGlyph>
    <TTGlyph name="S" xMin="75" yMin="0" xMax="553" yMax="700">
      <contour>
        <pt x="420" y="320" on="1"/>
        <pt x="181" y="320" on="1"/>
        <pt x="157" y="320" on="0"/>
        <pt x="133" y="340" on="1"/>
        <pt x="106" y="363" on="1"/>
        <pt x="85" y="380" on="0"/>
        <pt x="85" y="403" on="1"/>
        <pt x="85" y="610" on="1"/>
        <pt x="85" y="640" on="0"/>
        <pt x="109" y="660" on="1"/>
        <pt x="133" y="680" on="1"/>
        <pt x="157" y="700" on="0"/>
        <pt x="181" y="700" on="1"/>
        <pt x="447" y="700" on="1"/>
        <pt x="471" y="700" on="0"/>
        <pt x="495" y="680" on="1"/>
        <pt x="519" y="660" on="1"/>
        <pt x="543" y="640" on="0"/>
        <pt x="543" y="610" on="1"/>
        <pt x="543" y="570" on="1"/>
        <pt x="459" y="570" on="1"/>
        <pt x="459" y="589" on="1"/>
        <pt x="459" y="604" on="0"/>
        <pt x="456" y="613" on="0"/>
        <pt x="438" y="627" on="0"/>
        <pt x="428" y="630" on="0"/>
        <pt x="410" y="630" on="1"/>
        <pt x="218" y="630" on="1"/>
        <pt x="200" y="630" on="0"/>
        <pt x="190" y="627" on="0"/>
        <pt x="172" y="613" on="0"/>
        <pt x="169" y="604" on="0"/>
        <pt x="169" y="589" on="1"/>
        <pt x="169" y="431" on="1"/>
        <pt x="169" y="416" on="0"/>
        <pt x="172" y="407" on="0"/>
        <pt x="190" y="393" on="0"/>
        <pt x="200" y="390" on="0"/>
        <pt x="218" y="390" on="1"/>
        <pt x="457" y="390" on="1"/>
        <pt x="481" y="390" on="0"/>
        <pt x="505" y="370" on="1"/>
        <pt x="529" y="350" on="1"/>
        <pt x="553" y="330" on="0"/>
        <pt x="553" y="300" on="1"/>
        <pt x="553" y="90" on="1"/>
        <pt x="553" y="60" on="0"/>
        <pt x="529" y="40" on="1"/>
        <pt x="505" y="20" on="1"/>
        <pt x="481" y="0" on="0"/>
        <pt x="457" y="0" on="1"/>
        <pt x="171" y="0" on="1"/>
        <pt x="147" y="0" on="0"/>
        <pt x="123" y="20" on="1"/>
        <pt x="99" y="40" on="1"/>
        <pt x="75" y="60" on="0"/>
        <pt x="75" y="90" on="1"/>
        <pt x="75" y="130" on="1"/>
        <pt x="159" y="130" on="1"/>
        <pt x="159" y="111" on="1"/>
        <pt x="159" y="96" on="0"/>
        <pt x="162" y="87" on="0"/>
        <pt x="180" y="73" on="0"/>
        <pt x="190" y="70" on="0"/>
        <pt x="208" y="70" on="1"/>
        <pt x="420" y="70" on="1"/>
        <pt x="438" y="70" on="0"/>
        <pt x="448" y="73" on="0"/>
        <pt x="466" y="87" on="0"/>
        <pt x="469" y="96" on="0"/>
        <pt x="469" y="111" on="1"/>
        <pt x="469" y="279" on="1"/>
        <pt x="469" y="294" on="0"/>
        <pt x="466" y="303" on="0"/>
        <pt x="448" y="317" on="0"/>
        <pt x="438" y="320" on="0"/>
      </contour>
    </TTGlyph>
    <TTGlyph name="T" xMin="-6" yMin="0" xMax="522" yMax="700">
      <contour>
        <pt x="-6" y="700" on="1"/>
        <pt x="522" y="700" on="1"/>
        <pt x="522" y="630" on="1"/>
        <pt x="300" y="630" on="1"/>
        <pt x="300" y="0" on="1"/>
        <pt x="216" y="0" on="1"/>
        <pt x="216" y="630" on="1"/>
        <pt x="-6" y="630" on="1"/>
      </contour>
    </TTGlyph>
    <TTGlyph name="Thorn" xMin="100" yMin="0" xMax="566" yMax="700">
      <contour>
        <pt x="100" y="0" on="1"/>
        <pt x="100" y="700" on="1"/>
        <pt x="184" y="700" on="1"/>
        <pt x="184" y="590" on="1"/>
        <pt x="470" y="590" on="1"/>
        <pt x="494" y="590" on="0"/>
        <pt x="518" y="570" on="1"/>
        <pt x="542" y="550" on="1"/>
        <pt x="566" y="530" on="0"/>
        <pt x="566" y="500" on="1"/>
        <pt x="566" y="260" on="1"/>
        <pt x="566" y="230" on="0"/>
        <pt x="542" y="210" on="1"/>
        <pt x="518" y="190" on="1"/>
        <pt x="494" y="170" on="0"/>
        <pt x="470" y="170" on="1"/>
        <pt x="184" y="170" on="1"/>
        <pt x="184" y="0" on="1"/>
      </contour>
      <contour>
        <pt x="184" y="520" on="1"/>
        <pt x="184" y="240" on="1"/>
        <pt x="433" y="240" on="1"/>
        <pt x="451" y="240" on="0"/>
        <pt x="461" y="243" on="0"/>
        <pt x="479" y="257" on="0"/>
        <pt x="482" y="266" on="0"/>
        <pt x="482" y="281" on="1"/>
        <pt x="482" y="479" on="1"/>
        <pt x="482" y="494" on="0"/>
        <pt x="479" y="503" on="0"/>
        <pt x="461" y="517" on="0"/>
        <pt x="451" y="520" on="0"/>
        <pt x="433" y="520" on="1"/>
      </contour>
    </TTGlyph>
    <TTGlyph name="U" xMin="100" yMin="0" xMax="632" yMax="700">
      <contour>
        <pt x="548" y="700" on="1"/>
        <pt x="632" y="700" on="1"/>
        <pt x="632" y="90" on="1"/>
        <pt x="632" y="60" on="0"/>
        <pt x="608" y="40" on="1"/>
        <pt x="584" y="20" on="1"/>
        <pt x="560" y="0" on="0"/>
        <pt x="536" y="0" on="1"/>
        <pt x="196" y="0" on="1"/>
        <pt x="172" y="0" on="0"/>
        <pt x="148" y="20" on="1"/>
        <pt x="124" y="40" on="1"/>
        <pt x="100" y="60" on="0"/>
        <pt x="100" y="90" on="1"/>
        <pt x="100" y="700" on="1"/>
        <pt x="184" y="700" on="1"/>
        <pt x="184" y="111" on="1"/>
        <pt x="184" y="96" on="0"/>
        <pt x="187" y="87" on="0"/>
        <pt x="205" y="73" on="0"/>
        <pt x="215" y="70" on="0"/>
        <pt x="233" y="70" on="1"/>
        <pt x="499" y="70" on="1"/>
        <pt x="517" y="70" on="0"/>
        <pt x="527" y="73" on="0"/>
        <pt x="545" y="87" on="0"/>
        <pt x="548" y="96" on="0"/>
        <pt x="548" y="111" on="1"/>
      </contour>
    </TTGlyph>
    <TTGlyph name="Uacute" xMin="100" yMin="0" xMax="632" yMax="870">
      <component glyphName="U" x="0" y="0" flags="0x204"/>
      <component glyphName="acute.case" x="235" y="0" flags="0x4"/>
    </TTGlyph>
    <TTGlyph name="Ucircumflex" xMin="100" yMin="0" xMax="632" yMax="870">
      <component glyphName="U" x="0" y="0" flags="0x204"/>
      <component glyphName="circumflex.case" x="235" y="0" flags="0x4"/>
    </TTGlyph>
    <TTGlyph name="Udieresis" xMin="100" yMin="0" xMax="632" yMax="848">
      <component glyphName="U" x="0" y="0" flags="0x204"/>
      <component glyphName="dieresis.case" x="180" y="0" flags="0x4"/>
    </TTGlyph>
    <TTGlyph name="Ugrave" xMin="100" yMin="0" xMax="632" yMax="870">
      <component glyphName="U" x="0" y="0" flags="0x204"/>
      <component glyphName="grave.case" x="185" y="0" flags="0x4"/>
    </TTGlyph>
    <TTGlyph name="V" xMin="15" yMin="0" xMax="589" yMax="700">
      <contour>
        <pt x="300" y="62" on="1"/>
        <pt x="304" y="62" on="1"/>
        <pt x="304" y="68" on="0"/>
        <pt x="310" y="88" on="1"/>
        <pt x="500" y="700" on="1"/>
        <pt x="589" y="700" on="1"/>
        <pt x="357" y="0" on="1"/>
        <pt x="247" y="0" on="1"/>
        <pt x="15" y="700" on="1"/>
        <pt x="104" y="700" on="1"/>
        <pt x="294" y="88" on="1"/>
        <pt x="300" y="68" on="0"/>
      </contour>
    </TTGlyph>
    <TTGlyph name="W" xMin="15" yMin="0" xMax="927" yMax="700">
      <contour>
        <pt x="624" y="0" on="1"/>
        <pt x="478" y="602" on="1"/>
        <pt x="473" y="627" on="1"/>
        <pt x="469" y="627" on="1"/>
        <pt x="464" y="602" on="1"/>
        <pt x="321" y="0" on="1"/>
        <pt x="203" y="0" on="1"/>
        <pt x="15" y="700" on="1"/>
        <pt x="104" y="700" on="1"/>
        <pt x="254" y="84" on="1"/>
        <pt x="259" y="59" on="1"/>
        <pt x="264" y="59" on="1"/>
        <pt x="268" y="84" on="1"/>
        <pt x="416" y="700" on="1"/>
        <pt x="527" y="700" on="1"/>
        <pt x="679" y="84" on="1"/>
        <pt x="685" y="59" on="1"/>
        <pt x="689" y="59" on="1"/>
        <pt x="693" y="84" on="1"/>
        <pt x="838" y="700" on="1"/>
        <pt x="927" y="700" on="1"/>
        <pt x="739" y="0" on="1"/>
      </contour>
    </TTGlyph>
    <TTGlyph name="X" xMin="35" yMin="0" xMax="581" yMax="700">
      <contour>
        <pt x="466" y="700" on="1"/>
        <pt x="556" y="700" on="1"/>
        <pt x="369" y="363" on="1"/>
        <pt x="581" y="0" on="1"/>
        <pt x="489" y="0" on="1"/>
        <pt x="320" y="300" on="1"/>
        <pt x="310" y="316" on="0"/>
        <pt x="310" y="328" on="1"/>
        <pt x="306" y="328" on="1"/>
        <pt x="306" y="316" on="0"/>
        <pt x="296" y="300" on="1"/>
        <pt x="127" y="0" on="1"/>
        <pt x="35" y="0" on="1"/>
        <pt x="247" y="363" on="1"/>
        <pt x="60" y="700" on="1"/>
        <pt x="150" y="700" on="1"/>
        <pt x="294" y="430" on="1"/>
        <pt x="306" y="406" on="0"/>
        <pt x="306" y="399" on="1"/>
        <pt x="310" y="399" on="1"/>
        <pt x="310" y="403" on="0"/>
        <pt x="314" y="414" on="0"/>
        <pt x="321" y="427" on="0"/>
        <pt x="322" y="430" on="1"/>
      </contour>
    </TTGlyph>
    <TTGlyph name="Y" xMin="1" yMin="0" xMax="545" yMax="700">
      <contour>
        <pt x="288" y="394" on="1"/>
        <pt x="449" y="700" on="1"/>
        <pt x="545" y="700" on="1"/>
        <pt x="315" y="292" on="1"/>
        <pt x="315" y="0" on="1"/>
        <pt x="231" y="0" on="1"/>
        <pt x="231" y="292" on="1"/>
        <pt x="1" y="700" on="1"/>
        <pt x="97" y="700" on="1"/>
        <pt x="258" y="394" on="1"/>
        <pt x="270" y="373" on="0"/>
        <pt x="271" y="363" on="1"/>
        <pt x="275" y="363" on="1"/>
        <pt x="276" y="369" on="0"/>
      </contour>
    </TTGlyph>
    <TTGlyph name="Yacute" xMin="1" yMin="0" xMax="545" yMax="861">
      <component glyphName="Y" x="0" y="0" flags="0x204"/>
      <component glyphName="acute.case" x="142" y="-9" flags="0x4"/>
    </TTGlyph>
    <TTGlyph name="Z" xMin="45" yMin="0" xMax="517" yMax="700">
      <contour>
        <pt x="135" y="70" on="1"/>
        <pt x="517" y="70" on="1"/>
        <pt x="517" y="0" on="1"/>
        <pt x="45" y="0" on="1"/>
        <pt x="45" y="74" on="1"/>
        <pt x="402" y="609" on="1"/>
        <pt x="414" y="622" on="0"/>
        <pt x="423" y="625" on="1"/>
        <pt x="423" y="630" on="1"/>
        <pt x="47" y="630" on="1"/>
        <pt x="47" y="700" on="1"/>
        <pt x="515" y="700" on="1"/>
        <pt x="515" y="624" on="1"/>
        <pt x="156" y="91" on="1"/>
        <pt x="147" y="78" on="0"/>
        <pt x="135" y="75" on="1"/>
      </contour>
    </TTGlyph>
    <TTGlyph name="a" xMin="70" yMin="0" xMax="506" yMax="500">
      <contour>
        <pt x="412" y="40" on="1"/>
        <pt x="408" y="40" on="1"/>
        <pt x="408" y="28" on="0"/>
        <pt x="386" y="15" on="1"/>
        <pt x="368" y="4" on="0"/>
        <pt x="355" y="0" on="0"/>
        <pt x="337" y="0" on="1"/>
        <pt x="166" y="0" on="1"/>
        <pt x="142" y="0" on="0"/>
        <pt x="118" y="20" on="1"/>
        <pt x="94" y="40" on="1"/>
        <pt x="70" y="60" on="0"/>
        <pt x="70" y="90" on="1"/>
        <pt x="70" y="210" on="1"/>
        <pt x="70" y="240" on="0"/>
        <pt x="94" y="260" on="1"/>
        <pt x="118" y="280" on="1"/>
        <pt x="142" y="300" on="0"/>
        <pt x="166" y="300" on="1"/>
        <pt x="345" y="300" on="1"/>
        <pt x="364" y="300" on="0"/>
        <pt x="374" y="297" on="0"/>
        <pt x="382" y="290" on="1"/>
        <pt x="394" y="280" on="0"/>
        <pt x="394" y="270" on="1"/>
        <pt x="398" y="270" on="1"/>
        <pt x="398" y="389" on="1"/>
        <pt x="398" y="404" on="0"/>
        <pt x="395" y="413" on="0"/>
        <pt x="377" y="427" on="0"/>
        <pt x="367" y="430" on="0"/>
        <pt x="349" y="430" on="1"/>
        <pt x="187" y="430" on="1"/>
        <pt x="169" y="430" on="0"/>
        <pt x="156" y="425" on="0"/>
        <pt x="138" y="410" on="1"/>
        <pt x="78" y="460" on="1"/>
        <pt x="102" y="480" on="1"/>
        <pt x="120" y="495" on="0"/>
        <pt x="133" y="500" on="0"/>
        <pt x="151" y="500" on="1"/>
        <pt x="386" y="500" on="1"/>
        <pt x="410" y="500" on="0"/>
        <pt x="434" y="480" on="1"/>
        <pt x="458" y="460" on="1"/>
        <pt x="482" y="440" on="0"/>
        <pt x="482" y="410" on="1"/>
        <pt x="482" y="111" on="1"/>
        <pt x="482" y="96" on="0"/>
        <pt x="485" y="87" on="0"/>
        <pt x="503" y="73" on="0"/>
        <pt x="506" y="64" on="0"/>
        <pt x="506" y="49" on="1"/>
        <pt x="506" y="0" on="1"/>
        <pt x="471" y="0" on="1"/>
        <pt x="453" y="0" on="0"/>
        <pt x="440" y="5" on="0"/>
        <pt x="428" y="15" on="1"/>
        <pt x="412" y="28" on="0"/>
      </contour>
      <contour>
        <pt x="154" y="189" on="1"/>
        <pt x="154" y="111" on="1"/>
        <pt x="154" y="96" on="0"/>
        <pt x="157" y="87" on="0"/>
        <pt x="175" y="73" on="0"/>
        <pt x="185" y="70" on="0"/>
        <pt x="203" y="70" on="1"/>
        <pt x="325" y="70" on="1"/>
        <pt x="343" y="70" on="0"/>
        <pt x="356" y="74" on="0"/>
        <pt x="392" y="96" on="0"/>
        <pt x="398" y="106" on="0"/>
        <pt x="398" y="121" on="1"/>
        <pt x="398" y="189" on="1"/>
        <pt x="398" y="204" on="0"/>
        <pt x="395" y="213" on="0"/>
        <pt x="377" y="227" on="0"/>
        <pt x="367" y="230" on="0"/>
        <pt x="349" y="230" on="1"/>
        <pt x="203" y="230" on="1"/>
        <pt x="185" y="230" on="0"/>
        <pt x="175" y="227" on="0"/>
        <pt x="157" y="213" on="0"/>
        <pt x="154" y="204" on="0"/>
      </contour>
    </TTGlyph>
    <TTGlyph name="aacute" xMin="70" yMin="0" xMax="506" yMax="709">
      <component glyphName="a" x="0" y="0" flags="0x204"/>
      <component glyphName="acute" x="138" y="0" flags="0x4"/>
    </TTGlyph>
    <TTGlyph name="acircumflex" xMin="70" yMin="0" xMax="506" yMax="700">
      <component glyphName="a" x="0" y="0" flags="0x204"/>
      <component glyphName="circumflex" x="83" y="0" flags="0x4"/>
    </TTGlyph>
    <TTGlyph name="acute" xMin="75" yMin="550" xMax="255" yMax="709">
      <contour>
        <pt x="255" y="646" on="1"/>
        <pt x="101" y="550" on="1"/>
        <pt x="75" y="590" on="1"/>
        <pt x="212" y="709" on="1"/>
      </contour>
    </TTGlyph>
    <TTGlyph name="acute.case" xMin="60" yMin="733" xMax="255" yMax="870">
      <contour>
        <pt x="79" y="733" on="1"/>
        <pt x="60" y="773" on="1"/>
        <pt x="222" y="870" on="1"/>
        <pt x="255" y="804" on="1"/>
      </contour>
    </TTGlyph>
    <TTGlyph name="adieresis" xMin="70" yMin="0" xMax="506" yMax="678">
      <component glyphName="a" x="0" y="0" flags="0x204"/>
      <component glyphName="dieresis" x="89" y="0" flags="0x4"/>
    </TTGlyph>
    <TTGlyph name="ae" xMin="70" yMin="0" xMax="834" yMax="500">
      <contour>
        <pt x="151" y="500" on="1"/>
        <pt x="386" y="500" on="1"/>
        <pt x="416" y="500" on="0"/>
        <pt x="434" y="478" on="1"/>
        <pt x="438" y="473" on="1"/>
        <pt x="442" y="473" on="1"/>
        <pt x="446" y="478" on="1"/>
        <pt x="464" y="500" on="0"/>
        <pt x="494" y="500" on="1"/>
        <pt x="727" y="500" on="1"/>
        <pt x="747" y="500" on="0"/>
        <pt x="775" y="480" on="1"/>
        <pt x="800" y="460" on="1"/>
        <pt x="824" y="442" on="0"/>
        <pt x="824" y="410" on="1"/>
        <pt x="824" y="205" on="1"/>
        <pt x="482" y="205" on="1"/>
        <pt x="482" y="111" on="1"/>
        <pt x="482" y="96" on="0"/>
        <pt x="485" y="87" on="0"/>
        <pt x="503" y="73" on="0"/>
        <pt x="513" y="70" on="0"/>
        <pt x="531" y="70" on="1"/>
        <pt x="725" y="70" on="1"/>
        <pt x="743" y="70" on="0"/>
        <pt x="756" y="75" on="0"/>
        <pt x="774" y="90" on="1"/>
        <pt x="834" y="40" on="1"/>
        <pt x="810" y="20" on="1"/>
        <pt x="792" y="5" on="0"/>
        <pt x="779" y="0" on="0"/>
        <pt x="761" y="0" on="1"/>
        <pt x="494" y="0" on="1"/>
        <pt x="470" y="0" on="0"/>
        <pt x="446" y="20" on="1"/>
        <pt x="422" y="41" on="1"/>
        <pt x="418" y="41" on="1"/>
        <pt x="398" y="23" on="0"/>
        <pt x="386" y="15" on="1"/>
        <pt x="369" y="4" on="0"/>
        <pt x="356" y="0" on="0"/>
        <pt x="337" y="0" on="1"/>
        <pt x="166" y="0" on="1"/>
        <pt x="142" y="0" on="0"/>
        <pt x="118" y="20" on="1"/>
        <pt x="94" y="40" on="1"/>
        <pt x="70" y="60" on="0"/>
        <pt x="70" y="90" on="1"/>
        <pt x="70" y="210" on="1"/>
        <pt x="70" y="240" on="0"/>
        <pt x="94" y="260" on="1"/>
        <pt x="118" y="280" on="1"/>
        <pt x="142" y="300" on="0"/>
        <pt x="166" y="300" on="1"/>
        <pt x="345" y="300" on="1"/>
        <pt x="364" y="300" on="0"/>
        <pt x="374" y="297" on="0"/>
        <pt x="382" y="290" on="1"/>
        <pt x="393" y="279" on="0"/>
        <pt x="394" y="275" on="1"/>
        <pt x="398" y="275" on="1"/>
        <pt x="398" y="389" on="1"/>
        <pt x="398" y="404" on="0"/>
        <pt x="395" y="413" on="0"/>
        <pt x="377" y="427" on="0"/>
        <pt x="367" y="430" on="0"/>
        <pt x="349" y="430" on="1"/>
        <pt x="187" y="430" on="1"/>
        <pt x="169" y="430" on="0"/>
        <pt x="156" y="425" on="0"/>
        <pt x="138" y="410" on="1"/>
        <pt x="78" y="460" on="1"/>
        <pt x="102" y="480" on="1"/>
        <pt x="120" y="495" on="0"/>
        <pt x="133" y="500" on="0"/>
      </contour>
      <contour>
        <pt x="740" y="270" on="1"/>
        <pt x="740" y="389" on="1"/>
        <pt x="740" y="404" on="0"/>
        <pt x="737" y="413" on="0"/>
        <pt x="719" y="427" on="0"/>
        <pt x="709" y="430" on="0"/>
        <pt x="691" y="430" on="1"/>
        <pt x="531" y="430" on="1"/>
        <pt x="513" y="430" on="0"/>
        <pt x="503" y="427" on="0"/>
        <pt x="485" y="413" on="0"/>
        <pt x="482" y="404" on="0"/>
        <pt x="482" y="389" on="1"/>
        <pt x="482" y="270" on="1"/>
      </contour>
      <contour>
        <pt x="154" y="189" on="1"/>
        <pt x="154" y="111" on="1"/>
        <pt x="154" y="96" on="0"/>
        <pt x="157" y="87" on="0"/>
        <pt x="175" y="73" on="0"/>
        <pt x="185" y="70" on="0"/>
        <pt x="203" y="70" on="1"/>
        <pt x="325" y="70" on="1"/>
        <pt x="343" y="70" on="0"/>
        <pt x="356" y="74" on="0"/>
        <pt x="374" y="85" on="1"/>
        <pt x="397" y="99" on="0"/>
        <pt x="398" y="111" on="1"/>
        <pt x="398" y="189" on="1"/>
        <pt x="398" y="204" on="0"/>
        <pt x="395" y="213" on="0"/>
        <pt x="377" y="227" on="0"/>
        <pt x="367" y="230" on="0"/>
        <pt x="349" y="230" on="1"/>
        <pt x="203" y="230" on="1"/>
        <pt x="185" y="230" on="0"/>
        <pt x="175" y="227" on="0"/>
        <pt x="157" y="213" on="0"/>
        <pt x="154" y="204" on="0"/>
      </contour>
    </TTGlyph>
    <TTGlyph name="agrave" xMin="70" yMin="0" xMax="506" yMax="709">
      <component glyphName="a" x="0" y="0" flags="0x204"/>
      <component glyphName="grave" x="88" y="0" flags="0x4"/>
    </TTGlyph>
    <TTGlyph name="ampersand" xMin="85" yMin="0" xMax="655" yMax="700">
      <contour>
        <pt x="583" y="360" on="1"/>
        <pt x="583" y="90" on="1"/>
        <pt x="583" y="70" on="0"/>
        <pt x="576" y="54" on="0"/>
        <pt x="564" y="41" on="1"/>
        <pt x="546" y="23" on="1"/>
        <pt x="523" y="0" on="0"/>
        <pt x="499" y="0" on="1"/>
        <pt x="169" y="0" on="1"/>
        <pt x="145" y="0" on="0"/>
        <pt x="122" y="23" on="1"/>
        <pt x="104" y="41" on="1"/>
        <pt x="96" y="50" on="0"/>
        <pt x="89" y="59" on="0"/>
        <pt x="85" y="76" on="0"/>
        <pt x="85" y="90" on="1"/>
        <pt x="85" y="304" on="1"/>
        <pt x="85" y="328" on="0"/>
        <pt x="90" y="340" on="0"/>
        <pt x="105" y="352" on="1"/>
        <pt x="146" y="386" on="1"/>
        <pt x="163" y="400" on="0"/>
        <pt x="173" y="400" on="1"/>
        <pt x="213" y="400" on="1"/>
        <pt x="213" y="404" on="1"/>
        <pt x="200" y="405" on="0"/>
        <pt x="186" y="419" on="1"/>
        <pt x="157" y="443" on="1"/>
        <pt x="144" y="453" on="0"/>
        <pt x="139" y="463" on="0"/>
        <pt x="139" y="480" on="1"/>
        <pt x="139" y="610" on="1"/>
        <pt x="139" y="640" on="0"/>
        <pt x="163" y="660" on="1"/>
        <pt x="187" y="680" on="1"/>
        <pt x="211" y="700" on="0"/>
        <pt x="235" y="700" on="1"/>
        <pt x="461" y="700" on="1"/>
        <pt x="485" y="700" on="0"/>
        <pt x="509" y="680" on="1"/>
        <pt x="533" y="660" on="1"/>
        <pt x="557" y="640" on="0"/>
        <pt x="557" y="610" on="1"/>
        <pt x="557" y="570" on="1"/>
        <pt x="473" y="570" on="1"/>
        <pt x="473" y="589" on="1"/>
        <pt x="473" y="604" on="0"/>
        <pt x="470" y="613" on="0"/>
        <pt x="452" y="627" on="0"/>
        <pt x="442" y="630" on="0"/>
        <pt x="423" y="630" on="1"/>
        <pt x="272" y="630" on="1"/>
        <pt x="254" y="630" on="0"/>
        <pt x="244" y="627" on="0"/>
        <pt x="226" y="613" on="0"/>
        <pt x="223" y="604" on="0"/>
        <pt x="223" y="589" on="1"/>
        <pt x="223" y="495" on="1"/>
        <pt x="223" y="476" on="0"/>
        <pt x="228" y="465" on="0"/>
        <pt x="243" y="453" on="1"/>
        <pt x="262" y="437" on="0"/>
        <pt x="280" y="430" on="0"/>
        <pt x="304" y="430" on="1"/>
        <pt x="655" y="430" on="1"/>
        <pt x="655" y="360" on="1"/>
      </contour>
      <contour>
        <pt x="218" y="70" on="1"/>
        <pt x="450" y="70" on="1"/>
        <pt x="468" y="70" on="0"/>
        <pt x="478" y="73" on="0"/>
        <pt x="496" y="87" on="0"/>
        <pt x="499" y="96" on="0"/>
        <pt x="499" y="111" on="1"/>
        <pt x="499" y="360" on="1"/>
        <pt x="248" y="360" on="1"/>
        <pt x="229" y="360" on="0"/>
        <pt x="217" y="356" on="0"/>
        <pt x="202" y="343" on="1"/>
        <pt x="187" y="330" on="1"/>
        <pt x="169" y="314" on="0"/>
        <pt x="169" y="292" on="1"/>
        <pt x="169" y="111" on="1"/>
        <pt x="169" y="96" on="0"/>
        <pt x="172" y="87" on="0"/>
        <pt x="190" y="73" on="0"/>
        <pt x="200" y="70" on="0"/>
      </contour>
    </TTGlyph>
    <TTGlyph name="aring" xMin="70" yMin="0" xMax="506" yMax="711">
      <component glyphName="a" x="0" y="0" flags="0x204"/>
      <component glyphName="ring" x="114" y="0" flags="0x4"/>
    </TTGlyph>
    <TTGlyph name="asciicircum" xMin="100" yMin="560" xMax="329" yMax="680">
      <contour>
        <pt x="178" y="680" on="1"/>
        <pt x="251" y="680" on="1"/>
        <pt x="329" y="560" on="1"/>
        <pt x="254" y="560" on="1"/>
        <pt x="228" y="600" on="1"/>
        <pt x="217" y="616" on="0"/>
        <pt x="217" y="630" on="1"/>
        <pt x="213" y="630" on="1"/>
        <pt x="213" y="619" on="0"/>
        <pt x="202" y="600" on="1"/>
        <pt x="176" y="560" on="1"/>
        <pt x="100" y="560" on="1"/>
      </contour>
    </TTGlyph>
    <TTGlyph name="asciitilde" xMin="75" yMin="561" xMax="380" yMax="658">
      <contour>
        <pt x="75" y="612" on="1"/>
        <pt x="154" y="651" on="1"/>
        <pt x="164" y="657" on="0"/>
        <pt x="178" y="657" on="1"/>
        <pt x="182" y="657" on="0"/>
        <pt x="213" y="646" on="0"/>
        <pt x="247" y="634" on="0"/>
        <pt x="276" y="623" on="0"/>
        <pt x="278" y="623" on="1"/>
        <pt x="283" y="623" on="0"/>
        <pt x="291" y="626" on="1"/>
        <pt x="353" y="658" on="1"/>
        <pt x="380" y="607" on="1"/>
        <pt x="301" y="567" on="1"/>
        <pt x="290" y="561" on="0"/>
        <pt x="277" y="561" on="1"/>
        <pt x="271" y="561" on="0"/>
        <pt x="241" y="572" on="0"/>
        <pt x="208" y="585" on="0"/>
        <pt x="181" y="596" on="0"/>
        <pt x="178" y="596" on="1"/>
        <pt x="168" y="596" on="0"/>
        <pt x="149" y="586" on="1"/>
        <pt x="102" y="561" on="1"/>
      </contour>
    </TTGlyph>
    <TTGlyph name="asterisk" xMin="75" yMin="340" xMax="460" yMax="708">
      <contour>
        <pt x="440" y="610" on="1"/>
        <pt x="460" y="553" on="1"/>
        <pt x="317" y="501" on="1"/>
        <pt x="405" y="375" on="1"/>
        <pt x="355" y="341" on="1"/>
        <pt x="265" y="470" on="1"/>
        <pt x="175" y="340" on="1"/>
        <pt x="126" y="374" on="1"/>
        <pt x="214" y="502" on="1"/>
        <pt x="75" y="553" on="1"/>
        <pt x="96" y="609" on="1"/>
        <pt x="234" y="559" on="1"/>
        <pt x="234" y="708" on="1"/>
        <pt x="294" y="708" on="1"/>
        <pt x="294" y="557" on="1"/>
      </contour>
    </TTGlyph>
    <TTGlyph name="at" xMin="60" yMin="-40" xMax="642" yMax="560">
      <contour>
        <pt x="580" y="435" on="1"/>
        <pt x="580" y="458" on="0"/>
        <pt x="575" y="470" on="0"/>
        <pt x="562" y="481" on="1"/>
        <pt x="550" y="491" on="1"/>
        <pt x="537" y="502" on="0"/>
        <pt x="525" y="506" on="0"/>
        <pt x="507" y="506" on="1"/>
        <pt x="195" y="506" on="1"/>
        <pt x="177" y="506" on="0"/>
        <pt x="165" y="502" on="0"/>
        <pt x="152" y="491" on="1"/>
        <pt x="140" y="481" on="1"/>
        <pt x="127" y="470" on="0"/>
        <pt x="122" y="458" on="0"/>
        <pt x="122" y="435" on="1"/>
        <pt x="122" y="85" on="1"/>
        <pt x="122" y="62" on="0"/>
        <pt x="127" y="50" on="0"/>
        <pt x="140" y="39" on="1"/>
        <pt x="152" y="29" on="1"/>
        <pt x="165" y="18" on="0"/>
        <pt x="177" y="14" on="0"/>
        <pt x="195" y="14" on="1"/>
        <pt x="594" y="14" on="1"/>
        <pt x="594" y="-40" on="1"/>
        <pt x="156" y="-40" on="1"/>
        <pt x="132" y="-40" on="0"/>
        <pt x="108" y="-20" on="1"/>
        <pt x="84" y="0" on="1"/>
        <pt x="60" y="20" on="0"/>
        <pt x="60" y="50" on="1"/>
        <pt x="60" y="470" on="1"/>
        <pt x="60" y="500" on="0"/>
        <pt x="84" y="520" on="1"/>
        <pt x="108" y="540" on="1"/>
        <pt x="132" y="560" on="0"/>
        <pt x="156" y="560" on="1"/>
        <pt x="546" y="560" on="1"/>
        <pt x="570" y="560" on="0"/>
        <pt x="594" y="540" on="1"/>
        <pt x="618" y="520" on="1"/>
        <pt x="642" y="500" on="0"/>
        <pt x="642" y="470" on="1"/>
        <pt x="642" y="120" on="1"/>
        <pt x="594" y="80" on="1"/>
        <pt x="502" y="80" on="1"/>
        <pt x="484" y="80" on="0"/>
        <pt x="471" y="91" on="1"/>
        <pt x="461" y="100" on="0"/>
        <pt x="459" y="109" on="1"/>
        <pt x="455" y="109" on="1"/>
        <pt x="455" y="100" on="0"/>
        <pt x="440" y="91" on="1"/>
        <pt x="422" y="80" on="0"/>
        <pt x="403" y="80" on="1"/>
        <pt x="269" y="80" on="1"/>
        <pt x="251" y="80" on="0"/>
        <pt x="233" y="94" on="1"/>
        <pt x="216" y="109" on="1"/>
        <pt x="198" y="123" on="0"/>
        <pt x="198" y="146" on="1"/>
        <pt x="198" y="374" on="1"/>
        <pt x="198" y="395" on="0"/>
        <pt x="216" y="411" on="1"/>
        <pt x="233" y="425" on="1"/>
        <pt x="250" y="440" on="0"/>
        <pt x="269" y="440" on="1"/>
        <pt x="408" y="440" on="1"/>
        <pt x="427" y="440" on="0"/>
        <pt x="436" y="433" on="1"/>
        <pt x="444" y="425" on="0"/>
        <pt x="444" y="418" on="1"/>
        <pt x="448" y="418" on="1"/>
        <pt x="448" y="440" on="1"/>
        <pt x="504" y="440" on="1"/>
        <pt x="504" y="159" on="1"/>
        <pt x="504" y="143" on="0"/>
        <pt x="513" y="136" on="1"/>
        <pt x="522" y="128" on="0"/>
        <pt x="538" y="128" on="1"/>
        <pt x="556" y="128" on="1"/>
        <pt x="580" y="150" on="1"/>
      </contour>
      <contour>
        <pt x="268" y="347" on="1"/>
        <pt x="268" y="173" on="1"/>
        <pt x="268" y="157" on="0"/>
        <pt x="277" y="150" on="1"/>
        <pt x="286" y="142" on="0"/>
        <pt x="304" y="142" on="1"/>
        <pt x="380" y="142" on="1"/>
        <pt x="399" y="142" on="0"/>
        <pt x="417" y="153" on="1"/>
        <pt x="430" y="161" on="0"/>
        <pt x="434" y="168" on="0"/>
        <pt x="434" y="180" on="1"/>
        <pt x="434" y="347" on="1"/>
        <pt x="434" y="363" on="0"/>
        <pt x="426" y="370" on="1"/>
        <pt x="417" y="377" on="0"/>
        <pt x="398" y="377" on="1"/>
        <pt x="304" y="377" on="1"/>
        <pt x="286" y="377" on="0"/>
        <pt x="268" y="363" on="0"/>
      </contour>
    </TTGlyph>
    <TTGlyph name="atilde" xMin="70" yMin="0" xMax="506" yMax="658">
      <component glyphName="a" x="0" y="0" flags="0x204"/>
      <component glyphName="tilde" x="57" y="0" flags="0x4"/>
    </TTGlyph>
    <TTGlyph name="b" xMin="60" yMin="0" xMax="492" yMax="740">
      <contour>
        <pt x="408" y="111" on="1"/>
        <pt x="408" y="389" on="1"/>
        <pt x="408" y="404" on="0"/>
        <pt x="405" y="413" on="0"/>
        <pt x="387" y="427" on="0"/>
        <pt x="377" y="430" on="0"/>
        <pt x="359" y="430" on="1"/>
        <pt x="218" y="430" on="1"/>
        <pt x="199" y="430" on="0"/>
        <pt x="186" y="426" on="0"/>
        <pt x="150" y="404" on="0"/>
        <pt x="144" y="394" on="0"/>
        <pt x="144" y="379" on="1"/>
        <pt x="144" y="121" on="1"/>
        <pt x="144" y="106" on="0"/>
        <pt x="150" y="96" on="0"/>
        <pt x="186" y="74" on="0"/>
        <pt x="199" y="70" on="0"/>
        <pt x="217" y="70" on="1"/>
        <pt x="359" y="70" on="1"/>
        <pt x="377" y="70" on="0"/>
        <pt x="387" y="73" on="0"/>
        <pt x="405" y="87" on="0"/>
        <pt x="408" y="96" on="0"/>
      </contour>
      <contour>
        <pt x="144" y="740" on="1"/>
        <pt x="144" y="453" on="1"/>
        <pt x="148" y="453" on="1"/>
        <pt x="148" y="462" on="0"/>
        <pt x="192" y="500" on="0"/>
        <pt x="208" y="500" on="1"/>
        <pt x="396" y="500" on="1"/>
        <pt x="420" y="500" on="0"/>
        <pt x="444" y="480" on="1"/>
        <pt x="468" y="460" on="1"/>
        <pt x="492" y="440" on="0"/>
        <pt x="492" y="410" on="1"/>
        <pt x="492" y="90" on="1"/>
        <pt x="492" y="60" on="0"/>
        <pt x="468" y="40" on="1"/>
        <pt x="444" y="20" on="1"/>
        <pt x="420" y="0" on="0"/>
        <pt x="396" y="0" on="1"/>
        <pt x="209" y="0" on="1"/>
        <pt x="191" y="0" on="0"/>
        <pt x="178" y="4" on="0"/>
        <pt x="160" y="15" on="1"/>
        <pt x="137" y="26" on="0"/>
        <pt x="136" y="37" on="1"/>
        <pt x="132" y="37" on="1"/>
        <pt x="132" y="0" on="1"/>
        <pt x="60" y="0" on="1"/>
        <pt x="60" y="740" on="1"/>
      </contour>
    </TTGlyph>
    <TTGlyph name="backslash" xMin="-40" yMin="-90" xMax="565" yMax="700">
      <contour>
        <pt x="-40" y="700" on="1"/>
        <pt x="40" y="700" on="1"/>
        <pt x="565" y="-90" on="1"/>
        <pt x="489" y="-90" on="1"/>
      </contour>
    </TTGlyph>
    <TTGlyph name="bar" xMin="100" yMin="-180" xMax="170" yMax="740">
      <contour>
        <pt x="100" y="740" on="1"/>
        <pt x="170" y="740" on="1"/>
        <pt x="170" y="-180" on="1"/>
        <pt x="100" y="-180" on="1"/>
      </contour>
    </TTGlyph>
    <TTGlyph name="braceleft" xMin="60" yMin="-110" xMax="219" yMax="710">
      <contour>
        <pt x="113" y="366" on="1"/>
        <pt x="113" y="636" on="1"/>
        <pt x="113" y="659" on="0"/>
        <pt x="118" y="671" on="0"/>
        <pt x="133" y="681" on="1"/>
        <pt x="155" y="696" on="1"/>
        <pt x="170" y="706" on="0"/>
        <pt x="182" y="710" on="0"/>
        <pt x="201" y="710" on="1"/>
        <pt x="219" y="710" on="1"/>
        <pt x="219" y="671" on="1"/>
        <pt x="219" y="648" on="0"/>
        <pt x="214" y="637" on="0"/>
        <pt x="201" y="627" on="1"/>
        <pt x="189" y="619" on="0"/>
        <pt x="185" y="608" on="0"/>
        <pt x="185" y="585" on="1"/>
        <pt x="185" y="339" on="1"/>
        <pt x="185" y="316" on="0"/>
        <pt x="180" y="303" on="0"/>
        <pt x="165" y="291" on="1"/>
        <pt x="139" y="270" on="1"/>
        <pt x="127" y="260" on="0"/>
        <pt x="117" y="260" on="1"/>
        <pt x="117" y="256" on="1"/>
        <pt x="127" y="256" on="0"/>
        <pt x="139" y="246" on="1"/>
        <pt x="165" y="225" on="1"/>
        <pt x="180" y="213" on="0"/>
        <pt x="185" y="200" on="0"/>
        <pt x="185" y="177" on="1"/>
        <pt x="185" y="15" on="1"/>
        <pt x="185" y="-8" on="0"/>
        <pt x="189" y="-19" on="0"/>
        <pt x="201" y="-27" on="1"/>
        <pt x="214" y="-37" on="0"/>
        <pt x="219" y="-48" on="0"/>
        <pt x="219" y="-71" on="1"/>
        <pt x="219" y="-110" on="1"/>
        <pt x="201" y="-110" on="1"/>
        <pt x="182" y="-110" on="0"/>
        <pt x="170" y="-106" on="0"/>
        <pt x="155" y="-96" on="1"/>
        <pt x="133" y="-81" on="1"/>
        <pt x="118" y="-71" on="0"/>
        <pt x="113" y="-59" on="0"/>
        <pt x="113" y="-36" on="1"/>
        <pt x="113" y="150" on="1"/>
        <pt x="113" y="172" on="0"/>
        <pt x="95" y="188" on="1"/>
        <pt x="60" y="218" on="1"/>
        <pt x="60" y="298" on="1"/>
        <pt x="95" y="328" on="1"/>
        <pt x="113" y="344" on="0"/>
      </contour>
    </TTGlyph>
    <TTGlyph name="braceright" xMin="60" yMin="-110" xMax="219" yMax="710">
      <contour>
        <pt x="166" y="636" on="1"/>
        <pt x="166" y="366" on="1"/>
        <pt x="166" y="344" on="0"/>
        <pt x="184" y="328" on="1"/>
        <pt x="219" y="298" on="1"/>
        <pt x="219" y="218" on="1"/>
        <pt x="184" y="188" on="1"/>
        <pt x="166" y="172" on="0"/>
        <pt x="166" y="150" on="1"/>
        <pt x="166" y="-36" on="1"/>
        <pt x="166" y="-59" on="0"/>
        <pt x="161" y="-71" on="0"/>
        <pt x="146" y="-81" on="1"/>
        <pt x="124" y="-96" on="1"/>
        <pt x="109" y="-106" on="0"/>
        <pt x="97" y="-110" on="0"/>
        <pt x="78" y="-110" on="1"/>
        <pt x="60" y="-110" on="1"/>
        <pt x="60" y="-71" on="1"/>
        <pt x="60" y="-48" on="0"/>
        <pt x="65" y="-37" on="0"/>
        <pt x="78" y="-27" on="1"/>
        <pt x="90" y="-19" on="0"/>
        <pt x="94" y="-8" on="0"/>
        <pt x="94" y="15" on="1"/>
        <pt x="94" y="177" on="1"/>
        <pt x="94" y="200" on="0"/>
        <pt x="99" y="213" on="0"/>
        <pt x="114" y="225" on="1"/>
        <pt x="140" y="246" on="1"/>
        <pt x="152" y="256" on="0"/>
        <pt x="162" y="256" on="1"/>
        <pt x="162" y="260" on="1"/>
        <pt x="152" y="260" on="0"/>
        <pt x="140" y="270" on="1"/>
        <pt x="114" y="291" on="1"/>
        <pt x="99" y="303" on="0"/>
        <pt x="94" y="316" on="0"/>
        <pt x="94" y="339" on="1"/>
        <pt x="94" y="585" on="1"/>
        <pt x="94" y="608" on="0"/>
        <pt x="90" y="619" on="0"/>
        <pt x="78" y="627" on="1"/>
        <pt x="65" y="637" on="0"/>
        <pt x="60" y="648" on="0"/>
        <pt x="60" y="671" on="1"/>
        <pt x="60" y="710" on="1"/>
        <pt x="78" y="710" on="1"/>
        <pt x="97" y="710" on="0"/>
        <pt x="109" y="706" on="0"/>
        <pt x="124" y="696" on="1"/>
        <pt x="146" y="681" on="1"/>
        <pt x="161" y="671" on="0"/>
        <pt x="166" y="659" on="0"/>
      </contour>
    </TTGlyph>
    <TTGlyph name="bracketleft" xMin="56" yMin="-110" xMax="236" yMax="710">
      <contour>
        <pt x="236" y="-110" on="1"/>
        <pt x="56" y="-110" on="1"/>
        <pt x="56" y="710" on="1"/>
        <pt x="236" y="710" on="1"/>
        <pt x="236" y="645" on="1"/>
        <pt x="128" y="645" on="1"/>
        <pt x="128" y="-45" on="1"/>
        <pt x="236" y="-45" on="1"/>
      </contour>
    </TTGlyph>
    <TTGlyph name="bracketright" xMin="55" yMin="-110" xMax="235" yMax="710">
      <contour>
        <pt x="55" y="710" on="1"/>
        <pt x="235" y="710" on="1"/>
        <pt x="235" y="-110" on="1"/>
        <pt x="55" y="-110" on="1"/>
        <pt x="55" y="-45" on="1"/>
        <pt x="163" y="-45" on="1"/>
        <pt x="163" y="645" on="1"/>
        <pt x="55" y="645" on="1"/>
      </contour>
    </TTGlyph>
    <TTGlyph name="brokenbar" xMin="100" yMin="-180" xMax="170" yMax="740">
      <contour>
        <pt x="100" y="199" on="1"/>
        <pt x="170" y="199" on="1"/>
        <pt x="170" y="-180" on="1"/>
        <pt x="100" y="-180" on="1"/>
      </contour>
      <contour>
        <pt x="100" y="740" on="1"/>
        <pt x="170" y="740" on="1"/>
        <pt x="170" y="361" on="1"/>
        <pt x="100" y="361" on="1"/>
      </contour>
    </TTGlyph>
    <TTGlyph name="bullet" xMin="75" yMin="255" xMax="276" yMax="459">
      <contour>
        <pt x="276" y="383" on="1"/>
        <pt x="276" y="331" on="1"/>
        <pt x="276" y="299" on="0"/>
        <pt x="271" y="283" on="0"/>
        <pt x="257" y="270" on="1"/>
        <pt x="246" y="259" on="0"/>
        <pt x="229" y="255" on="0"/>
        <pt x="193" y="255" on="1"/>
        <pt x="161" y="255" on="1"/>
        <pt x="122" y="255" on="0"/>
        <pt x="105" y="259" on="0"/>
        <pt x="93" y="270" on="1"/>
        <pt x="80" y="283" on="0"/>
        <pt x="75" y="299" on="0"/>
        <pt x="75" y="331" on="1"/>
        <pt x="75" y="383" on="1"/>
        <pt x="75" y="415" on="0"/>
        <pt x="80" y="431" on="0"/>
        <pt x="94" y="444" on="1"/>
        <pt x="105" y="455" on="0"/>
        <pt x="122" y="459" on="0"/>
        <pt x="161" y="459" on="1"/>
        <pt x="192" y="459" on="1"/>
        <pt x="229" y="459" on="0"/>
        <pt x="247" y="455" on="0"/>
        <pt x="260" y="444" on="1"/>
        <pt x="272" y="431" on="0"/>
        <pt x="276" y="415" on="0"/>
      </contour>
    </TTGlyph>
    <TTGlyph name="c" xMin="60" yMin="0" xMax="460" yMax="500">
      <contour>
        <pt x="460" y="370" on="1"/>
        <pt x="376" y="370" on="1"/>
        <pt x="376" y="389" on="1"/>
        <pt x="376" y="404" on="0"/>
        <pt x="373" y="413" on="0"/>
        <pt x="355" y="427" on="0"/>
        <pt x="345" y="430" on="0"/>
        <pt x="327" y="430" on="1"/>
        <pt x="193" y="430" on="1"/>
        <pt x="175" y="430" on="0"/>
        <pt x="165" y="427" on="0"/>
        <pt x="147" y="413" on="0"/>
        <pt x="144" y="404" on="0"/>
        <pt x="144" y="389" on="1"/>
        <pt x="144" y="111" on="1"/>
        <pt x="144" y="96" on="0"/>
        <pt x="147" y="87" on="0"/>
        <pt x="165" y="73" on="0"/>
        <pt x="175" y="70" on="0"/>
        <pt x="193" y="70" on="1"/>
        <pt x="327" y="70" on="1"/>
        <pt x="345" y="70" on="0"/>
        <pt x="355" y="73" on="0"/>
        <pt x="373" y="87" on="0"/>
        <pt x="376" y="96" on="0"/>
        <pt x="376" y="111" on="1"/>
        <pt x="376" y="130" on="1"/>
        <pt x="460" y="130" on="1"/>
        <pt x="460" y="90" on="1"/>
        <pt x="460" y="60" on="0"/>
        <pt x="436" y="40" on="1"/>
        <pt x="412" y="20" on="1"/>
        <pt x="388" y="0" on="0"/>
        <pt x="364" y="0" on="1"/>
        <pt x="156" y="0" on="1"/>
        <pt x="132" y="0" on="0"/>
        <pt x="108" y="20" on="1"/>
        <pt x="84" y="40" on="1"/>
        <pt x="60" y="60" on="0"/>
        <pt x="60" y="90" on="1"/>
        <pt x="60" y="410" on="1"/>
        <pt x="60" y="440" on="0"/>
        <pt x="84" y="460" on="1"/>
        <pt x="108" y="480" on="1"/>
        <pt x="132" y="500" on="0"/>
        <pt x="156" y="500" on="1"/>
        <pt x="364" y="500" on="1"/>
        <pt x="388" y="500" on="0"/>
        <pt x="412" y="480" on="1"/>
        <pt x="436" y="460" on="1"/>
        <pt x="460" y="440" on="0"/>
        <pt x="460" y="410" on="1"/>
      </contour>
    </TTGlyph>
    <TTGlyph name="caron" xMin="75" yMin="567" xMax="324" yMax="700">
      <contour>
        <pt x="206" y="630" on="1"/>
        <pt x="264" y="700" on="1"/>
        <pt x="324" y="681" on="1"/>
        <pt x="225" y="567" on="1"/>
        <pt x="172" y="567" on="1"/>
        <pt x="75" y="681" on="1"/>
        <pt x="134" y="700" on="1"/>
        <pt x="192" y="630" on="1"/>
        <pt x="197" y="624" on="0"/>
        <pt x="197" y="618" on="1"/>
        <pt x="201" y="618" on="1"/>
        <pt x="201" y="624" on="0"/>
      </contour>
    </TTGlyph>
    <TTGlyph name="caron.case" xMin="0" yMin="741" xMax="259" yMax="863">
      <contour>
        <pt x="131" y="801" on="1"/>
        <pt x="233" y="863" on="1"/>
        <pt x="259" y="829" on="1"/>
        <pt x="156" y="741" on="1"/>
        <pt x="103" y="741" on="1"/>
        <pt x="0" y="829" on="1"/>
        <pt x="26" y="863" on="1"/>
        <pt x="127" y="801" on="1"/>
      </contour>
    </TTGlyph>
    <TTGlyph name="ccedilla" xMin="60" yMin="-220" xMax="460" yMax="500">
      <contour>
        <pt x="364" y="0" on="1"/>
        <pt x="275" y="0" on="1"/>
        <pt x="275" y="-59" on="1"/>
        <pt x="301" y="-40" on="0"/>
        <pt x="311" y="-40" on="1"/>
        <pt x="343" y="-40" on="1"/>
        <pt x="355" y="-40" on="0"/>
        <pt x="367" y="-50" on="1"/>
        <pt x="379" y="-60" on="1"/>
        <pt x="391" y="-70" on="0"/>
        <pt x="391" y="-85" on="1"/>
        <pt x="391" y="-175" on="1"/>
        <pt x="391" y="-190" on="0"/>
        <pt x="379" y="-200" on="1"/>
        <pt x="367" y="-210" on="1"/>
        <pt x="355" y="-220" on="0"/>
        <pt x="343" y="-220" on="1"/>
        <pt x="232" y="-220" on="1"/>
        <pt x="220" y="-220" on="0"/>
        <pt x="208" y="-210" on="1"/>
        <pt x="196" y="-200" on="1"/>
        <pt x="184" y="-190" on="0"/>
        <pt x="184" y="-175" on="1"/>
        <pt x="184" y="-143" on="1"/>
        <pt x="233" y="-143" on="1"/>
        <pt x="233" y="-152" on="1"/>
        <pt x="233" y="-163" on="0"/>
        <pt x="245" y="-173" on="0"/>
        <pt x="258" y="-173" on="1"/>
        <pt x="316" y="-173" on="1"/>
        <pt x="330" y="-173" on="0"/>
        <pt x="342" y="-163" on="0"/>
        <pt x="342" y="-152" on="1"/>
        <pt x="342" y="-108" on="1"/>
        <pt x="342" y="-97" on="0"/>
        <pt x="330" y="-87" on="0"/>
        <pt x="317" y="-87" on="1"/>
        <pt x="296" y="-87" on="1"/>
        <pt x="290" y="-87" on="0"/>
        <pt x="285" y="-90" on="1"/>
        <pt x="275" y="-97" on="1"/>
        <pt x="226" y="-97" on="1"/>
        <pt x="226" y="0" on="1"/>
        <pt x="156" y="0" on="1"/>
        <pt x="132" y="0" on="0"/>
        <pt x="108" y="20" on="1"/>
        <pt x="84" y="40" on="1"/>
        <pt x="60" y="60" on="0"/>
        <pt x="60" y="90" on="1"/>
        <pt x="60" y="410" on="1"/>
        <pt x="60" y="440" on="0"/>
        <pt x="84" y="460" on="1"/>
        <pt x="108" y="480" on="1"/>
        <pt x="132" y="500" on="0"/>
        <pt x="156" y="500" on="1"/>
        <pt x="364" y="500" on="1"/>
        <pt x="388" y="500" on="0"/>
        <pt x="412" y="480" on="1"/>
        <pt x="436" y="460" on="1"/>
        <pt x="460" y="440" on="0"/>
        <pt x="460" y="410" on="1"/>
        <pt x="460" y="370" on="1"/>
        <pt x="376" y="370" on="1"/>
        <pt x="376" y="389" on="1"/>
        <pt x="376" y="404" on="0"/>
        <pt x="373" y="413" on="0"/>
        <pt x="355" y="427" on="0"/>
        <pt x="345" y="430" on="0"/>
        <pt x="327" y="430" on="1"/>
        <pt x="193" y="430" on="1"/>
        <pt x="175" y="430" on="0"/>
        <pt x="165" y="427" on="0"/>
        <pt x="147" y="413" on="0"/>
        <pt x="144" y="404" on="0"/>
        <pt x="144" y="389" on="1"/>
        <pt x="144" y="111" on="1"/>
        <pt x="144" y="96" on="0"/>
        <pt x="147" y="87" on="0"/>
        <pt x="165" y="73" on="0"/>
        <pt x="175" y="70" on="0"/>
        <pt x="193" y="70" on="1"/>
        <pt x="327" y="70" on="1"/>
        <pt x="345" y="70" on="0"/>
        <pt x="355" y="73" on="0"/>
        <pt x="373" y="87" on="0"/>
        <pt x="376" y="96" on="0"/>
        <pt x="376" y="111" on="1"/>
        <pt x="376" y="130" on="1"/>
        <pt x="460" y="130" on="1"/>
        <pt x="460" y="90" on="1"/>
        <pt x="460" y="60" on="0"/>
        <pt x="436" y="40" on="1"/>
        <pt x="412" y="20" on="1"/>
        <pt x="388" y="0" on="0"/>
      </contour>
    </TTGlyph>
    <TTGlyph name="cedilla" xMin="95" yMin="-220" xMax="302" yMax="0">
      <contour>
        <pt x="137" y="0" on="1"/>
        <pt x="186" y="0" on="1"/>
        <pt x="186" y="-59" on="1"/>
        <pt x="212" y="-40" on="0"/>
        <pt x="222" y="-40" on="1"/>
        <pt x="254" y="-40" on="1"/>
        <pt x="266" y="-40" on="0"/>
        <pt x="278" y="-50" on="1"/>
        <pt x="290" y="-60" on="1"/>
        <pt x="302" y="-70" on="0"/>
        <pt x="302" y="-85" on="1"/>
        <pt x="302" y="-175" on="1"/>
        <pt x="302" y="-190" on="0"/>
        <pt x="290" y="-200" on="1"/>
        <pt x="278" y="-210" on="1"/>
        <pt x="266" y="-220" on="0"/>
        <pt x="254" y="-220" on="1"/>
        <pt x="143" y="-220" on="1"/>
        <pt x="131" y="-220" on="0"/>
        <pt x="119" y="-210" on="1"/>
        <pt x="107" y="-200" on="1"/>
        <pt x="95" y="-190" on="0"/>
        <pt x="95" y="-175" on="1"/>
        <pt x="95" y="-143" on="1"/>
        <pt x="144" y="-143" on="1"/>
        <pt x="144" y="-152" on="1"/>
        <pt x="144" y="-163" on="0"/>
        <pt x="156" y="-173" on="0"/>
        <pt x="169" y="-173" on="1"/>
        <pt x="227" y="-173" on="1"/>
        <pt x="241" y="-173" on="0"/>
        <pt x="253" y="-163" on="0"/>
        <pt x="253" y="-152" on="1"/>
        <pt x="253" y="-108" on="1"/>
        <pt x="253" y="-97" on="0"/>
        <pt x="241" y="-87" on="0"/>
        <pt x="228" y="-87" on="1"/>
        <pt x="207" y="-87" on="1"/>
        <pt x="201" y="-87" on="0"/>
        <pt x="196" y="-90" on="1"/>
        <pt x="186" y="-97" on="1"/>
        <pt x="137" y="-97" on="1"/>
      </contour>
    </TTGlyph>
    <TTGlyph name="cent" xMin="60" yMin="-101" xMax="480" yMax="600">
      <contour>
        <pt x="235" y="600" on="1"/>
        <pt x="305" y="600" on="1"/>
        <pt x="305" y="500" on="1"/>
        <pt x="384" y="500" on="1"/>
        <pt x="408" y="500" on="0"/>
        <pt x="432" y="480" on="1"/>
        <pt x="456" y="460" on="1"/>
        <pt x="480" y="440" on="0"/>
        <pt x="480" y="410" on="1"/>
        <pt x="480" y="370" on="1"/>
        <pt x="396" y="370" on="1"/>
        <pt x="396" y="389" on="1"/>
        <pt x="396" y="404" on="0"/>
        <pt x="393" y="413" on="0"/>
        <pt x="375" y="427" on="0"/>
        <pt x="365" y="430" on="0"/>
        <pt x="347" y="430" on="1"/>
        <pt x="193" y="430" on="1"/>
        <pt x="175" y="430" on="0"/>
        <pt x="165" y="427" on="0"/>
        <pt x="147" y="413" on="0"/>
        <pt x="144" y="404" on="0"/>
        <pt x="144" y="389" on="1"/>
        <pt x="144" y="111" on="1"/>
        <pt x="144" y="96" on="0"/>
        <pt x="147" y="87" on="0"/>
        <pt x="165" y="73" on="0"/>
        <pt x="175" y="70" on="0"/>
        <pt x="193" y="70" on="1"/>
        <pt x="347" y="70" on="1"/>
        <pt x="365" y="70" on="0"/>
        <pt x="375" y="73" on="0"/>
        <pt x="393" y="87" on="0"/>
        <pt x="396" y="96" on="0"/>
        <pt x="396" y="111" on="1"/>
        <pt x="396" y="130" on="1"/>
        <pt x="480" y="130" on="1"/>
        <pt x="480" y="90" on="1"/>
        <pt x="480" y="60" on="0"/>
        <pt x="456" y="40" on="1"/>
        <pt x="432" y="20" on="1"/>
        <pt x="408" y="0" on="0"/>
        <pt x="384" y="0" on="1"/>
        <pt x="305" y="0" on="1"/>
        <pt x="305" y="-101" on="1"/>
        <pt x="235" y="-101" on="1"/>
        <pt x="235" y="0" on="1"/>
        <pt x="156" y="0" on="1"/>
        <pt x="132" y="0" on="0"/>
        <pt x="108" y="20" on="1"/>
        <pt x="84" y="40" on="1"/>
        <pt x="60" y="60" on="0"/>
        <pt x="60" y="90" on="1"/>
        <pt x="60" y="410" on="1"/>
        <pt x="60" y="440" on="0"/>
        <pt x="84" y="460" on="1"/>
        <pt x="108" y="480" on="1"/>
        <pt x="132" y="500" on="0"/>
        <pt x="156" y="500" on="1"/>
        <pt x="235" y="500" on="1"/>
      </contour>
    </TTGlyph>
    <TTGlyph name="circumflex" xMin="75" yMin="567" xMax="324" yMax="700">
      <contour>
        <pt x="264" y="567" on="1"/>
        <pt x="206" y="637" on="1"/>
        <pt x="201" y="643" on="0"/>
        <pt x="201" y="649" on="1"/>
        <pt x="197" y="649" on="1"/>
        <pt x="197" y="643" on="0"/>
        <pt x="192" y="637" on="1"/>
        <pt x="134" y="567" on="1"/>
        <pt x="75" y="586" on="1"/>
        <pt x="172" y="700" on="1"/>
        <pt x="225" y="700" on="1"/>
        <pt x="324" y="586" on="1"/>
      </contour>
    </TTGlyph>
    <TTGlyph name="circumflex.case" xMin="0" yMin="748" xMax="259" yMax="870">
      <contour>
        <pt x="128" y="810" on="1"/>
        <pt x="26" y="748" on="1"/>
        <pt x="0" y="782" on="1"/>
        <pt x="103" y="870" on="1"/>
        <pt x="156" y="870" on="1"/>
        <pt x="259" y="782" on="1"/>
        <pt x="233" y="748" on="1"/>
        <pt x="132" y="810" on="1"/>
      </contour>
    </TTGlyph>
    <TTGlyph name="colon" xMin="60" yMin="0" xMax="144" yMax="485">
      <contour>
        <pt x="144" y="59" on="1"/>
        <pt x="144" y="36" on="1"/>
        <pt x="144" y="21" on="0"/>
        <pt x="142" y="13" on="0"/>
        <pt x="135" y="7" on="1"/>
        <pt x="128" y="0" on="0"/>
        <pt x="105" y="0" on="1"/>
        <pt x="100" y="0" on="1"/>
        <pt x="76" y="0" on="0"/>
        <pt x="68" y="7" on="1"/>
        <pt x="60" y="15" on="0"/>
        <pt x="60" y="36" on="1"/>
        <pt x="60" y="59" on="1"/>
        <pt x="60" y="74" on="0"/>
        <pt x="62" y="82" on="0"/>
        <pt x="69" y="88" on="1"/>
        <pt x="76" y="95" on="0"/>
        <pt x="100" y="95" on="1"/>
        <pt x="104" y="95" on="1"/>
        <pt x="128" y="95" on="0"/>
        <pt x="136" y="88" on="1"/>
        <pt x="144" y="80" on="0"/>
      </contour>
      <contour>
        <pt x="144" y="449" on="1"/>
        <pt x="144" y="426" on="1"/>
        <pt x="144" y="411" on="0"/>
        <pt x="142" y="403" on="0"/>
        <pt x="135" y="397" on="1"/>
        <pt x="128" y="390" on="0"/>
        <pt x="105" y="390" on="1"/>
        <pt x="100" y="390" on="1"/>
        <pt x="76" y="390" on="0"/>
        <pt x="68" y="397" on="1"/>
        <pt x="60" y="405" on="0"/>
        <pt x="60" y="426" on="1"/>
        <pt x="60" y="449" on="1"/>
        <pt x="60" y="464" on="0"/>
        <pt x="62" y="472" on="0"/>
        <pt x="69" y="478" on="1"/>
        <pt x="76" y="485" on="0"/>
        <pt x="100" y="485" on="1"/>
        <pt x="104" y="485" on="1"/>
        <pt x="128" y="485" on="0"/>
        <pt x="136" y="478" on="1"/>
        <pt x="144" y="470" on="0"/>
      </contour>
    </TTGlyph>
    <TTGlyph name="comma" xMin="60" yMin="-120" xMax="144" yMax="95">
      <contour>
        <pt x="138" y="-10" on="1"/>
        <pt x="114" y="-120" on="1"/>
        <pt x="84" y="-100" on="1"/>
        <pt x="84" y="0" on="1"/>
        <pt x="76" y="0" on="0"/>
        <pt x="68" y="8" on="1"/>
        <pt x="62" y="13" on="0"/>
        <pt x="60" y="22" on="0"/>
        <pt x="60" y="39" on="1"/>
        <pt x="60" y="56" on="1"/>
        <pt x="60" y="80" on="0"/>
        <pt x="68" y="88" on="1"/>
        <pt x="76" y="95" on="0"/>
        <pt x="101" y="95" on="1"/>
        <pt x="128" y="95" on="0"/>
        <pt x="136" y="88" on="1"/>
        <pt x="144" y="80" on="0"/>
        <pt x="144" y="56" on="1"/>
        <pt x="144" y="39" on="1"/>
        <pt x="144" y="15" on="0"/>
      </contour>
    </TTGlyph>
    <TTGlyph name="copyright" xMin="75" yMin="40" xMax="657" yMax="640">
      <contour>
        <pt x="657" y="130" on="1"/>
        <pt x="657" y="100" on="0"/>
        <pt x="633" y="80" on="1"/>
        <pt x="609" y="60" on="1"/>
        <pt x="585" y="40" on="0"/>
        <pt x="561" y="40" on="1"/>
        <pt x="171" y="40" on="1"/>
        <pt x="147" y="40" on="0"/>
        <pt x="123" y="60" on="1"/>
        <pt x="99" y="80" on="1"/>
        <pt x="75" y="100" on="0"/>
        <pt x="75" y="130" on="1"/>
        <pt x="75" y="550" on="1"/>
        <pt x="75" y="580" on="0"/>
        <pt x="99" y="600" on="1"/>
        <pt x="123" y="620" on="1"/>
        <pt x="147" y="640" on="0"/>
        <pt x="171" y="640" on="1"/>
        <pt x="561" y="640" on="1"/>
        <pt x="585" y="640" on="0"/>
        <pt x="609" y="620" on="1"/>
        <pt x="633" y="600" on="1"/>
        <pt x="657" y="580" on="0"/>
        <pt x="657" y="550" on="1"/>
      </contour>
      <contour>
        <pt x="595" y="515" on="1"/>
        <pt x="595" y="538" on="0"/>
        <pt x="590" y="550" on="0"/>
        <pt x="577" y="561" on="1"/>
        <pt x="565" y="571" on="1"/>
        <pt x="552" y="582" on="0"/>
        <pt x="540" y="586" on="0"/>
        <pt x="522" y="586" on="1"/>
        <pt x="210" y="586" on="1"/>
        <pt x="192" y="586" on="0"/>
        <pt x="180" y="582" on="0"/>
        <pt x="167" y="571" on="1"/>
        <pt x="155" y="561" on="1"/>
        <pt x="142" y="550" on="0"/>
        <pt x="137" y="538" on="0"/>
        <pt x="137" y="515" on="1"/>
        <pt x="137" y="165" on="1"/>
        <pt x="137" y="142" on="0"/>
        <pt x="142" y="130" on="0"/>
        <pt x="155" y="119" on="1"/>
        <pt x="167" y="109" on="1"/>
        <pt x="180" y="98" on="0"/>
        <pt x="192" y="94" on="0"/>
        <pt x="210" y="94" on="1"/>
        <pt x="522" y="94" on="1"/>
        <pt x="540" y="94" on="0"/>
        <pt x="552" y="98" on="0"/>
        <pt x="565" y="109" on="1"/>
        <pt x="577" y="119" on="1"/>
        <pt x="590" y="130" on="0"/>
        <pt x="595" y="142" on="0"/>
        <pt x="595" y="165" on="1"/>
      </contour>
      <contour>
        <pt x="470" y="456" on="1"/>
        <pt x="534" y="456" on="1"/>
        <pt x="534" y="493" on="1"/>
        <pt x="534" y="511" on="0"/>
        <pt x="520" y="523" on="1"/>
        <pt x="505" y="534" on="1"/>
        <pt x="489" y="546" on="0"/>
        <pt x="476" y="546" on="1"/>
        <pt x="264" y="546" on="1"/>
        <pt x="251" y="546" on="0"/>
        <pt x="237" y="534" on="1"/>
        <pt x="223" y="523" on="1"/>
        <pt x="208" y="512" on="0"/>
        <pt x="208" y="493" on="1"/>
        <pt x="208" y="187" on="1"/>
        <pt x="208" y="168" on="0"/>
        <pt x="223" y="157" on="1"/>
        <pt x="237" y="146" on="1"/>
        <pt x="251" y="134" on="0"/>
        <pt x="264" y="134" on="1"/>
        <pt x="476" y="134" on="1"/>
        <pt x="489" y="134" on="0"/>
        <pt x="505" y="146" on="1"/>
        <pt x="520" y="157" on="1"/>
        <pt x="534" y="169" on="0"/>
        <pt x="534" y="187" on="1"/>
        <pt x="534" y="224" on="1"/>
        <pt x="470" y="224" on="1"/>
        <pt x="470" y="214" on="1"/>
        <pt x="470" y="202" on="0"/>
        <pt x="462" y="195" on="1"/>
        <pt x="455" y="189" on="0"/>
        <pt x="439" y="189" on="1"/>
        <pt x="301" y="189" on="1"/>
        <pt x="286" y="189" on="0"/>
        <pt x="278" y="195" on="1"/>
        <pt x="272" y="201" on="0"/>
        <pt x="272" y="213" on="1"/>
        <pt x="272" y="467" on="1"/>
        <pt x="272" y="479" on="0"/>
        <pt x="278" y="485" on="1"/>
        <pt x="286" y="491" on="0"/>
        <pt x="301" y="491" on="1"/>
        <pt x="439" y="491" on="1"/>
        <pt x="455" y="491" on="0"/>
        <pt x="462" y="485" on="1"/>
        <pt x="470" y="478" on="0"/>
        <pt x="470" y="466" on="1"/>
      </contour>
    </TTGlyph>
    <TTGlyph name="currency" xMin="45" yMin="123" xMax="469" yMax="561">
      <contour>
        <pt x="91" y="561" on="1"/>
        <pt x="145" y="509" on="1"/>
        <pt x="369" y="509" on="1"/>
        <pt x="423" y="561" on="1"/>
        <pt x="469" y="515" on="1"/>
        <pt x="418" y="464" on="1"/>
        <pt x="418" y="221" on="1"/>
        <pt x="469" y="169" on="1"/>
        <pt x="423" y="123" on="1"/>
        <pt x="371" y="175" on="1"/>
        <pt x="145" y="175" on="1"/>
        <pt x="91" y="123" on="1"/>
        <pt x="45" y="169" on="1"/>
        <pt x="96" y="220" on="1"/>
        <pt x="96" y="463" on="1"/>
        <pt x="45" y="515" on="1"/>
      </contour>
      <contour>
        <pt x="152" y="440" on="1"/>
        <pt x="152" y="244" on="1"/>
        <pt x="152" y="232" on="0"/>
        <pt x="158" y="227" on="1"/>
        <pt x="165" y="222" on="0"/>
        <pt x="178" y="222" on="1"/>
        <pt x="336" y="222" on="1"/>
        <pt x="349" y="222" on="0"/>
        <pt x="356" y="227" on="1"/>
        <pt x="362" y="232" on="0"/>
        <pt x="362" y="244" on="1"/>
        <pt x="362" y="440" on="1"/>
        <pt x="362" y="452" on="0"/>
        <pt x="356" y="457" on="1"/>
        <pt x="349" y="462" on="0"/>
        <pt x="336" y="462" on="1"/>
        <pt x="178" y="462" on="1"/>
        <pt x="165" y="462" on="0"/>
        <pt x="158" y="457" on="1"/>
        <pt x="152" y="452" on="0"/>
      </contour>
    </TTGlyph>
    <TTGlyph name="d" xMin="60" yMin="0" xMax="516" yMax="740">
      <contour>
        <pt x="336" y="430" on="1"/>
        <pt x="193" y="430" on="1"/>
        <pt x="175" y="430" on="0"/>
        <pt x="165" y="427" on="0"/>
        <pt x="147" y="413" on="0"/>
        <pt x="144" y="404" on="0"/>
        <pt x="144" y="389" on="1"/>
        <pt x="144" y="111" on="1"/>
        <pt x="144" y="96" on="0"/>
        <pt x="147" y="87" on="0"/>
        <pt x="165" y="73" on="0"/>
        <pt x="175" y="70" on="0"/>
        <pt x="193" y="70" on="1"/>
        <pt x="335" y="70" on="1"/>
        <pt x="353" y="70" on="0"/>
        <pt x="366" y="74" on="0"/>
        <pt x="402" y="96" on="0"/>
        <pt x="408" y="106" on="0"/>
        <pt x="408" y="121" on="1"/>
        <pt x="408" y="370" on="1"/>
        <pt x="408" y="390" on="0"/>
        <pt x="360" y="430" on="0"/>
      </contour>
      <contour>
        <pt x="347" y="0" on="1"/>
        <pt x="156" y="0" on="1"/>
        <pt x="132" y="0" on="0"/>
        <pt x="108" y="20" on="1"/>
        <pt x="84" y="40" on="1"/>
        <pt x="60" y="60" on="0"/>
        <pt x="60" y="90" on="1"/>
        <pt x="60" y="410" on="1"/>
        <pt x="60" y="440" on="0"/>
        <pt x="84" y="460" on="1"/>
        <pt x="108" y="480" on="1"/>
        <pt x="132" y="500" on="0"/>
        <pt x="156" y="500" on="1"/>
        <pt x="332" y="500" on="1"/>
        <pt x="356" y="500" on="0"/>
        <pt x="380" y="480" on="1"/>
        <pt x="404" y="456" on="0"/>
        <pt x="404" y="450" on="1"/>
        <pt x="408" y="450" on="1"/>
        <pt x="408" y="740" on="1"/>
        <pt x="492" y="740" on="1"/>
        <pt x="492" y="111" on="1"/>
        <pt x="492" y="96" on="0"/>
        <pt x="495" y="87" on="0"/>
        <pt x="513" y="73" on="0"/>
        <pt x="516" y="64" on="0"/>
        <pt x="516" y="49" on="1"/>
        <pt x="516" y="0" on="1"/>
        <pt x="481" y="0" on="1"/>
        <pt x="463" y="0" on="0"/>
        <pt x="450" y="5" on="0"/>
        <pt x="438" y="15" on="1"/>
        <pt x="422" y="28" on="0"/>
        <pt x="422" y="40" on="1"/>
        <pt x="418" y="40" on="1"/>
        <pt x="418" y="28" on="0"/>
        <pt x="396" y="15" on="1"/>
        <pt x="378" y="4" on="0"/>
        <pt x="365" y="0" on="0"/>
      </contour>
    </TTGlyph>
    <TTGlyph name="degree" xMin="60" yMin="420" xMax="342" yMax="700">
      <contour>
        <pt x="109" y="700" on="1"/>
        <pt x="293" y="700" on="1"/>
        <pt x="306" y="700" on="0"/>
        <pt x="318" y="690" on="1"/>
        <pt x="330" y="679" on="1"/>
        <pt x="342" y="669" on="0"/>
        <pt x="342" y="654" on="1"/>
        <pt x="342" y="466" on="1"/>
        <pt x="342" y="451" on="0"/>
        <pt x="330" y="441" on="1"/>
        <pt x="318" y="430" on="1"/>
        <pt x="306" y="420" on="0"/>
        <pt x="293" y="420" on="1"/>
        <pt x="109" y="420" on="1"/>
        <pt x="97" y="420" on="0"/>
        <pt x="85" y="430" on="1"/>
        <pt x="72" y="441" on="1"/>
        <pt x="60" y="451" on="0"/>
        <pt x="60" y="466" on="1"/>
        <pt x="60" y="654" on="1"/>
        <pt x="60" y="669" on="0"/>
        <pt x="72" y="679" on="1"/>
        <pt x="85" y="690" on="1"/>
        <pt x="97" y="700" on="0"/>
      </contour>
      <contour>
        <pt x="276" y="499" on="1"/>
        <pt x="276" y="621" on="1"/>
        <pt x="276" y="633" on="0"/>
        <pt x="264" y="643" on="0"/>
        <pt x="251" y="643" on="1"/>
        <pt x="152" y="643" on="1"/>
        <pt x="139" y="643" on="0"/>
        <pt x="132" y="638" on="1"/>
        <pt x="126" y="633" on="0"/>
        <pt x="126" y="621" on="1"/>
        <pt x="126" y="499" on="1"/>
        <pt x="126" y="487" on="0"/>
        <pt x="132" y="482" on="1"/>
        <pt x="139" y="477" on="0"/>
        <pt x="152" y="477" on="1"/>
        <pt x="251" y="477" on="1"/>
        <pt x="264" y="477" on="0"/>
        <pt x="276" y="487" on="0"/>
      </contour>
    </TTGlyph>
    <TTGlyph name="dieresis" xMin="66" yMin="586" xMax="322" yMax="678">
      <contour>
        <pt x="162" y="636" on="1"/>
        <pt x="162" y="628" on="1"/>
        <pt x="162" y="609" on="0"/>
        <pt x="160" y="600" on="0"/>
        <pt x="153" y="595" on="1"/>
        <pt x="144" y="586" on="0"/>
        <pt x="117" y="586" on="1"/>
        <pt x="112" y="586" on="1"/>
        <pt x="86" y="586" on="0"/>
        <pt x="66" y="604" on="0"/>
        <pt x="66" y="628" on="1"/>
        <pt x="66" y="636" on="1"/>
        <pt x="66" y="658" on="0"/>
        <pt x="76" y="669" on="1"/>
        <pt x="82" y="676" on="0"/>
        <pt x="92" y="678" on="0"/>
        <pt x="112" y="678" on="1"/>
        <pt x="135" y="678" on="0"/>
        <pt x="147" y="676" on="0"/>
        <pt x="154" y="669" on="1"/>
        <pt x="160" y="664" on="0"/>
        <pt x="162" y="655" on="0"/>
      </contour>
      <contour>
        <pt x="322" y="636" on="1"/>
        <pt x="322" y="628" on="1"/>
        <pt x="322" y="609" on="0"/>
        <pt x="320" y="600" on="0"/>
        <pt x="313" y="595" on="1"/>
        <pt x="304" y="586" on="0"/>
        <pt x="277" y="586" on="1"/>
        <pt x="272" y="586" on="1"/>
        <pt x="246" y="586" on="0"/>
        <pt x="226" y="604" on="0"/>
        <pt x="226" y="628" on="1"/>
        <pt x="226" y="636" on="1"/>
        <pt x="226" y="658" on="0"/>
        <pt x="236" y="669" on="1"/>
        <pt x="242" y="676" on="0"/>
        <pt x="252" y="678" on="0"/>
        <pt x="272" y="678" on="1"/>
        <pt x="295" y="678" on="0"/>
        <pt x="307" y="676" on="0"/>
        <pt x="314" y="669" on="1"/>
        <pt x="320" y="664" on="0"/>
        <pt x="322" y="655" on="0"/>
      </contour>
    </TTGlyph>
    <TTGlyph name="dieresis.case" xMin="63" yMin="756" xMax="325" yMax="848">
      <contour>
        <pt x="159" y="798" on="1"/>
        <pt x="159" y="779" on="0"/>
        <pt x="157" y="770" on="0"/>
        <pt x="150" y="765" on="1"/>
        <pt x="143" y="758" on="0"/>
        <pt x="132" y="756" on="0"/>
        <pt x="114" y="756" on="1"/>
        <pt x="109" y="756" on="1"/>
        <pt x="90" y="756" on="0"/>
        <pt x="80" y="759" on="0"/>
        <pt x="73" y="765" on="1"/>
        <pt x="66" y="771" on="0"/>
        <pt x="63" y="781" on="0"/>
        <pt x="63" y="798" on="1"/>
        <pt x="63" y="806" on="1"/>
        <pt x="63" y="823" on="0"/>
        <pt x="66" y="831" on="0"/>
        <pt x="73" y="839" on="1"/>
        <pt x="79" y="846" on="0"/>
        <pt x="89" y="848" on="0"/>
        <pt x="109" y="848" on="1"/>
        <pt x="132" y="848" on="0"/>
        <pt x="144" y="846" on="0"/>
        <pt x="151" y="839" on="1"/>
        <pt x="157" y="834" on="0"/>
        <pt x="159" y="825" on="0"/>
        <pt x="159" y="806" on="1"/>
      </contour>
      <contour>
        <pt x="325" y="798" on="1"/>
        <pt x="325" y="779" on="0"/>
        <pt x="323" y="770" on="0"/>
        <pt x="316" y="765" on="1"/>
        <pt x="309" y="758" on="0"/>
        <pt x="298" y="756" on="0"/>
        <pt x="280" y="756" on="1"/>
        <pt x="275" y="756" on="1"/>
        <pt x="256" y="756" on="0"/>
        <pt x="246" y="759" on="0"/>
        <pt x="239" y="765" on="1"/>
        <pt x="232" y="771" on="0"/>
        <pt x="229" y="781" on="0"/>
        <pt x="229" y="798" on="1"/>
        <pt x="229" y="806" on="1"/>
        <pt x="229" y="823" on="0"/>
        <pt x="232" y="831" on="0"/>
        <pt x="239" y="839" on="1"/>
        <pt x="245" y="846" on="0"/>
        <pt x="255" y="848" on="0"/>
        <pt x="275" y="848" on="1"/>
        <pt x="298" y="848" on="0"/>
        <pt x="310" y="846" on="0"/>
        <pt x="317" y="839" on="1"/>
        <pt x="323" y="834" on="0"/>
        <pt x="325" y="825" on="0"/>
        <pt x="325" y="806" on="1"/>
      </contour>
    </TTGlyph>
    <TTGlyph name="divide" xMin="60" yMin="122" xMax="478" yMax="527">
      <contour>
        <pt x="311" y="192" on="1"/>
        <pt x="311" y="152" on="1"/>
        <pt x="311" y="136" on="0"/>
        <pt x="296" y="122" on="0"/>
        <pt x="269" y="122" on="1"/>
        <pt x="240" y="122" on="0"/>
        <pt x="227" y="136" on="0"/>
        <pt x="227" y="147" on="1"/>
        <pt x="227" y="191" on="1"/>
        <pt x="227" y="202" on="0"/>
        <pt x="241" y="217" on="0"/>
        <pt x="269" y="217" on="1"/>
        <pt x="297" y="217" on="0"/>
        <pt x="311" y="203" on="0"/>
      </contour>
      <contour>
        <pt x="311" y="502" on="1"/>
        <pt x="311" y="462" on="1"/>
        <pt x="311" y="446" on="0"/>
        <pt x="296" y="432" on="0"/>
        <pt x="269" y="432" on="1"/>
        <pt x="240" y="432" on="0"/>
        <pt x="227" y="446" on="0"/>
        <pt x="227" y="457" on="1"/>
        <pt x="227" y="501" on="1"/>
        <pt x="227" y="512" on="0"/>
        <pt x="241" y="527" on="0"/>
        <pt x="269" y="527" on="1"/>
        <pt x="297" y="527" on="0"/>
        <pt x="311" y="513" on="0"/>
      </contour>
      <contour>
        <pt x="60" y="359" on="1"/>
        <pt x="478" y="359" on="1"/>
        <pt x="478" y="294" on="1"/>
        <pt x="60" y="294" on="1"/>
      </contour>
    </TTGlyph>
    <TTGlyph name="dollar" xMin="75" yMin="-90" xMax="553" yMax="780">
      <contour>
        <pt x="352" y="-90" on="1"/>
        <pt x="280" y="-90" on="1"/>
        <pt x="280" y="20" on="1"/>
        <pt x="171" y="20" on="1"/>
        <pt x="147" y="20" on="0"/>
        <pt x="123" y="40" on="1"/>
        <pt x="99" y="60" on="1"/>
        <pt x="75" y="80" on="0"/>
        <pt x="75" y="110" on="1"/>
        <pt x="75" y="150" on="1"/>
        <pt x="159" y="150" on="1"/>
        <pt x="159" y="131" on="1"/>
        <pt x="159" y="116" on="0"/>
        <pt x="162" y="107" on="0"/>
        <pt x="180" y="93" on="0"/>
        <pt x="190" y="90" on="0"/>
        <pt x="208" y="90" on="1"/>
        <pt x="280" y="90" on="1"/>
        <pt x="280" y="320" on="1"/>
        <pt x="181" y="320" on="1"/>
        <pt x="157" y="320" on="0"/>
        <pt x="133" y="340" on="1"/>
        <pt x="106" y="363" on="1"/>
        <pt x="85" y="380" on="0"/>
        <pt x="85" y="403" on="1"/>
        <pt x="85" y="590" on="1"/>
        <pt x="85" y="620" on="0"/>
        <pt x="109" y="640" on="1"/>
        <pt x="133" y="660" on="1"/>
        <pt x="157" y="680" on="0"/>
        <pt x="181" y="680" on="1"/>
        <pt x="280" y="680" on="1"/>
        <pt x="280" y="780" on="1"/>
        <pt x="352" y="780" on="1"/>
        <pt x="352" y="680" on="1"/>
        <pt x="447" y="680" on="1"/>
        <pt x="471" y="680" on="0"/>
        <pt x="495" y="660" on="1"/>
        <pt x="519" y="640" on="1"/>
        <pt x="543" y="620" on="0"/>
        <pt x="543" y="590" on="1"/>
        <pt x="543" y="550" on="1"/>
        <pt x="459" y="550" on="1"/>
        <pt x="459" y="569" on="1"/>
        <pt x="459" y="584" on="0"/>
        <pt x="456" y="593" on="0"/>
        <pt x="438" y="607" on="0"/>
        <pt x="428" y="610" on="0"/>
        <pt x="410" y="610" on="1"/>
        <pt x="352" y="610" on="1"/>
        <pt x="352" y="390" on="1"/>
        <pt x="457" y="390" on="1"/>
        <pt x="481" y="390" on="0"/>
        <pt x="505" y="370" on="1"/>
        <pt x="529" y="350" on="1"/>
        <pt x="553" y="330" on="0"/>
        <pt x="553" y="300" on="1"/>
        <pt x="553" y="110" on="1"/>
        <pt x="553" y="80" on="0"/>
        <pt x="529" y="60" on="1"/>
        <pt x="505" y="40" on="1"/>
        <pt x="481" y="20" on="0"/>
        <pt x="457" y="20" on="1"/>
        <pt x="352" y="20" on="1"/>
      </contour>
      <contour>
        <pt x="420" y="320" on="1"/>
        <pt x="352" y="320" on="1"/>
        <pt x="352" y="90" on="1"/>
        <pt x="420" y="90" on="1"/>
        <pt x="438" y="90" on="0"/>
        <pt x="448" y="93" on="0"/>
        <pt x="466" y="107" on="0"/>
        <pt x="469" y="116" on="0"/>
        <pt x="469" y="131" on="1"/>
        <pt x="469" y="279" on="1"/>
        <pt x="469" y="294" on="0"/>
        <pt x="466" y="303" on="0"/>
        <pt x="448" y="317" on="0"/>
        <pt x="438" y="320" on="0"/>
      </contour>
      <contour>
        <pt x="169" y="569" on="1"/>
        <pt x="169" y="431" on="1"/>
        <pt x="169" y="416" on="0"/>
        <pt x="172" y="407" on="0"/>
        <pt x="190" y="393" on="0"/>
        <pt x="200" y="390" on="0"/>
        <pt x="218" y="390" on="1"/>
        <pt x="280" y="390" on="1"/>
        <pt x="280" y="610" on="1"/>
        <pt x="218" y="610" on="1"/>
        <pt x="200" y="610" on="0"/>
        <pt x="190" y="607" on="0"/>
        <pt x="172" y="593" on="0"/>
        <pt x="169" y="584" on="0"/>
      </contour>
    </TTGlyph>
    <TTGlyph name="dotlessi" xMin="60" yMin="0" xMax="144" yMax="500">
      <contour>
        <pt x="144" y="0" on="1"/>
        <pt x="60" y="0" on="1"/>
        <pt x="60" y="500" on="1"/>
        <pt x="144" y="500" on="1"/>
      </contour>
    </TTGlyph>
    <TTGlyph name="e" xMin="60" yMin="0" xMax="496" yMax="500">
      <contour>
        <pt x="436" y="90" on="1"/>
        <pt x="496" y="40" on="1"/>
        <pt x="472" y="20" on="1"/>
        <pt x="454" y="5" on="0"/>
        <pt x="441" y="0" on="0"/>
        <pt x="423" y="0" on="1"/>
        <pt x="156" y="0" on="1"/>
        <pt x="132" y="0" on="0"/>
        <pt x="108" y="20" on="1"/>
        <pt x="84" y="40" on="1"/>
        <pt x="60" y="60" on="0"/>
        <pt x="60" y="90" on="1"/>
        <pt x="60" y="410" on="1"/>
        <pt x="60" y="440" on="0"/>
        <pt x="84" y="460" on="1"/>
        <pt x="108" y="480" on="1"/>
        <pt x="132" y="500" on="0"/>
        <pt x="156" y="500" on="1"/>
        <pt x="389" y="500" on="1"/>
        <pt x="409" y="500" on="0"/>
        <pt x="437" y="480" on="1"/>
        <pt x="462" y="460" on="1"/>
        <pt x="486" y="442" on="0"/>
        <pt x="486" y="410" on="1"/>
        <pt x="486" y="205" on="1"/>
        <pt x="144" y="205" on="1"/>
        <pt x="144" y="111" on="1"/>
        <pt x="144" y="96" on="0"/>
        <pt x="147" y="87" on="0"/>
        <pt x="165" y="73" on="0"/>
        <pt x="175" y="70" on="0"/>
        <pt x="193" y="70" on="1"/>
        <pt x="387" y="70" on="1"/>
        <pt x="405" y="70" on="0"/>
        <pt x="418" y="75" on="0"/>
      </contour>
      <contour>
        <pt x="402" y="270" on="1"/>
        <pt x="402" y="389" on="1"/>
        <pt x="402" y="404" on="0"/>
        <pt x="399" y="413" on="0"/>
        <pt x="381" y="427" on="0"/>
        <pt x="371" y="430" on="0"/>
        <pt x="353" y="430" on="1"/>
        <pt x="193" y="430" on="1"/>
        <pt x="175" y="430" on="0"/>
        <pt x="165" y="427" on="0"/>
        <pt x="147" y="413" on="0"/>
        <pt x="144" y="404" on="0"/>
        <pt x="144" y="389" on="1"/>
        <pt x="144" y="270" on="1"/>
      </contour>
    </TTGlyph>
    <TTGlyph name="eacute" xMin="60" yMin="0" xMax="496" yMax="709">
      <component glyphName="e" x="0" y="0" flags="0x204"/>
      <component glyphName="acute" x="138" y="0" flags="0x4"/>
    </TTGlyph>
    <TTGlyph name="ecircumflex" xMin="60" yMin="0" xMax="496" yMax="700">
      <component glyphName="e" x="0" y="0" flags="0x204"/>
      <component glyphName="circumflex" x="73" y="0" flags="0x4"/>
    </TTGlyph>
    <TTGlyph name="edieresis" xMin="60" yMin="0" xMax="496" yMax="678">
      <component glyphName="e" x="0" y="0" flags="0x204"/>
      <component glyphName="dieresis" x="79" y="0" flags="0x4"/>
    </TTGlyph>
    <TTGlyph name="egrave" xMin="60" yMin="0" xMax="496" yMax="709">
      <component glyphName="e" x="0" y="0" flags="0x204"/>
      <component glyphName="grave" x="88" y="0" flags="0x4"/>
    </TTGlyph>
    <TTGlyph name="eight" xMin="85" yMin="0" xMax="607" yMax="700">
      <contour>
        <pt x="447" y="320" on="1"/>
        <pt x="245" y="320" on="1"/>
        <pt x="230" y="320" on="0"/>
        <pt x="220" y="317" on="0"/>
        <pt x="208" y="307" on="1"/>
        <pt x="186" y="289" on="1"/>
        <pt x="173" y="279" on="0"/>
        <pt x="169" y="269" on="0"/>
        <pt x="169" y="253" on="1"/>
        <pt x="169" y="111" on="1"/>
        <pt x="169" y="96" on="0"/>
        <pt x="172" y="87" on="0"/>
        <pt x="190" y="73" on="0"/>
        <pt x="200" y="70" on="0"/>
        <pt x="218" y="70" on="1"/>
        <pt x="474" y="70" on="1"/>
        <pt x="492" y="70" on="0"/>
        <pt x="502" y="73" on="0"/>
        <pt x="520" y="87" on="0"/>
        <pt x="523" y="96" on="0"/>
        <pt x="523" y="111" on="1"/>
        <pt x="523" y="253" on="1"/>
        <pt x="523" y="269" on="0"/>
        <pt x="519" y="279" on="0"/>
        <pt x="506" y="289" on="1"/>
        <pt x="484" y="307" on="1"/>
        <pt x="472" y="317" on="0"/>
        <pt x="462" y="320" on="0"/>
      </contour>
      <contour>
        <pt x="462" y="630" on="1"/>
        <pt x="230" y="630" on="1"/>
        <pt x="212" y="630" on="0"/>
        <pt x="202" y="627" on="0"/>
        <pt x="184" y="613" on="0"/>
        <pt x="181" y="604" on="0"/>
        <pt x="181" y="589" on="1"/>
        <pt x="181" y="459" on="1"/>
        <pt x="181" y="442" on="0"/>
        <pt x="185" y="432" on="0"/>
        <pt x="197" y="422" on="1"/>
        <pt x="223" y="401" on="1"/>
        <pt x="233" y="393" on="0"/>
        <pt x="244" y="390" on="0"/>
        <pt x="262" y="390" on="1"/>
        <pt x="430" y="390" on="1"/>
        <pt x="448" y="390" on="0"/>
        <pt x="459" y="393" on="0"/>
        <pt x="469" y="401" on="1"/>
        <pt x="495" y="422" on="1"/>
        <pt x="507" y="432" on="0"/>
        <pt x="511" y="442" on="0"/>
        <pt x="511" y="459" on="1"/>
        <pt x="511" y="589" on="1"/>
        <pt x="511" y="604" on="0"/>
        <pt x="508" y="613" on="0"/>
        <pt x="490" y="627" on="0"/>
        <pt x="480" y="630" on="0"/>
      </contour>
      <contour>
        <pt x="99" y="309" on="1"/>
        <pt x="146" y="348" on="1"/>
        <pt x="162" y="361" on="0"/>
        <pt x="174" y="361" on="1"/>
        <pt x="174" y="366" on="1"/>
        <pt x="162" y="366" on="0"/>
        <pt x="146" y="379" on="1"/>
        <pt x="113" y="405" on="1"/>
        <pt x="97" y="418" on="0"/>
        <pt x="97" y="439" on="1"/>
        <pt x="97" y="610" on="1"/>
        <pt x="97" y="640" on="0"/>
        <pt x="121" y="660" on="1"/>
        <pt x="145" y="680" on="1"/>
        <pt x="169" y="700" on="0"/>
        <pt x="193" y="700" on="1"/>
        <pt x="499" y="700" on="1"/>
        <pt x="523" y="700" on="0"/>
        <pt x="547" y="680" on="1"/>
        <pt x="571" y="660" on="1"/>
        <pt x="595" y="640" on="0"/>
        <pt x="595" y="610" on="1"/>
        <pt x="595" y="439" on="1"/>
        <pt x="595" y="418" on="0"/>
        <pt x="579" y="405" on="1"/>
        <pt x="546" y="379" on="1"/>
        <pt x="530" y="366" on="0"/>
        <pt x="518" y="366" on="1"/>
        <pt x="518" y="361" on="1"/>
        <pt x="530" y="361" on="0"/>
        <pt x="546" y="348" on="1"/>
        <pt x="593" y="309" on="1"/>
        <pt x="607" y="298" on="0"/>
        <pt x="607" y="270" on="1"/>
        <pt x="607" y="90" on="1"/>
        <pt x="607" y="60" on="0"/>
        <pt x="583" y="40" on="1"/>
        <pt x="575" y="34" on="0"/>
        <pt x="559" y="20" on="1"/>
        <pt x="535" y="0" on="0"/>
        <pt x="511" y="0" on="1"/>
        <pt x="181" y="0" on="1"/>
        <pt x="157" y="0" on="0"/>
        <pt x="133" y="20" on="1"/>
        <pt x="117" y="34" on="0"/>
        <pt x="109" y="40" on="1"/>
        <pt x="85" y="60" on="0"/>
        <pt x="85" y="90" on="1"/>
        <pt x="85" y="270" on="1"/>
        <pt x="85" y="298" on="0"/>
      </contour>
    </TTGlyph>
    <TTGlyph name="emdash" xMin="0" yMin="294" xMax="648" yMax="359">
      <contour>
        <pt x="648" y="359" on="1"/>
        <pt x="648" y="294" on="1"/>
        <pt x="0" y="294" on="1"/>
        <pt x="0" y="359" on="1"/>
      </contour>
    </TTGlyph>
    <TTGlyph name="endash" xMin="45" yMin="294" xMax="565" yMax="359">
      <contour>
        <pt x="565" y="359" on="1"/>
        <pt x="565" y="294" on="1"/>
        <pt x="45" y="294" on="1"/>
        <pt x="45" y="359" on="1"/>
      </contour>
    </TTGlyph>
    <TTGlyph name="equal" xMin="60" yMin="245" xMax="460" yMax="466">
      <contour>
        <pt x="460" y="466" on="1"/>
        <pt x="460" y="401" on="1"/>
        <pt x="60" y="401" on="1"/>
        <pt x="60" y="466" on="1"/>
      </contour>
      <contour>
        <pt x="460" y="310" on="1"/>
        <pt x="460" y="245" on="1"/>
        <pt x="60" y="245" on="1"/>
        <pt x="60" y="310" on="1"/>
      </contour>
    </TTGlyph>
    <TTGlyph name="eth" xMin="59" yMin="0" xMax="491" yMax="767">
      <contour>
        <pt x="174" y="707" on="1"/>
        <pt x="223" y="760" on="1"/>
        <pt x="295" y="698" on="1"/>
        <pt x="358" y="767" on="1"/>
        <pt x="406" y="723" on="1"/>
        <pt x="345" y="656" on="1"/>
        <pt x="470" y="551" on="1"/>
        <pt x="491" y="530" on="0"/>
        <pt x="491" y="510" on="1"/>
        <pt x="491" y="80" on="1"/>
        <pt x="491" y="60" on="0"/>
        <pt x="467" y="40" on="1"/>
        <pt x="443" y="20" on="1"/>
        <pt x="419" y="0" on="0"/>
        <pt x="395" y="0" on="1"/>
        <pt x="155" y="0" on="1"/>
        <pt x="131" y="0" on="0"/>
        <pt x="107" y="20" on="1"/>
        <pt x="83" y="40" on="1"/>
        <pt x="59" y="60" on="0"/>
        <pt x="59" y="80" on="1"/>
        <pt x="59" y="420" on="1"/>
        <pt x="59" y="440" on="0"/>
        <pt x="83" y="460" on="1"/>
        <pt x="107" y="480" on="1"/>
        <pt x="131" y="500" on="0"/>
        <pt x="155" y="500" on="1"/>
        <pt x="343" y="500" on="1"/>
        <pt x="350" y="500" on="0"/>
        <pt x="364" y="494" on="0"/>
        <pt x="381" y="482" on="0"/>
        <pt x="392" y="472" on="0"/>
        <pt x="411" y="454" on="0"/>
        <pt x="415" y="450" on="1"/>
        <pt x="419" y="450" on="1"/>
        <pt x="419" y="479" on="1"/>
        <pt x="419" y="495" on="0"/>
        <pt x="411" y="510" on="0"/>
        <pt x="397" y="522" on="1"/>
        <pt x="297" y="605" on="1"/>
        <pt x="243" y="546" on="1"/>
        <pt x="195" y="590" on="1"/>
        <pt x="247" y="646" on="1"/>
      </contour>
      <contour>
        <pt x="143" y="389" on="1"/>
        <pt x="143" y="111" on="1"/>
        <pt x="143" y="96" on="0"/>
        <pt x="146" y="87" on="0"/>
        <pt x="164" y="73" on="0"/>
        <pt x="174" y="70" on="0"/>
        <pt x="192" y="70" on="1"/>
        <pt x="358" y="70" on="1"/>
        <pt x="376" y="70" on="0"/>
        <pt x="386" y="73" on="0"/>
        <pt x="404" y="87" on="0"/>
        <pt x="407" y="96" on="0"/>
        <pt x="407" y="111" on="1"/>
        <pt x="407" y="379" on="1"/>
        <pt x="407" y="394" on="0"/>
        <pt x="401" y="404" on="0"/>
        <pt x="365" y="426" on="0"/>
        <pt x="352" y="430" on="0"/>
        <pt x="333" y="430" on="1"/>
        <pt x="192" y="430" on="1"/>
        <pt x="174" y="430" on="0"/>
        <pt x="164" y="427" on="0"/>
        <pt x="146" y="413" on="0"/>
        <pt x="143" y="404" on="0"/>
      </contour>
    </TTGlyph>
    <TTGlyph name="exclam" xMin="100" yMin="0" xMax="184" yMax="700">
      <contour>
        <pt x="184" y="36" on="1"/>
        <pt x="184" y="59" on="1"/>
        <pt x="184" y="80" on="0"/>
        <pt x="176" y="88" on="1"/>
        <pt x="168" y="95" on="0"/>
        <pt x="144" y="95" on="1"/>
        <pt x="140" y="95" on="1"/>
        <pt x="116" y="95" on="0"/>
        <pt x="109" y="88" on="1"/>
        <pt x="102" y="82" on="0"/>
        <pt x="100" y="74" on="0"/>
        <pt x="100" y="59" on="1"/>
        <pt x="100" y="36" on="1"/>
        <pt x="100" y="15" on="0"/>
        <pt x="108" y="7" on="1"/>
        <pt x="116" y="0" on="0"/>
        <pt x="140" y="0" on="1"/>
        <pt x="145" y="0" on="1"/>
        <pt x="168" y="0" on="0"/>
        <pt x="175" y="7" on="1"/>
        <pt x="182" y="13" on="0"/>
        <pt x="184" y="21" on="0"/>
      </contour>
      <contour>
        <pt x="173" y="190" on="1"/>
        <pt x="111" y="190" on="1"/>
        <pt x="100" y="450" on="1"/>
        <pt x="100" y="700" on="1"/>
        <pt x="184" y="700" on="1"/>
        <pt x="184" y="450" on="1"/>
      </contour>
    </TTGlyph>
    <TTGlyph name="exclamdown" xMin="100" yMin="-260" xMax="184" yMax="440">
      <contour>
        <pt x="184" y="404" on="1"/>
        <pt x="184" y="381" on="1"/>
        <pt x="184" y="360" on="0"/>
        <pt x="176" y="352" on="1"/>
        <pt x="168" y="345" on="0"/>
        <pt x="144" y="345" on="1"/>
        <pt x="140" y="345" on="1"/>
        <pt x="116" y="345" on="0"/>
        <pt x="109" y="352" on="1"/>
        <pt x="102" y="358" on="0"/>
        <pt x="100" y="366" on="0"/>
        <pt x="100" y="381" on="1"/>
        <pt x="100" y="404" on="1"/>
        <pt x="100" y="425" on="0"/>
        <pt x="108" y="433" on="1"/>
        <pt x="116" y="440" on="0"/>
        <pt x="140" y="440" on="1"/>
        <pt x="145" y="440" on="1"/>
        <pt x="168" y="440" on="0"/>
        <pt x="175" y="433" on="1"/>
        <pt x="182" y="427" on="0"/>
        <pt x="184" y="419" on="0"/>
      </contour>
      <contour>
        <pt x="111" y="250" on="1"/>
        <pt x="173" y="250" on="1"/>
        <pt x="184" y="-10" on="1"/>
        <pt x="184" y="-260" on="1"/>
        <pt x="100" y="-260" on="1"/>
        <pt x="100" y="-10" on="1"/>
      </contour>
    </TTGlyph>
    <TTGlyph name="f" xMin="35" yMin="0" xMax="341" yMax="716">
      <contour>
        <pt x="107" y="430" on="1"/>
        <pt x="53" y="430" on="1"/>
        <pt x="40" y="440" on="0"/>
        <pt x="35" y="451" on="0"/>
        <pt x="35" y="474" on="1"/>
        <pt x="35" y="500" on="1"/>
        <pt x="107" y="500" on="1"/>
        <pt x="107" y="626" on="1"/>
        <pt x="107" y="656" on="0"/>
        <pt x="131" y="676" on="1"/>
        <pt x="155" y="696" on="1"/>
        <pt x="179" y="716" on="0"/>
        <pt x="203" y="716" on="1"/>
        <pt x="323" y="716" on="1"/>
        <pt x="336" y="706" on="0"/>
        <pt x="341" y="695" on="0"/>
        <pt x="341" y="672" on="1"/>
        <pt x="341" y="646" on="1"/>
        <pt x="234" y="646" on="1"/>
        <pt x="215" y="646" on="0"/>
        <pt x="203" y="636" on="1"/>
        <pt x="194" y="629" on="0"/>
        <pt x="191" y="620" on="0"/>
        <pt x="191" y="605" on="1"/>
        <pt x="191" y="500" on="1"/>
        <pt x="303" y="500" on="1"/>
        <pt x="316" y="490" on="0"/>
        <pt x="321" y="479" on="0"/>
        <pt x="321" y="456" on="1"/>
        <pt x="321" y="430" on="1"/>
        <pt x="191" y="430" on="1"/>
        <pt x="191" y="0" on="1"/>
        <pt x="107" y="0" on="1"/>
      </contour>
    </TTGlyph>
    <TTGlyph name="five" xMin="75" yMin="0" xMax="567" yMax="700">
      <contour>
        <pt x="245" y="460" on="1"/>
        <pt x="471" y="460" on="1"/>
        <pt x="495" y="460" on="0"/>
        <pt x="519" y="440" on="1"/>
        <pt x="543" y="420" on="1"/>
        <pt x="567" y="400" on="0"/>
        <pt x="567" y="370" on="1"/>
        <pt x="567" y="90" on="1"/>
        <pt x="567" y="60" on="0"/>
        <pt x="543" y="40" on="1"/>
        <pt x="519" y="20" on="1"/>
        <pt x="495" y="0" on="0"/>
        <pt x="471" y="0" on="1"/>
        <pt x="171" y="0" on="1"/>
        <pt x="147" y="0" on="0"/>
        <pt x="123" y="20" on="1"/>
        <pt x="99" y="40" on="1"/>
        <pt x="75" y="60" on="0"/>
        <pt x="75" y="90" on="1"/>
        <pt x="75" y="130" on="1"/>
        <pt x="159" y="130" on="1"/>
        <pt x="159" y="111" on="1"/>
        <pt x="159" y="96" on="0"/>
        <pt x="162" y="87" on="0"/>
        <pt x="180" y="73" on="0"/>
        <pt x="190" y="70" on="0"/>
        <pt x="208" y="70" on="1"/>
        <pt x="434" y="70" on="1"/>
        <pt x="452" y="70" on="0"/>
        <pt x="462" y="73" on="0"/>
        <pt x="480" y="87" on="0"/>
        <pt x="483" y="96" on="0"/>
        <pt x="483" y="111" on="1"/>
        <pt x="483" y="349" on="1"/>
        <pt x="483" y="364" on="0"/>
        <pt x="480" y="373" on="0"/>
        <pt x="462" y="387" on="0"/>
        <pt x="452" y="390" on="0"/>
        <pt x="434" y="390" on="1"/>
        <pt x="241" y="390" on="1"/>
        <pt x="217" y="390" on="0"/>
        <pt x="169" y="350" on="0"/>
        <pt x="169" y="330" on="1"/>
        <pt x="85" y="330" on="1"/>
        <pt x="85" y="700" on="1"/>
        <pt x="555" y="700" on="1"/>
        <pt x="555" y="630" on="1"/>
        <pt x="169" y="630" on="1"/>
        <pt x="169" y="411" on="1"/>
        <pt x="173" y="411" on="1"/>
        <pt x="174" y="422" on="0"/>
        <pt x="195" y="438" on="1"/>
        <pt x="225" y="460" on="0"/>
      </contour>
    </TTGlyph>
    <TTGlyph name="foundryicon" xMin="59" yMin="-275" xMax="1692" yMax="714">
      <contour>
        <pt x="612" y="397" on="1"/>
        <pt x="617" y="351" on="0"/>
        <pt x="622" y="259" on="0"/>
        <pt x="622" y="214" on="1"/>
        <pt x="622" y="117" on="0"/>
        <pt x="597" y="-60" on="0"/>
        <pt x="542" y="-195" on="0"/>
        <pt x="456" y="-275" on="0"/>
        <pt x="395" y="-275" on="1"/>
        <pt x="343" y="-275" on="0"/>
        <pt x="307" y="-218" on="0"/>
        <pt x="307" y="-164" on="1"/>
        <pt x="307" y="-140" on="0"/>
        <pt x="316" y="-95" on="0"/>
        <pt x="322" y="-75" on="1"/>
        <pt x="346" y="-75" on="0"/>
        <pt x="401" y="-92" on="0"/>
        <pt x="421" y="-112" on="1"/>
        <pt x="419" y="-131" on="0"/>
        <pt x="413" y="-173" on="0"/>
        <pt x="413" y="-194" on="1"/>
        <pt x="413" y="-220" on="0"/>
        <pt x="419" y="-239" on="1"/>
        <pt x="450" y="-219" on="0"/>
        <pt x="485" y="-166" on="0"/>
        <pt x="504" y="-97" on="0"/>
        <pt x="514" y="-14" on="0"/>
        <pt x="520" y="36" on="1"/>
        <pt x="516" y="30" on="0"/>
        <pt x="500" y="18" on="0"/>
        <pt x="490" y="18" on="1"/>
        <pt x="454" y="18" on="0"/>
        <pt x="404" y="58" on="0"/>
        <pt x="388" y="90" on="1"/>
        <pt x="383" y="75" on="0"/>
        <pt x="365" y="44" on="0"/>
        <pt x="337" y="18" on="0"/>
        <pt x="299" y="2" on="0"/>
        <pt x="274" y="2" on="1"/>
        <pt x="217" y="2" on="0"/>
        <pt x="136" y="52" on="0"/>
        <pt x="85" y="133" on="0"/>
        <pt x="60" y="237" on="0"/>
        <pt x="59" y="290" on="1"/>
        <pt x="59" y="351" on="0"/>
        <pt x="74" y="472" on="0"/>
        <pt x="109" y="582" on="0"/>
        <pt x="166" y="678" on="0"/>
        <pt x="207" y="714" on="1"/>
        <pt x="229" y="709" on="0"/>
        <pt x="282" y="693" on="0"/>
        <pt x="328" y="659" on="0"/>
        <pt x="358" y="601" on="0"/>
        <pt x="358" y="554" on="1"/>
        <pt x="358" y="518" on="0"/>
        <pt x="323" y="458" on="0"/>
        <pt x="295" y="434" on="1"/>
        <pt x="288" y="427" on="0"/>
        <pt x="286" y="427" on="1"/>
        <pt x="283" y="427" on="0"/>
        <pt x="283" y="431" on="1"/>
        <pt x="283" y="438" on="0"/>
        <pt x="287" y="455" on="0"/>
        <pt x="287" y="464" on="1"/>
        <pt x="287" y="483" on="0"/>
        <pt x="281" y="523" on="0"/>
        <pt x="272" y="559" on="0"/>
        <pt x="261" y="587" on="0"/>
        <pt x="256" y="595" on="1"/>
        <pt x="242" y="583" on="0"/>
        <pt x="218" y="524" on="0"/>
        <pt x="200" y="444" on="0"/>
        <pt x="190" y="349" on="0"/>
        <pt x="190" y="300" on="1"/>
        <pt x="190" y="258" on="0"/>
        <pt x="199" y="178" on="0"/>
        <pt x="218" y="108" on="0"/>
        <pt x="248" y="53" on="0"/>
        <pt x="270" y="38" on="1"/>
        <pt x="289" y="44" on="0"/>
        <pt x="321" y="71" on="0"/>
        <pt x="345" y="102" on="0"/>
        <pt x="363" y="134" on="0"/>
        <pt x="369" y="146" on="1"/>
        <pt x="358" y="181" on="0"/>
        <pt x="351" y="259" on="0"/>
        <pt x="351" y="299" on="1"/>
        <pt x="351" y="337" on="0"/>
        <pt x="361" y="389" on="0"/>
        <pt x="370" y="406" on="1"/>
        <pt x="378" y="404" on="0"/>
        <pt x="402" y="399" on="0"/>
        <pt x="429" y="391" on="0"/>
        <pt x="455" y="378" on="0"/>
        <pt x="465" y="369" on="1"/>
        <pt x="463" y="343" on="0"/>
        <pt x="461" y="294" on="0"/>
        <pt x="461" y="269" on="1"/>
        <pt x="461" y="215" on="0"/>
        <pt x="473" y="114" on="0"/>
        <pt x="488" y="66" on="1"/>
        <pt x="500" y="69" on="0"/>
        <pt x="513" y="101" on="0"/>
        <pt x="519" y="144" on="0"/>
        <pt x="520" y="190" on="0"/>
        <pt x="520" y="207" on="1"/>
        <pt x="520" y="277" on="0"/>
        <pt x="501" y="403" on="0"/>
        <pt x="495" y="444" on="1"/>
        <pt x="502" y="444" on="1"/>
        <pt x="529" y="444" on="0"/>
        <pt x="592" y="417" on="0"/>
      </contour>
      <contour>
        <pt x="628" y="415" on="1"/>
        <pt x="669" y="413" on="0"/>
        <pt x="719" y="402" on="0"/>
        <pt x="735" y="383" on="1"/>
        <pt x="746" y="363" on="0"/>
        <pt x="764" y="305" on="0"/>
        <pt x="767" y="265" on="1"/>
        <pt x="784" y="297" on="0"/>
        <pt x="807" y="345" on="0"/>
        <pt x="814" y="365" on="1"/>
        <pt x="814" y="379" on="0"/>
        <pt x="824" y="417" on="0"/>
        <pt x="829" y="429" on="1"/>
        <pt x="861" y="426" on="0"/>
        <pt x="913" y="407" on="0"/>
        <pt x="924" y="388" on="1"/>
        <pt x="919" y="366" on="0"/>
        <pt x="915" y="315" on="0"/>
        <pt x="915" y="289" on="1"/>
        <pt x="915" y="272" on="0"/>
        <pt x="917" y="240" on="0"/>
        <pt x="920" y="226" on="1"/>
        <pt x="900" y="221" on="0"/>
        <pt x="887" y="221" on="1"/>
        <pt x="833" y="221" on="0"/>
        <pt x="824" y="286" on="1"/>
        <pt x="816" y="266" on="0"/>
        <pt x="784" y="223" on="0"/>
        <pt x="777" y="195" on="1"/>
        <pt x="777" y="162" on="0"/>
        <pt x="773" y="97" on="0"/>
        <pt x="756" y="44" on="0"/>
        <pt x="724" y="12" on="0"/>
        <pt x="697" y="12" on="1"/>
        <pt x="688" y="12" on="0"/>
        <pt x="683" y="13" on="1"/>
        <pt x="680" y="58" on="0"/>
        <pt x="674" y="165" on="0"/>
        <pt x="663" y="274" on="0"/>
        <pt x="644" y="376" on="0"/>
      </contour>
      <contour>
        <pt x="1246" y="55" on="1"/>
        <pt x="1258" y="66" on="0"/>
        <pt x="1290" y="104" on="0"/>
        <pt x="1292" y="125" on="1"/>
        <pt x="1282" y="161" on="0"/>
        <pt x="1276" y="240" on="0"/>
        <pt x="1276" y="273" on="1"/>
        <pt x="1276" y="290" on="0"/>
        <pt x="1277" y="317" on="0"/>
        <pt x="1278" y="327" on="1"/>
        <pt x="1270" y="316" on="0"/>
        <pt x="1254" y="276" on="0"/>
        <pt x="1242" y="225" on="0"/>
        <pt x="1235" y="166" on="0"/>
        <pt x="1235" y="137" on="1"/>
        <pt x="1235" y="114" on="0"/>
        <pt x="1240" y="72" on="0"/>
      </contour>
      <contour>
        <pt x="1540" y="261" on="1"/>
        <pt x="1552" y="279" on="0"/>
        <pt x="1571" y="332" on="0"/>
        <pt x="1584" y="395" on="0"/>
        <pt x="1591" y="462" on="0"/>
        <pt x="1591" y="493" on="1"/>
        <pt x="1591" y="536" on="0"/>
        <pt x="1585" y="566" on="1"/>
        <pt x="1577" y="536" on="0"/>
        <pt x="1562" y="462" on="0"/>
        <pt x="1550" y="382" on="0"/>
        <pt x="1542" y="300" on="0"/>
      </contour>
      <contour>
        <pt x="1063" y="337" on="1"/>
        <pt x="1049" y="295" on="0"/>
        <pt x="1036" y="202" on="0"/>
        <pt x="1036" y="154" on="1"/>
        <pt x="1047" y="155" on="0"/>
        <pt x="1064" y="177" on="0"/>
        <pt x="1075" y="209" on="0"/>
        <pt x="1080" y="247" on="0"/>
        <pt x="1080" y="265" on="1"/>
        <pt x="1080" y="287" on="0"/>
        <pt x="1068" y="326" on="0"/>
      </contour>
      <contour>
        <pt x="1192" y="643" on="1"/>
        <pt x="1181" y="620" on="0"/>
        <pt x="1156" y="557" on="0"/>
        <pt x="1121" y="497" on="0"/>
        <pt x="1072" y="451" on="0"/>
        <pt x="1037" y="445" on="1"/>
        <pt x="1043" y="432" on="0"/>
        <pt x="1056" y="401" on="0"/>
        <pt x="1064" y="393" on="1"/>
        <pt x="1091" y="379" on="0"/>
        <pt x="1122" y="324" on="0"/>
        <pt x="1122" y="279" on="1"/>
        <pt x="1122" y="254" on="0"/>
        <pt x="1111" y="202" on="0"/>
        <pt x="1090" y="157" on="0"/>
        <pt x="1059" y="124" on="0"/>
        <pt x="1038" y="118" on="1"/>
        <pt x="1043" y="97" on="0"/>
        <pt x="1057" y="59" on="0"/>
        <pt x="1071" y="50" on="1"/>
        <pt x="1086" y="56" on="0"/>
        <pt x="1109" y="78" on="0"/>
        <pt x="1127" y="105" on="0"/>
        <pt x="1140" y="133" on="0"/>
        <pt x="1145" y="145" on="1"/>
        <pt x="1145" y="198" on="1"/>
        <pt x="1147" y="252" on="0"/>
        <pt x="1175" y="349" on="0"/>
        <pt x="1210" y="386" on="1"/>
        <pt x="1248" y="386" on="0"/>
        <pt x="1281" y="373" on="1"/>
        <pt x="1282" y="382" on="0"/>
        <pt x="1287" y="406" on="0"/>
        <pt x="1295" y="429" on="0"/>
        <pt x="1305" y="445" on="0"/>
        <pt x="1312" y="445" on="1"/>
        <pt x="1321" y="445" on="0"/>
        <pt x="1344" y="439" on="0"/>
        <pt x="1367" y="430" on="0"/>
        <pt x="1386" y="418" on="0"/>
        <pt x="1391" y="413" on="1"/>
        <pt x="1385" y="372" on="0"/>
        <pt x="1376" y="272" on="0"/>
        <pt x="1376" y="221" on="1"/>
        <pt x="1376" y="212" on="0"/>
        <pt x="1377" y="179" on="0"/>
        <pt x="1379" y="140" on="0"/>
        <pt x="1383" y="100" on="0"/>
        <pt x="1388" y="67" on="0"/>
        <pt x="1395" y="46" on="0"/>
        <pt x="1399" y="46" on="1"/>
        <pt x="1405" y="46" on="0"/>
        <pt x="1419" y="60" on="0"/>
        <pt x="1432" y="78" on="0"/>
        <pt x="1443" y="97" on="0"/>
        <pt x="1446" y="103" on="1"/>
        <pt x="1443" y="117" on="1"/>
        <pt x="1433" y="161" on="0"/>
        <pt x="1425" y="257" on="0"/>
        <pt x="1425" y="307" on="1"/>
        <pt x="1425" y="360" on="0"/>
        <pt x="1435" y="467" on="0"/>
        <pt x="1456" y="567" on="0"/>
        <pt x="1486" y="657" on="0"/>
        <pt x="1507" y="693" on="1"/>
        <pt x="1550" y="686" on="0"/>
        <pt x="1608" y="658" on="0"/>
        <pt x="1642" y="612" on="0"/>
        <pt x="1656" y="546" on="0"/>
        <pt x="1656" y="501" on="1"/>
        <pt x="1656" y="458" on="0"/>
        <pt x="1641" y="367" on="0"/>
        <pt x="1612" y="287" on="0"/>
        <pt x="1570" y="227" on="0"/>
        <pt x="1542" y="214" on="1"/>
        <pt x="1542" y="108" on="0"/>
        <pt x="1584" y="47" on="1"/>
        <pt x="1614" y="70" on="0"/>
        <pt x="1661" y="152" on="0"/>
        <pt x="1677" y="216" on="1"/>
        <pt x="1681" y="218" on="0"/>
        <pt x="1686" y="218" on="1"/>
        <pt x="1692" y="218" on="0"/>
        <pt x="1692" y="203" on="0"/>
        <pt x="1692" y="197" on="1"/>
        <pt x="1692" y="168" on="0"/>
        <pt x="1681" y="101" on="0"/>
        <pt x="1653" y="45" on="0"/>
        <pt x="1605" y="8" on="0"/>
        <pt x="1568" y="8" on="1"/>
        <pt x="1531" y="8" on="0"/>
        <pt x="1477" y="40" on="0"/>
        <pt x="1460" y="69" on="1"/>
        <pt x="1454" y="46" on="0"/>
        <pt x="1420" y="8" on="0"/>
        <pt x="1395" y="8" on="1"/>
        <pt x="1366" y="8" on="0"/>
        <pt x="1324" y="49" on="0"/>
        <pt x="1315" y="70" on="1"/>
        <pt x="1309" y="49" on="0"/>
        <pt x="1268" y="20" on="0"/>
        <pt x="1248" y="18" on="1"/>
        <pt x="1209" y="18" on="0"/>
        <pt x="1166" y="53" on="0"/>
        <pt x="1158" y="80" on="1"/>
        <pt x="1145" y="60" on="0"/>
        <pt x="1101" y="21" on="0"/>
        <pt x="1068" y="18" on="1"/>
        <pt x="1031" y="18" on="0"/>
        <pt x="980" y="46" on="0"/>
        <pt x="948" y="93" on="0"/>
        <pt x="933" y="154" on="0"/>
        <pt x="933" y="188" on="1"/>
        <pt x="933" y="216" on="0"/>
        <pt x="939" y="279" on="0"/>
        <pt x="950" y="338" on="0"/>
        <pt x="966" y="389" on="0"/>
        <pt x="976" y="406" on="1"/>
        <pt x="981" y="406" on="0"/>
        <pt x="989" y="407" on="0"/>
        <pt x="994" y="407" on="1"/>
        <pt x="998" y="407" on="0"/>
        <pt x="1006" y="406" on="0"/>
        <pt x="1011" y="406" on="1"/>
        <pt x="1001" y="423" on="0"/>
        <pt x="995" y="446" on="1"/>
        <pt x="953" y="454" on="0"/>
        <pt x="883" y="516" on="0"/>
        <pt x="853" y="552" on="1"/>
        <pt x="848" y="556" on="0"/>
        <pt x="812" y="564" on="0"/>
        <pt x="772" y="575" on="0"/>
        <pt x="740" y="587" on="0"/>
        <pt x="740" y="595" on="1"/>
        <pt x="740" y="600" on="0"/>
        <pt x="745" y="600" on="1"/>
        <pt x="746" y="599" on="0"/>
        <pt x="784" y="595" on="0"/>
        <pt x="832" y="590" on="0"/>
        <pt x="877" y="587" on="0"/>
        <pt x="884" y="587" on="1"/>
        <pt x="920" y="594" on="0"/>
        <pt x="989" y="606" on="0"/>
        <pt x="1045" y="618" on="0"/>
        <pt x="1084" y="629" on="0"/>
        <pt x="1090" y="635" on="1"/>
        <pt x="1096" y="657" on="0"/>
        <pt x="1129" y="681" on="0"/>
        <pt x="1148" y="681" on="1"/>
        <pt x="1164" y="681" on="0"/>
        <pt x="1175" y="675" on="1"/>
        <pt x="1192" y="681" on="1"/>
        <pt x="1193" y="680" on="1"/>
        <pt x="1189" y="661" on="1"/>
        <pt x="1206" y="661" on="1"/>
        <pt x="1206" y="660" on="1"/>
      </contour>
      <contour>
        <pt x="1049" y="399" on="1"/>
        <pt x="1042" y="409" on="0"/>
        <pt x="1029" y="431" on="0"/>
        <pt x="1024" y="444" on="1"/>
        <pt x="1009" y="444" on="1"/>
        <pt x="1021" y="405" on="1"/>
        <pt x="1029" y="403" on="0"/>
        <pt x="1042" y="401" on="0"/>
      </contour>
    </TTGlyph>
    <TTGlyph name="four" xMin="55" yMin="0" xMax="589" yMax="700">
      <contour>
        <pt x="409" y="430" on="1"/>
        <pt x="493" y="430" on="1"/>
        <pt x="493" y="230" on="1"/>
        <pt x="589" y="230" on="1"/>
        <pt x="589" y="160" on="1"/>
        <pt x="493" y="160" on="1"/>
        <pt x="493" y="0" on="1"/>
        <pt x="409" y="0" on="1"/>
        <pt x="409" y="160" on="1"/>
        <pt x="55" y="160" on="1"/>
        <pt x="55" y="242" on="1"/>
        <pt x="397" y="700" on="1"/>
        <pt x="491" y="700" on="1"/>
        <pt x="158" y="253" on="1"/>
        <pt x="148" y="238" on="0"/>
        <pt x="141" y="234" on="1"/>
        <pt x="141" y="230" on="1"/>
        <pt x="409" y="230" on="1"/>
      </contour>
    </TTGlyph>
    <TTGlyph name="fraction" xMin="28" yMin="-46" xMax="589" yMax="716">
      <contour>
        <pt x="589" y="716" on="1"/>
        <pt x="97" y="-46" on="1"/>
        <pt x="28" y="-46" on="1"/>
        <pt x="516" y="716" on="1"/>
      </contour>
    </TTGlyph>
    <TTGlyph name="g" xMin="60" yMin="-260" xMax="516" yMax="500">
      <contour>
        <pt x="193" y="70" on="1"/>
        <pt x="336" y="70" on="1"/>
        <pt x="360" y="70" on="0"/>
        <pt x="408" y="110" on="0"/>
        <pt x="408" y="130" on="1"/>
        <pt x="408" y="379" on="1"/>
        <pt x="408" y="394" on="0"/>
        <pt x="402" y="404" on="0"/>
        <pt x="366" y="426" on="0"/>
        <pt x="353" y="430" on="0"/>
        <pt x="335" y="430" on="1"/>
        <pt x="193" y="430" on="1"/>
        <pt x="175" y="430" on="0"/>
        <pt x="165" y="427" on="0"/>
        <pt x="147" y="413" on="0"/>
        <pt x="144" y="404" on="0"/>
        <pt x="144" y="389" on="1"/>
        <pt x="144" y="111" on="1"/>
        <pt x="144" y="96" on="0"/>
        <pt x="147" y="87" on="0"/>
        <pt x="165" y="73" on="0"/>
        <pt x="175" y="70" on="0"/>
      </contour>
      <contour>
        <pt x="122" y="-190" on="1"/>
        <pt x="359" y="-190" on="1"/>
        <pt x="377" y="-190" on="0"/>
        <pt x="387" y="-187" on="0"/>
        <pt x="405" y="-173" on="0"/>
        <pt x="408" y="-164" on="0"/>
        <pt x="408" y="-149" on="1"/>
        <pt x="408" y="48" on="1"/>
        <pt x="404" y="48" on="1"/>
        <pt x="402" y="39" on="0"/>
        <pt x="380" y="20" on="1"/>
        <pt x="356" y="0" on="0"/>
        <pt x="332" y="0" on="1"/>
        <pt x="156" y="0" on="1"/>
        <pt x="132" y="0" on="0"/>
        <pt x="108" y="20" on="1"/>
        <pt x="84" y="40" on="1"/>
        <pt x="60" y="60" on="0"/>
        <pt x="60" y="90" on="1"/>
        <pt x="60" y="410" on="1"/>
        <pt x="60" y="440" on="0"/>
        <pt x="84" y="460" on="1"/>
        <pt x="108" y="480" on="1"/>
        <pt x="132" y="500" on="0"/>
        <pt x="156" y="500" on="1"/>
        <pt x="347" y="500" on="1"/>
        <pt x="365" y="500" on="0"/>
        <pt x="378" y="496" on="0"/>
        <pt x="396" y="485" on="1"/>
        <pt x="418" y="472" on="0"/>
        <pt x="418" y="460" on="1"/>
        <pt x="422" y="460" on="1"/>
        <pt x="422" y="472" on="0"/>
        <pt x="438" y="485" on="1"/>
        <pt x="450" y="495" on="0"/>
        <pt x="463" y="500" on="0"/>
        <pt x="481" y="500" on="1"/>
        <pt x="516" y="500" on="1"/>
        <pt x="516" y="451" on="1"/>
        <pt x="516" y="436" on="0"/>
        <pt x="513" y="427" on="0"/>
        <pt x="495" y="413" on="0"/>
        <pt x="492" y="404" on="0"/>
        <pt x="492" y="389" on="1"/>
        <pt x="492" y="-170" on="1"/>
        <pt x="492" y="-200" on="0"/>
        <pt x="468" y="-220" on="1"/>
        <pt x="444" y="-240" on="1"/>
        <pt x="420" y="-260" on="0"/>
        <pt x="396" y="-260" on="1"/>
        <pt x="104" y="-260" on="1"/>
        <pt x="104" y="-234" on="1"/>
        <pt x="104" y="-211" on="0"/>
        <pt x="109" y="-200" on="0"/>
      </contour>
    </TTGlyph>
    <TTGlyph name="germandbls" xMin="60" yMin="-260" xMax="498" yMax="700">
      <contour>
        <pt x="451" y="350" on="1"/>
        <pt x="474" y="330" on="1"/>
        <pt x="498" y="310" on="0"/>
        <pt x="498" y="280" on="1"/>
        <pt x="498" y="90" on="1"/>
        <pt x="498" y="60" on="0"/>
        <pt x="478" y="40" on="1"/>
        <pt x="458" y="20" on="1"/>
        <pt x="440" y="0" on="0"/>
        <pt x="414" y="0" on="1"/>
        <pt x="198" y="0" on="1"/>
        <pt x="198" y="70" on="1"/>
        <pt x="365" y="70" on="1"/>
        <pt x="383" y="70" on="0"/>
        <pt x="393" y="73" on="0"/>
        <pt x="411" y="87" on="0"/>
        <pt x="414" y="96" on="0"/>
        <pt x="414" y="111" on="1"/>
        <pt x="414" y="269" on="1"/>
        <pt x="414" y="293" on="0"/>
        <pt x="392" y="311" on="1"/>
        <pt x="373" y="328" on="0"/>
        <pt x="348" y="328" on="1"/>
        <pt x="198" y="328" on="1"/>
        <pt x="198" y="392" on="1"/>
        <pt x="335" y="392" on="1"/>
        <pt x="358" y="392" on="0"/>
        <pt x="379" y="408" on="1"/>
        <pt x="394" y="420" on="0"/>
        <pt x="402" y="434" on="0"/>
        <pt x="402" y="451" on="1"/>
        <pt x="402" y="589" on="1"/>
        <pt x="402" y="604" on="0"/>
        <pt x="399" y="613" on="0"/>
        <pt x="381" y="627" on="0"/>
        <pt x="371" y="630" on="0"/>
        <pt x="353" y="630" on="1"/>
        <pt x="193" y="630" on="1"/>
        <pt x="175" y="630" on="0"/>
        <pt x="165" y="627" on="0"/>
        <pt x="147" y="613" on="0"/>
        <pt x="144" y="604" on="0"/>
        <pt x="144" y="589" on="1"/>
        <pt x="144" y="-260" on="1"/>
        <pt x="60" y="-260" on="1"/>
        <pt x="60" y="610" on="1"/>
        <pt x="60" y="640" on="0"/>
        <pt x="84" y="660" on="1"/>
        <pt x="108" y="680" on="1"/>
        <pt x="132" y="700" on="0"/>
        <pt x="156" y="700" on="1"/>
        <pt x="390" y="700" on="1"/>
        <pt x="414" y="700" on="0"/>
        <pt x="438" y="680" on="1"/>
        <pt x="462" y="660" on="1"/>
        <pt x="486" y="640" on="0"/>
        <pt x="486" y="610" on="1"/>
        <pt x="486" y="440" on="1"/>
        <pt x="486" y="410" on="0"/>
        <pt x="462" y="390" on="1"/>
        <pt x="451" y="381" on="1"/>
        <pt x="435" y="368" on="0"/>
        <pt x="423" y="368" on="1"/>
        <pt x="423" y="363" on="1"/>
        <pt x="435" y="363" on="0"/>
      </contour>
    </TTGlyph>
    <TTGlyph name="grave" xMin="75" yMin="550" xMax="255" yMax="709">
      <contour>
        <pt x="229" y="550" on="1"/>
        <pt x="75" y="646" on="1"/>
        <pt x="118" y="709" on="1"/>
        <pt x="255" y="590" on="1"/>
      </contour>
    </TTGlyph>
    <TTGlyph name="grave.case" xMin="60" yMin="733" xMax="255" yMax="870">
      <contour>
        <pt x="60" y="804" on="1"/>
        <pt x="93" y="870" on="1"/>
        <pt x="255" y="773" on="1"/>
        <pt x="236" y="733" on="1"/>
      </contour>
    </TTGlyph>
    <TTGlyph name="greater" xMin="55" yMin="105" xMax="461" yMax="608">
      <contour>
        <pt x="55" y="524" on="1"/>
        <pt x="55" y="608" on="1"/>
        <pt x="461" y="391" on="1"/>
        <pt x="461" y="317" on="1"/>
        <pt x="55" y="105" on="1"/>
        <pt x="55" y="188" on="1"/>
        <pt x="347" y="341" on="1"/>
        <pt x="382" y="356" on="0"/>
        <pt x="392" y="356" on="1"/>
        <pt x="392" y="360" on="1"/>
        <pt x="380" y="360" on="0"/>
        <pt x="347" y="375" on="1"/>
      </contour>
    </TTGlyph>
    <TTGlyph name="guillemotleft" xMin="65" yMin="5" xMax="457" yMax="541">
      <contour>
        <pt x="231" y="541" on="1"/>
        <pt x="284" y="501" on="1"/>
        <pt x="140" y="273" on="1"/>
        <pt x="284" y="45" on="1"/>
        <pt x="231" y="5" on="1"/>
        <pt x="65" y="273" on="1"/>
      </contour>
      <contour>
        <pt x="404" y="541" on="1"/>
        <pt x="457" y="501" on="1"/>
        <pt x="313" y="273" on="1"/>
        <pt x="457" y="45" on="1"/>
        <pt x="404" y="5" on="1"/>
        <pt x="238" y="273" on="1"/>
      </contour>
    </TTGlyph>
    <TTGlyph name="guillemotright" xMin="65" yMin="5" xMax="457" yMax="541">
      <contour>
        <pt x="238" y="501" on="1"/>
        <pt x="291" y="541" on="1"/>
        <pt x="457" y="273" on="1"/>
        <pt x="291" y="5" on="1"/>
        <pt x="238" y="45" on="1"/>
        <pt x="382" y="273" on="1"/>
      </contour>
      <contour>
        <pt x="65" y="501" on="1"/>
        <pt x="118" y="541" on="1"/>
        <pt x="284" y="273" on="1"/>
        <pt x="118" y="5" on="1"/>
        <pt x="65" y="45" on="1"/>
        <pt x="209" y="273" on="1"/>
      </contour>
    </TTGlyph>
    <TTGlyph name="guilsinglleft" xMin="65" yMin="5" xMax="284" yMax="541">
      <contour>
        <pt x="231" y="541" on="1"/>
        <pt x="284" y="501" on="1"/>
        <pt x="140" y="273" on="1"/>
        <pt x="284" y="45" on="1"/>
        <pt x="231" y="5" on="1"/>
        <pt x="65" y="273" on="1"/>
      </contour>
    </TTGlyph>
    <TTGlyph name="guilsinglright" xMin="65" yMin="5" xMax="284" yMax="541">
      <contour>
        <pt x="65" y="501" on="1"/>
        <pt x="118" y="541" on="1"/>
        <pt x="284" y="273" on="1"/>
        <pt x="118" y="5" on="1"/>
        <pt x="65" y="45" on="1"/>
        <pt x="209" y="273" on="1"/>
      </contour>
    </TTGlyph>
    <TTGlyph name="h" xMin="60" yMin="0" xMax="479" yMax="740">
      <contour>
        <pt x="208" y="500" on="1"/>
        <pt x="383" y="500" on="1"/>
        <pt x="407" y="500" on="0"/>
        <pt x="431" y="480" on="1"/>
        <pt x="455" y="460" on="1"/>
        <pt x="479" y="440" on="0"/>
        <pt x="479" y="410" on="1"/>
        <pt x="479" y="0" on="1"/>
        <pt x="395" y="0" on="1"/>
        <pt x="395" y="389" on="1"/>
        <pt x="395" y="404" on="0"/>
        <pt x="392" y="413" on="0"/>
        <pt x="374" y="427" on="0"/>
        <pt x="364" y="430" on="0"/>
        <pt x="346" y="430" on="1"/>
        <pt x="218" y="430" on="1"/>
        <pt x="199" y="430" on="0"/>
        <pt x="186" y="426" on="0"/>
        <pt x="150" y="404" on="0"/>
        <pt x="144" y="394" on="0"/>
        <pt x="144" y="379" on="1"/>
        <pt x="144" y="0" on="1"/>
        <pt x="60" y="0" on="1"/>
        <pt x="60" y="740" on="1"/>
        <pt x="144" y="740" on="1"/>
        <pt x="144" y="453" on="1"/>
        <pt x="148" y="453" on="1"/>
        <pt x="148" y="462" on="0"/>
        <pt x="192" y="500" on="0"/>
      </contour>
    </TTGlyph>
    <TTGlyph name="hyphen" xMin="60" yMin="294" xMax="442" yMax="359">
      <contour>
        <pt x="442" y="359" on="1"/>
        <pt x="442" y="294" on="1"/>
        <pt x="60" y="294" on="1"/>
        <pt x="60" y="359" on="1"/>
      </contour>
    </TTGlyph>
    <TTGlyph name="i" xMin="55" yMin="0" xMax="157" yMax="700">
      <contour>
        <pt x="148" y="0" on="1"/>
        <pt x="64" y="0" on="1"/>
        <pt x="64" y="500" on="1"/>
        <pt x="148" y="500" on="1"/>
      </contour>
      <contour>
        <pt x="157" y="656" on="1"/>
        <pt x="157" y="648" on="1"/>
        <pt x="157" y="629" on="0"/>
        <pt x="154" y="619" on="0"/>
        <pt x="146" y="612" on="1"/>
        <pt x="138" y="604" on="0"/>
        <pt x="109" y="604" on="1"/>
        <pt x="104" y="604" on="1"/>
        <pt x="82" y="604" on="0"/>
        <pt x="72" y="606" on="0"/>
        <pt x="65" y="612" on="1"/>
        <pt x="58" y="619" on="0"/>
        <pt x="55" y="629" on="0"/>
        <pt x="55" y="648" on="1"/>
        <pt x="55" y="656" on="1"/>
        <pt x="55" y="675" on="0"/>
        <pt x="58" y="685" on="0"/>
        <pt x="66" y="692" on="1"/>
        <pt x="72" y="698" on="0"/>
        <pt x="82" y="700" on="0"/>
        <pt x="104" y="700" on="1"/>
        <pt x="108" y="700" on="1"/>
        <pt x="138" y="700" on="0"/>
        <pt x="147" y="692" on="1"/>
        <pt x="154" y="685" on="0"/>
        <pt x="157" y="675" on="0"/>
      </contour>
    </TTGlyph>
    <TTGlyph name="iacute" xMin="53" yMin="0" xMax="233" yMax="709">
      <component glyphName="dotlessi" x="0" y="0" flags="0x204"/>
      <component glyphName="acute" x="-22" y="0" flags="0x4"/>
    </TTGlyph>
    <TTGlyph name="icircumflex" xMin="-21" yMin="0" xMax="228" yMax="700">
      <component glyphName="dotlessi" x="0" y="0" flags="0x204"/>
      <component glyphName="circumflex" x="-96" y="0" flags="0x4"/>
    </TTGlyph>
    <TTGlyph name="idieresis" xMin="-25" yMin="0" xMax="231" yMax="678">
      <component glyphName="dotlessi" x="0" y="0" flags="0x204"/>
      <component glyphName="dieresis" x="-91" y="0" flags="0x4"/>
    </TTGlyph>
    <TTGlyph name="igrave" xMin="-27" yMin="0" xMax="153" yMax="709">
      <component glyphName="dotlessi" x="0" y="0" flags="0x204"/>
      <component glyphName="grave" x="-102" y="0" flags="0x4"/>
    </TTGlyph>
    <TTGlyph name="j" xMin="-5" yMin="-200" xMax="153" yMax="700">
      <contour>
        <pt x="145" y="500" on="1"/>
        <pt x="145" y="-110" on="1"/>
        <pt x="145" y="-140" on="0"/>
        <pt x="121" y="-160" on="1"/>
        <pt x="97" y="-180" on="1"/>
        <pt x="73" y="-200" on="0"/>
        <pt x="49" y="-200" on="1"/>
        <pt x="-5" y="-200" on="1"/>
        <pt x="-5" y="-174" on="1"/>
        <pt x="-5" y="-151" on="0"/>
        <pt x="0" y="-140" on="0"/>
        <pt x="13" y="-130" on="1"/>
        <pt x="32" y="-130" on="0"/>
        <pt x="40" y="-128" on="0"/>
        <pt x="49" y="-120" on="1"/>
        <pt x="58" y="-113" on="0"/>
        <pt x="61" y="-104" on="0"/>
        <pt x="61" y="-89" on="1"/>
        <pt x="61" y="500" on="1"/>
      </contour>
      <contour>
        <pt x="153" y="656" on="1"/>
        <pt x="153" y="648" on="1"/>
        <pt x="153" y="629" on="0"/>
        <pt x="150" y="619" on="0"/>
        <pt x="142" y="612" on="1"/>
        <pt x="134" y="604" on="0"/>
        <pt x="105" y="604" on="1"/>
        <pt x="100" y="604" on="1"/>
        <pt x="78" y="604" on="0"/>
        <pt x="68" y="606" on="0"/>
        <pt x="61" y="612" on="1"/>
        <pt x="54" y="619" on="0"/>
        <pt x="51" y="629" on="0"/>
        <pt x="51" y="648" on="1"/>
        <pt x="51" y="656" on="1"/>
        <pt x="51" y="675" on="0"/>
        <pt x="54" y="685" on="0"/>
        <pt x="62" y="692" on="1"/>
        <pt x="68" y="698" on="0"/>
        <pt x="78" y="700" on="0"/>
        <pt x="100" y="700" on="1"/>
        <pt x="104" y="700" on="1"/>
        <pt x="134" y="700" on="0"/>
        <pt x="143" y="692" on="1"/>
        <pt x="150" y="685" on="0"/>
        <pt x="153" y="675" on="0"/>
      </contour>
    </TTGlyph>
    <TTGlyph name="k" xMin="60" yMin="0" xMax="455" yMax="740">
      <contour>
        <pt x="60" y="0" on="1"/>
        <pt x="60" y="740" on="1"/>
        <pt x="144" y="740" on="1"/>
        <pt x="144" y="285" on="1"/>
        <pt x="228" y="285" on="1"/>
        <pt x="318" y="432" on="1"/>
        <pt x="329" y="449" on="0"/>
        <pt x="340" y="461" on="0"/>
        <pt x="355" y="472" on="1"/>
        <pt x="374" y="485" on="1"/>
        <pt x="390" y="496" on="0"/>
        <pt x="403" y="500" on="0"/>
        <pt x="421" y="500" on="1"/>
        <pt x="441" y="500" on="1"/>
        <pt x="441" y="461" on="1"/>
        <pt x="441" y="438" on="0"/>
        <pt x="435" y="427" on="0"/>
        <pt x="417" y="417" on="1"/>
        <pt x="406" y="411" on="1"/>
        <pt x="391" y="402" on="0"/>
        <pt x="381" y="391" on="0"/>
        <pt x="369" y="374" on="1"/>
        <pt x="304" y="273" on="1"/>
        <pt x="295" y="259" on="0"/>
        <pt x="286" y="254" on="1"/>
        <pt x="286" y="250" on="1"/>
        <pt x="295" y="248" on="0"/>
        <pt x="309" y="227" on="1"/>
        <pt x="455" y="0" on="1"/>
        <pt x="362" y="0" on="1"/>
        <pt x="229" y="215" on="1"/>
        <pt x="144" y="215" on="1"/>
        <pt x="144" y="0" on="1"/>
      </contour>
    </TTGlyph>
    <TTGlyph name="l" xMin="65" yMin="0" xMax="183" yMax="740">
      <contour>
        <pt x="65" y="740" on="1"/>
        <pt x="149" y="740" on="1"/>
        <pt x="149" y="125" on="1"/>
        <pt x="149" y="102" on="0"/>
        <pt x="153" y="91" on="0"/>
        <pt x="165" y="83" on="1"/>
        <pt x="178" y="73" on="0"/>
        <pt x="183" y="62" on="0"/>
        <pt x="183" y="39" on="1"/>
        <pt x="183" y="0" on="1"/>
        <pt x="153" y="0" on="1"/>
        <pt x="134" y="0" on="0"/>
        <pt x="122" y="4" on="0"/>
        <pt x="107" y="14" on="1"/>
        <pt x="85" y="29" on="1"/>
        <pt x="70" y="39" on="0"/>
        <pt x="65" y="51" on="0"/>
        <pt x="65" y="74" on="1"/>
      </contour>
    </TTGlyph>
    <TTGlyph name="less" xMin="55" yMin="105" xMax="461" yMax="608">
      <contour>
        <pt x="461" y="608" on="1"/>
        <pt x="461" y="524" on="1"/>
        <pt x="169" y="375" on="1"/>
        <pt x="136" y="360" on="0"/>
        <pt x="124" y="360" on="1"/>
        <pt x="124" y="356" on="1"/>
        <pt x="134" y="356" on="0"/>
        <pt x="169" y="341" on="1"/>
        <pt x="461" y="188" on="1"/>
        <pt x="461" y="105" on="1"/>
        <pt x="55" y="317" on="1"/>
        <pt x="55" y="391" on="1"/>
      </contour>
    </TTGlyph>
    <TTGlyph name="logicalnot" xMin="60" yMin="187" xMax="440" yMax="359">
      <contour>
        <pt x="60" y="359" on="1"/>
        <pt x="440" y="359" on="1"/>
        <pt x="440" y="187" on="1"/>
        <pt x="375" y="187" on="1"/>
        <pt x="375" y="294" on="1"/>
        <pt x="60" y="294" on="1"/>
      </contour>
    </TTGlyph>
    <TTGlyph name="m" xMin="60" yMin="0" xMax="791" yMax="500">
      <contour>
        <pt x="449" y="452" on="1"/>
        <pt x="453" y="452" on="1"/>
        <pt x="454" y="461" on="0"/>
        <pt x="472" y="474" on="1"/>
        <pt x="487" y="485" on="1"/>
        <pt x="505" y="496" on="0"/>
        <pt x="518" y="500" on="0"/>
        <pt x="536" y="500" on="1"/>
        <pt x="695" y="500" on="1"/>
        <pt x="719" y="500" on="0"/>
        <pt x="743" y="480" on="1"/>
        <pt x="767" y="460" on="1"/>
        <pt x="791" y="440" on="0"/>
        <pt x="791" y="410" on="1"/>
        <pt x="791" y="0" on="1"/>
        <pt x="707" y="0" on="1"/>
        <pt x="707" y="389" on="1"/>
        <pt x="707" y="404" on="0"/>
        <pt x="704" y="413" on="0"/>
        <pt x="686" y="427" on="0"/>
        <pt x="676" y="430" on="0"/>
        <pt x="658" y="430" on="1"/>
        <pt x="548" y="430" on="1"/>
        <pt x="530" y="430" on="0"/>
        <pt x="517" y="426" on="0"/>
        <pt x="499" y="415" on="1"/>
        <pt x="476" y="401" on="0"/>
        <pt x="475" y="389" on="1"/>
        <pt x="475" y="0" on="1"/>
        <pt x="391" y="0" on="1"/>
        <pt x="391" y="389" on="1"/>
        <pt x="391" y="404" on="0"/>
        <pt x="388" y="413" on="0"/>
        <pt x="370" y="427" on="0"/>
        <pt x="360" y="430" on="0"/>
        <pt x="342" y="430" on="1"/>
        <pt x="241" y="430" on="1"/>
        <pt x="223" y="430" on="0"/>
        <pt x="210" y="426" on="0"/>
        <pt x="174" y="404" on="0"/>
        <pt x="168" y="394" on="0"/>
        <pt x="168" y="379" on="1"/>
        <pt x="168" y="0" on="1"/>
        <pt x="84" y="0" on="1"/>
        <pt x="84" y="389" on="1"/>
        <pt x="84" y="404" on="0"/>
        <pt x="81" y="413" on="0"/>
        <pt x="63" y="427" on="0"/>
        <pt x="60" y="436" on="0"/>
        <pt x="60" y="451" on="1"/>
        <pt x="60" y="500" on="1"/>
        <pt x="95" y="500" on="1"/>
        <pt x="113" y="500" on="0"/>
        <pt x="126" y="495" on="0"/>
        <pt x="138" y="485" on="1"/>
        <pt x="154" y="472" on="0"/>
        <pt x="154" y="460" on="1"/>
        <pt x="158" y="460" on="1"/>
        <pt x="158" y="472" on="0"/>
        <pt x="180" y="485" on="1"/>
        <pt x="198" y="496" on="0"/>
        <pt x="211" y="500" on="0"/>
        <pt x="229" y="500" on="1"/>
        <pt x="379" y="500" on="1"/>
        <pt x="403" y="500" on="0"/>
        <pt x="427" y="480" on="1"/>
        <pt x="448" y="461" on="0"/>
      </contour>
    </TTGlyph>
    <TTGlyph name="macron" xMin="0" yMin="635" xMax="528" yMax="700">
      <contour>
        <pt x="528" y="700" on="1"/>
        <pt x="528" y="635" on="1"/>
        <pt x="0" y="635" on="1"/>
        <pt x="0" y="700" on="1"/>
      </contour>
    </TTGlyph>
    <TTGlyph name="minus" xMin="60" yMin="294" xMax="478" yMax="359">
      <contour>
        <pt x="478" y="359" on="1"/>
        <pt x="478" y="294" on="1"/>
        <pt x="60" y="294" on="1"/>
        <pt x="60" y="359" on="1"/>
      </contour>
    </TTGlyph>
    <TTGlyph name="mu" xMin="60" yMin="-260" xMax="496" yMax="500">
      <contour>
        <pt x="327" y="0" on="1"/>
        <pt x="192" y="0" on="1"/>
        <pt x="168" y="0" on="0"/>
        <pt x="144" y="20" on="1"/>
        <pt x="140" y="20" on="1"/>
        <pt x="140" y="-260" on="1"/>
        <pt x="60" y="-260" on="1"/>
        <pt x="60" y="500" on="1"/>
        <pt x="144" y="500" on="1"/>
        <pt x="144" y="111" on="1"/>
        <pt x="144" y="96" on="0"/>
        <pt x="147" y="87" on="0"/>
        <pt x="165" y="73" on="0"/>
        <pt x="175" y="70" on="0"/>
        <pt x="193" y="70" on="1"/>
        <pt x="315" y="70" on="1"/>
        <pt x="333" y="70" on="0"/>
        <pt x="346" y="74" on="0"/>
        <pt x="382" y="96" on="0"/>
        <pt x="388" y="106" on="0"/>
        <pt x="388" y="121" on="1"/>
        <pt x="388" y="500" on="1"/>
        <pt x="472" y="500" on="1"/>
        <pt x="472" y="111" on="1"/>
        <pt x="472" y="96" on="0"/>
        <pt x="475" y="87" on="0"/>
        <pt x="493" y="73" on="0"/>
        <pt x="496" y="64" on="0"/>
        <pt x="496" y="49" on="1"/>
        <pt x="496" y="0" on="1"/>
        <pt x="461" y="0" on="1"/>
        <pt x="443" y="0" on="0"/>
        <pt x="430" y="5" on="0"/>
        <pt x="418" y="15" on="1"/>
        <pt x="402" y="28" on="0"/>
        <pt x="402" y="40" on="1"/>
        <pt x="398" y="40" on="1"/>
        <pt x="398" y="28" on="0"/>
        <pt x="376" y="15" on="1"/>
        <pt x="358" y="4" on="0"/>
        <pt x="345" y="0" on="0"/>
      </contour>
    </TTGlyph>
    <TTGlyph name="multiply" xMin="98" yMin="155" xMax="440" yMax="496">
      <contour>
        <pt x="145" y="155" on="1"/>
        <pt x="99" y="201" on="1"/>
        <pt x="223" y="325" on="1"/>
        <pt x="98" y="450" on="1"/>
        <pt x="144" y="496" on="1"/>
        <pt x="269" y="371" on="1"/>
        <pt x="394" y="496" on="1"/>
        <pt x="440" y="450" on="1"/>
        <pt x="315" y="325" on="1"/>
        <pt x="439" y="201" on="1"/>
        <pt x="393" y="155" on="1"/>
        <pt x="269" y="279" on="1"/>
      </contour>
    </TTGlyph>
    <TTGlyph name="n" xMin="60" yMin="0" xMax="502" yMax="500">
      <contour>
        <pt x="60" y="500" on="1"/>
        <pt x="95" y="500" on="1"/>
        <pt x="113" y="500" on="0"/>
        <pt x="126" y="495" on="0"/>
        <pt x="138" y="485" on="1"/>
        <pt x="154" y="472" on="0"/>
        <pt x="154" y="460" on="1"/>
        <pt x="158" y="460" on="1"/>
        <pt x="158" y="472" on="0"/>
        <pt x="180" y="485" on="1"/>
        <pt x="198" y="496" on="0"/>
        <pt x="211" y="500" on="0"/>
        <pt x="229" y="500" on="1"/>
        <pt x="406" y="500" on="1"/>
        <pt x="430" y="500" on="0"/>
        <pt x="454" y="480" on="1"/>
        <pt x="478" y="460" on="1"/>
        <pt x="502" y="440" on="0"/>
        <pt x="502" y="410" on="1"/>
        <pt x="502" y="0" on="1"/>
        <pt x="418" y="0" on="1"/>
        <pt x="418" y="389" on="1"/>
        <pt x="418" y="404" on="0"/>
        <pt x="415" y="413" on="0"/>
        <pt x="397" y="427" on="0"/>
        <pt x="387" y="430" on="0"/>
        <pt x="369" y="430" on="1"/>
        <pt x="241" y="430" on="1"/>
        <pt x="223" y="430" on="0"/>
        <pt x="210" y="426" on="0"/>
        <pt x="174" y="404" on="0"/>
        <pt x="168" y="394" on="0"/>
        <pt x="168" y="379" on="1"/>
        <pt x="168" y="0" on="1"/>
        <pt x="84" y="0" on="1"/>
        <pt x="84" y="389" on="1"/>
        <pt x="84" y="404" on="0"/>
        <pt x="81" y="413" on="0"/>
        <pt x="63" y="427" on="0"/>
        <pt x="60" y="436" on="0"/>
        <pt x="60" y="451" on="1"/>
      </contour>
    </TTGlyph>
    <TTGlyph name="nine" xMin="85" yMin="0" xMax="601" yMax="700">
      <contour>
        <pt x="95" y="130" on="1"/>
        <pt x="179" y="130" on="1"/>
        <pt x="179" y="111" on="1"/>
        <pt x="179" y="96" on="0"/>
        <pt x="182" y="87" on="0"/>
        <pt x="200" y="73" on="0"/>
        <pt x="210" y="70" on="0"/>
        <pt x="228" y="70" on="1"/>
        <pt x="468" y="70" on="1"/>
        <pt x="486" y="70" on="0"/>
        <pt x="496" y="73" on="0"/>
        <pt x="514" y="87" on="0"/>
        <pt x="517" y="96" on="0"/>
        <pt x="517" y="111" on="1"/>
        <pt x="517" y="310" on="1"/>
        <pt x="513" y="310" on="1"/>
        <pt x="508" y="305" on="1"/>
        <pt x="473" y="270" on="0"/>
        <pt x="453" y="270" on="1"/>
        <pt x="181" y="270" on="1"/>
        <pt x="157" y="270" on="0"/>
        <pt x="133" y="290" on="1"/>
        <pt x="109" y="310" on="1"/>
        <pt x="85" y="330" on="0"/>
        <pt x="85" y="360" on="1"/>
        <pt x="85" y="610" on="1"/>
        <pt x="85" y="640" on="0"/>
        <pt x="109" y="660" on="1"/>
        <pt x="133" y="680" on="1"/>
        <pt x="157" y="700" on="0"/>
        <pt x="181" y="700" on="1"/>
        <pt x="505" y="700" on="1"/>
        <pt x="529" y="700" on="0"/>
        <pt x="553" y="680" on="1"/>
        <pt x="577" y="660" on="1"/>
        <pt x="601" y="640" on="0"/>
        <pt x="601" y="610" on="1"/>
        <pt x="601" y="90" on="1"/>
        <pt x="601" y="60" on="0"/>
        <pt x="577" y="40" on="1"/>
        <pt x="553" y="20" on="1"/>
        <pt x="529" y="0" on="0"/>
        <pt x="505" y="0" on="1"/>
        <pt x="191" y="0" on="1"/>
        <pt x="167" y="0" on="0"/>
        <pt x="143" y="20" on="1"/>
        <pt x="119" y="40" on="1"/>
        <pt x="95" y="60" on="0"/>
        <pt x="95" y="90" on="1"/>
      </contour>
      <contour>
        <pt x="169" y="589" on="1"/>
        <pt x="169" y="381" on="1"/>
        <pt x="169" y="366" on="0"/>
        <pt x="172" y="357" on="0"/>
        <pt x="190" y="343" on="0"/>
        <pt x="200" y="340" on="0"/>
        <pt x="218" y="340" on="1"/>
        <pt x="443" y="340" on="1"/>
        <pt x="462" y="340" on="0"/>
        <pt x="475" y="344" on="0"/>
        <pt x="493" y="355" on="1"/>
        <pt x="516" y="369" on="0"/>
        <pt x="517" y="380" on="1"/>
        <pt x="517" y="589" on="1"/>
        <pt x="517" y="604" on="0"/>
        <pt x="514" y="613" on="0"/>
        <pt x="496" y="627" on="0"/>
        <pt x="486" y="630" on="0"/>
        <pt x="468" y="630" on="1"/>
        <pt x="218" y="630" on="1"/>
        <pt x="200" y="630" on="0"/>
        <pt x="190" y="627" on="0"/>
        <pt x="172" y="613" on="0"/>
        <pt x="169" y="604" on="0"/>
      </contour>
    </TTGlyph>
    <TTGlyph name="nonbreakingspace" xMin="0" yMin="0" xMax="0" yMax="0">
      <component glyphName="space" x="102" y="0" flags="0x204"/>
    </TTGlyph>
    <TTGlyph name="ntilde" xMin="60" yMin="0" xMax="502" yMax="658">
      <component glyphName="n" x="0" y="0" flags="0x204"/>
      <component glyphName="tilde" x="55" y="0" flags="0x4"/>
    </TTGlyph>
    <TTGlyph name="numbersign" xMin="55" yMin="40" xMax="566" yMax="640">
      <contour>
        <pt x="376" y="456" on="1"/>
        <pt x="403" y="640" on="1"/>
        <pt x="463" y="640" on="1"/>
        <pt x="436" y="456" on="1"/>
        <pt x="566" y="456" on="1"/>
        <pt x="557" y="396" on="1"/>
        <pt x="427" y="396" on="1"/>
        <pt x="412" y="296" on="1"/>
        <pt x="544" y="296" on="1"/>
        <pt x="535" y="236" on="1"/>
        <pt x="403" y="236" on="1"/>
        <pt x="375" y="40" on="1"/>
        <pt x="315" y="40" on="1"/>
        <pt x="343" y="236" on="1"/>
        <pt x="240" y="236" on="1"/>
        <pt x="212" y="40" on="1"/>
        <pt x="152" y="40" on="1"/>
        <pt x="180" y="236" on="1"/>
        <pt x="55" y="236" on="1"/>
        <pt x="64" y="296" on="1"/>
        <pt x="189" y="296" on="1"/>
        <pt x="204" y="396" on="1"/>
        <pt x="77" y="396" on="1"/>
        <pt x="86" y="456" on="1"/>
        <pt x="213" y="456" on="1"/>
        <pt x="240" y="640" on="1"/>
        <pt x="300" y="640" on="1"/>
        <pt x="273" y="456" on="1"/>
      </contour>
      <contour>
        <pt x="264" y="396" on="1"/>
        <pt x="249" y="296" on="1"/>
        <pt x="352" y="296" on="1"/>
        <pt x="367" y="396" on="1"/>
      </contour>
    </TTGlyph>
    <TTGlyph name="o" xMin="61" yMin="0" xMax="493" yMax="500">
      <contour>
        <pt x="157" y="500" on="1"/>
        <pt x="397" y="500" on="1"/>
        <pt x="421" y="500" on="0"/>
        <pt x="445" y="480" on="1"/>
        <pt x="469" y="460" on="1"/>
        <pt x="493" y="440" on="0"/>
        <pt x="493" y="410" on="1"/>
        <pt x="493" y="90" on="1"/>
        <pt x="493" y="60" on="0"/>
        <pt x="469" y="40" on="1"/>
        <pt x="445" y="20" on="1"/>
        <pt x="421" y="0" on="0"/>
        <pt x="397" y="0" on="1"/>
        <pt x="157" y="0" on="1"/>
        <pt x="133" y="0" on="0"/>
        <pt x="109" y="20" on="1"/>
        <pt x="85" y="40" on="1"/>
        <pt x="61" y="60" on="0"/>
        <pt x="61" y="90" on="1"/>
        <pt x="61" y="410" on="1"/>
        <pt x="61" y="440" on="0"/>
        <pt x="85" y="460" on="1"/>
        <pt x="109" y="480" on="1"/>
        <pt x="133" y="500" on="0"/>
      </contour>
      <contour>
        <pt x="409" y="111" on="1"/>
        <pt x="409" y="389" on="1"/>
        <pt x="409" y="404" on="0"/>
        <pt x="406" y="413" on="0"/>
        <pt x="388" y="427" on="0"/>
        <pt x="378" y="430" on="0"/>
        <pt x="360" y="430" on="1"/>
        <pt x="194" y="430" on="1"/>
        <pt x="176" y="430" on="0"/>
        <pt x="166" y="427" on="0"/>
        <pt x="148" y="413" on="0"/>
        <pt x="145" y="404" on="0"/>
        <pt x="145" y="389" on="1"/>
        <pt x="145" y="111" on="1"/>
        <pt x="145" y="96" on="0"/>
        <pt x="148" y="87" on="0"/>
        <pt x="166" y="73" on="0"/>
        <pt x="176" y="70" on="0"/>
        <pt x="194" y="70" on="1"/>
        <pt x="360" y="70" on="1"/>
        <pt x="378" y="70" on="0"/>
        <pt x="388" y="73" on="0"/>
        <pt x="406" y="87" on="0"/>
        <pt x="409" y="96" on="0"/>
      </contour>
    </TTGlyph>
    <TTGlyph name="oacute" xMin="61" yMin="0" xMax="493" yMax="709">
      <component glyphName="o" x="0" y="0" flags="0x204"/>
      <component glyphName="acute" x="142" y="0" flags="0x4"/>
    </TTGlyph>
    <TTGlyph name="ocircumflex" xMin="61" yMin="0" xMax="493" yMax="700">
      <component glyphName="o" x="0" y="0" flags="0x204"/>
      <component glyphName="circumflex" x="77" y="0" flags="0x4"/>
    </TTGlyph>
    <TTGlyph name="odieresis" xMin="61" yMin="0" xMax="493" yMax="678">
      <component glyphName="o" x="0" y="0" flags="0x204"/>
      <component glyphName="dieresis" x="83" y="0" flags="0x4"/>
    </TTGlyph>
    <TTGlyph name="oe" xMin="61" yMin="0" xMax="845" yMax="500">
      <contour>
        <pt x="157" y="500" on="1"/>
        <pt x="397" y="500" on="1"/>
        <pt x="427" y="500" on="0"/>
        <pt x="445" y="478" on="1"/>
        <pt x="449" y="473" on="1"/>
        <pt x="453" y="473" on="1"/>
        <pt x="457" y="478" on="1"/>
        <pt x="475" y="500" on="0"/>
        <pt x="505" y="500" on="1"/>
        <pt x="738" y="500" on="1"/>
        <pt x="758" y="500" on="0"/>
        <pt x="786" y="480" on="1"/>
        <pt x="811" y="460" on="1"/>
        <pt x="835" y="442" on="0"/>
        <pt x="835" y="410" on="1"/>
        <pt x="835" y="205" on="1"/>
        <pt x="493" y="205" on="1"/>
        <pt x="493" y="111" on="1"/>
        <pt x="493" y="96" on="0"/>
        <pt x="496" y="87" on="0"/>
        <pt x="514" y="73" on="0"/>
        <pt x="524" y="70" on="0"/>
        <pt x="542" y="70" on="1"/>
        <pt x="736" y="70" on="1"/>
        <pt x="754" y="70" on="0"/>
        <pt x="767" y="75" on="0"/>
        <pt x="785" y="90" on="1"/>
        <pt x="845" y="40" on="1"/>
        <pt x="821" y="20" on="1"/>
        <pt x="803" y="5" on="0"/>
        <pt x="790" y="0" on="0"/>
        <pt x="772" y="0" on="1"/>
        <pt x="505" y="0" on="1"/>
        <pt x="475" y="0" on="0"/>
        <pt x="457" y="22" on="1"/>
        <pt x="453" y="27" on="1"/>
        <pt x="449" y="27" on="1"/>
        <pt x="445" y="22" on="1"/>
        <pt x="427" y="0" on="0"/>
        <pt x="397" y="0" on="1"/>
        <pt x="157" y="0" on="1"/>
        <pt x="133" y="0" on="0"/>
        <pt x="109" y="20" on="1"/>
        <pt x="85" y="40" on="1"/>
        <pt x="61" y="60" on="0"/>
        <pt x="61" y="90" on="1"/>
        <pt x="61" y="410" on="1"/>
        <pt x="61" y="440" on="0"/>
        <pt x="85" y="460" on="1"/>
        <pt x="109" y="480" on="1"/>
        <pt x="133" y="500" on="0"/>
      </contour>
      <contour>
        <pt x="409" y="111" on="1"/>
        <pt x="409" y="401" on="1"/>
        <pt x="408" y="410" on="0"/>
        <pt x="397" y="420" on="1"/>
        <pt x="388" y="427" on="0"/>
        <pt x="378" y="430" on="0"/>
        <pt x="360" y="430" on="1"/>
        <pt x="194" y="430" on="1"/>
        <pt x="176" y="430" on="0"/>
        <pt x="166" y="427" on="0"/>
        <pt x="148" y="413" on="0"/>
        <pt x="145" y="404" on="0"/>
        <pt x="145" y="389" on="1"/>
        <pt x="145" y="111" on="1"/>
        <pt x="145" y="96" on="0"/>
        <pt x="148" y="87" on="0"/>
        <pt x="166" y="73" on="0"/>
        <pt x="176" y="70" on="0"/>
        <pt x="194" y="70" on="1"/>
        <pt x="360" y="70" on="1"/>
        <pt x="378" y="70" on="0"/>
        <pt x="388" y="73" on="0"/>
        <pt x="406" y="87" on="0"/>
        <pt x="409" y="96" on="0"/>
      </contour>
      <contour>
        <pt x="751" y="270" on="1"/>
        <pt x="751" y="389" on="1"/>
        <pt x="751" y="404" on="0"/>
        <pt x="748" y="413" on="0"/>
        <pt x="730" y="427" on="0"/>
        <pt x="720" y="430" on="0"/>
        <pt x="702" y="430" on="1"/>
        <pt x="542" y="430" on="1"/>
        <pt x="524" y="430" on="0"/>
        <pt x="514" y="427" on="0"/>
        <pt x="496" y="413" on="0"/>
        <pt x="493" y="404" on="0"/>
        <pt x="493" y="389" on="1"/>
        <pt x="493" y="270" on="1"/>
      </contour>
    </TTGlyph>
    <TTGlyph name="ograve" xMin="61" yMin="0" xMax="493" yMax="709">
      <component glyphName="o" x="0" y="0" flags="0x204"/>
      <component glyphName="grave" x="82" y="0" flags="0x4"/>
    </TTGlyph>
    <TTGlyph name="one" xMin="50" yMin="0" xMax="308" yMax="700">
      <contour>
        <pt x="97" y="498" on="1"/>
        <pt x="50" y="547" on="1"/>
        <pt x="191" y="700" on="1"/>
        <pt x="308" y="700" on="1"/>
        <pt x="308" y="0" on="1"/>
        <pt x="230" y="0" on="1"/>
        <pt x="230" y="618" on="1"/>
        <pt x="230" y="638" on="0"/>
        <pt x="233" y="644" on="1"/>
        <pt x="230" y="647" on="1"/>
      </contour>
    </TTGlyph>
    <TTGlyph name="onehalf" xMin="75" yMin="-46" xMax="701" yMax="716">
      <component glyphName="fraction" x="47" y="0" flags="0x4"/>
      <component glyphName="onesuperior" x="22" y="0" flags="0x4"/>
      <component glyphName="twosuperior" x="387" y="-339" flags="0x4"/>
    </TTGlyph>
    <TTGlyph name="onequarter" xMin="75" yMin="-46" xMax="689" yMax="716">
      <component glyphName="fraction" x="48" y="0" flags="0x4"/>
      <component glyphName="onesuperior" x="22" y="0" flags="0x4"/>
      <component glyphName="uni2074" x="361" y="-344" flags="0x4"/>
    </TTGlyph>
    <TTGlyph name="onesuperior" xMin="53" yMin="340" xMax="215" yMax="700">
      <contour>
        <pt x="116" y="700" on="1"/>
        <pt x="215" y="700" on="1"/>
        <pt x="215" y="340" on="1"/>
        <pt x="151" y="340" on="1"/>
        <pt x="151" y="653" on="1"/>
        <pt x="94" y="591" on="1"/>
        <pt x="53" y="631" on="1"/>
      </contour>
    </TTGlyph>
    <TTGlyph name="ordfeminine" xMin="61" yMin="346" xMax="382" yMax="700">
      <contour>
        <pt x="315" y="376" on="1"/>
        <pt x="310" y="376" on="1"/>
        <pt x="308" y="368" on="0"/>
        <pt x="298" y="359" on="1"/>
        <pt x="282" y="346" on="0"/>
        <pt x="262" y="346" on="1"/>
        <pt x="129" y="346" on="1"/>
        <pt x="110" y="346" on="0"/>
        <pt x="95" y="361" on="1"/>
        <pt x="77" y="375" on="1"/>
        <pt x="61" y="389" on="0"/>
        <pt x="61" y="410" on="1"/>
        <pt x="61" y="495" on="1"/>
        <pt x="61" y="515" on="0"/>
        <pt x="77" y="531" on="1"/>
        <pt x="95" y="545" on="1"/>
        <pt x="111" y="559" on="0"/>
        <pt x="129" y="559" on="1"/>
        <pt x="258" y="559" on="1"/>
        <pt x="276" y="559" on="0"/>
        <pt x="285" y="552" on="1"/>
        <pt x="293" y="545" on="0"/>
        <pt x="293" y="538" on="1"/>
        <pt x="296" y="538" on="1"/>
        <pt x="296" y="614" on="1"/>
        <pt x="296" y="629" on="0"/>
        <pt x="280" y="643" on="0"/>
        <pt x="261" y="643" on="1"/>
        <pt x="151" y="643" on="1"/>
        <pt x="138" y="643" on="0"/>
        <pt x="128" y="639" on="0"/>
        <pt x="116" y="629" on="1"/>
        <pt x="74" y="672" on="1"/>
        <pt x="90" y="686" on="1"/>
        <pt x="102" y="696" on="0"/>
        <pt x="112" y="700" on="0"/>
        <pt x="125" y="700" on="1"/>
        <pt x="297" y="700" on="1"/>
        <pt x="314" y="700" on="0"/>
        <pt x="332" y="686" on="1"/>
        <pt x="349" y="672" on="1"/>
        <pt x="366" y="657" on="0"/>
        <pt x="366" y="636" on="1"/>
        <pt x="366" y="426" on="1"/>
        <pt x="366" y="411" on="0"/>
        <pt x="382" y="397" on="0"/>
        <pt x="382" y="382" on="1"/>
        <pt x="382" y="346" on="1"/>
        <pt x="359" y="346" on="1"/>
        <pt x="346" y="346" on="0"/>
        <pt x="337" y="350" on="0"/>
        <pt x="328" y="359" on="1"/>
        <pt x="317" y="370" on="0"/>
      </contour>
      <contour>
        <pt x="126" y="479" on="1"/>
        <pt x="126" y="432" on="1"/>
        <pt x="126" y="417" on="0"/>
        <pt x="142" y="403" on="0"/>
        <pt x="160" y="403" on="1"/>
        <pt x="245" y="403" on="1"/>
        <pt x="263" y="403" on="0"/>
        <pt x="279" y="414" on="1"/>
        <pt x="291" y="421" on="0"/>
        <pt x="296" y="428" on="0"/>
        <pt x="296" y="439" on="1"/>
        <pt x="296" y="479" on="1"/>
        <pt x="296" y="495" on="0"/>
        <pt x="288" y="502" on="1"/>
        <pt x="279" y="509" on="0"/>
        <pt x="260" y="509" on="1"/>
        <pt x="160" y="509" on="1"/>
        <pt x="142" y="509" on="0"/>
        <pt x="126" y="495" on="0"/>
      </contour>
    </TTGlyph>
    <TTGlyph name="ordmasculine" xMin="60" yMin="346" xMax="362" yMax="700">
      <contour>
        <pt x="109" y="700" on="1"/>
        <pt x="313" y="700" on="1"/>
        <pt x="326" y="700" on="0"/>
        <pt x="338" y="690" on="1"/>
        <pt x="350" y="679" on="1"/>
        <pt x="362" y="669" on="0"/>
        <pt x="362" y="654" on="1"/>
        <pt x="362" y="392" on="1"/>
        <pt x="362" y="377" on="0"/>
        <pt x="350" y="367" on="1"/>
        <pt x="338" y="356" on="1"/>
        <pt x="326" y="346" on="0"/>
        <pt x="313" y="346" on="1"/>
        <pt x="109" y="346" on="1"/>
        <pt x="97" y="346" on="0"/>
        <pt x="85" y="356" on="1"/>
        <pt x="72" y="367" on="1"/>
        <pt x="60" y="377" on="0"/>
        <pt x="60" y="392" on="1"/>
        <pt x="60" y="654" on="1"/>
        <pt x="60" y="669" on="0"/>
        <pt x="72" y="679" on="1"/>
        <pt x="85" y="690" on="1"/>
        <pt x="97" y="700" on="0"/>
      </contour>
      <contour>
        <pt x="296" y="425" on="1"/>
        <pt x="296" y="621" on="1"/>
        <pt x="296" y="633" on="0"/>
        <pt x="284" y="643" on="0"/>
        <pt x="271" y="643" on="1"/>
        <pt x="152" y="643" on="1"/>
        <pt x="139" y="643" on="0"/>
        <pt x="132" y="638" on="1"/>
        <pt x="126" y="633" on="0"/>
        <pt x="126" y="621" on="1"/>
        <pt x="126" y="425" on="1"/>
        <pt x="126" y="413" on="0"/>
        <pt x="132" y="408" on="1"/>
        <pt x="139" y="403" on="0"/>
        <pt x="152" y="403" on="1"/>
        <pt x="271" y="403" on="1"/>
        <pt x="284" y="403" on="0"/>
        <pt x="296" y="413" on="0"/>
      </contour>
    </TTGlyph>
    <TTGlyph name="oslash" xMin="36" yMin="-50" xMax="521" yMax="550">
      <contour>
        <pt x="157" y="500" on="1"/>
        <pt x="397" y="500" on="1"/>
        <pt x="410" y="500" on="0"/>
        <pt x="419" y="497" on="1"/>
        <pt x="456" y="550" on="1"/>
        <pt x="521" y="550" on="1"/>
        <pt x="462" y="466" on="1"/>
        <pt x="469" y="460" on="1"/>
        <pt x="493" y="440" on="0"/>
        <pt x="493" y="410" on="1"/>
        <pt x="493" y="90" on="1"/>
        <pt x="493" y="60" on="0"/>
        <pt x="469" y="40" on="1"/>
        <pt x="445" y="20" on="1"/>
        <pt x="421" y="0" on="0"/>
        <pt x="397" y="0" on="1"/>
        <pt x="157" y="0" on="1"/>
        <pt x="144" y="0" on="0"/>
        <pt x="135" y="3" on="1"/>
        <pt x="98" y="-50" on="1"/>
        <pt x="36" y="-50" on="1"/>
        <pt x="94" y="32" on="1"/>
        <pt x="85" y="40" on="1"/>
        <pt x="61" y="60" on="0"/>
        <pt x="61" y="90" on="1"/>
        <pt x="61" y="410" on="1"/>
        <pt x="61" y="440" on="0"/>
        <pt x="85" y="460" on="1"/>
        <pt x="109" y="480" on="1"/>
        <pt x="133" y="500" on="0"/>
      </contour>
      <contour>
        <pt x="372" y="430" on="1"/>
        <pt x="194" y="430" on="1"/>
        <pt x="176" y="430" on="0"/>
        <pt x="166" y="427" on="0"/>
        <pt x="148" y="413" on="0"/>
        <pt x="145" y="404" on="0"/>
        <pt x="145" y="389" on="1"/>
        <pt x="145" y="105" on="1"/>
      </contour>
      <contour>
        <pt x="409" y="111" on="1"/>
        <pt x="409" y="389" on="1"/>
        <pt x="182" y="70" on="1"/>
        <pt x="360" y="70" on="1"/>
        <pt x="378" y="70" on="0"/>
        <pt x="388" y="73" on="0"/>
        <pt x="406" y="87" on="0"/>
        <pt x="409" y="96" on="0"/>
      </contour>
    </TTGlyph>
    <TTGlyph name="otilde" xMin="61" yMin="0" xMax="493" yMax="658">
      <component glyphName="o" x="0" y="0" flags="0x204"/>
      <component glyphName="tilde" x="51" y="0" flags="0x4"/>
    </TTGlyph>
    <TTGlyph name="p" xMin="60" yMin="-260" xMax="516" yMax="500">
      <contour>
        <pt x="60" y="500" on="1"/>
        <pt x="95" y="500" on="1"/>
        <pt x="113" y="500" on="0"/>
        <pt x="126" y="495" on="0"/>
        <pt x="138" y="485" on="1"/>
        <pt x="154" y="472" on="0"/>
        <pt x="154" y="460" on="1"/>
        <pt x="158" y="460" on="1"/>
        <pt x="158" y="472" on="0"/>
        <pt x="180" y="485" on="1"/>
        <pt x="198" y="496" on="0"/>
        <pt x="211" y="500" on="0"/>
        <pt x="229" y="500" on="1"/>
        <pt x="420" y="500" on="1"/>
        <pt x="444" y="500" on="0"/>
        <pt x="468" y="480" on="1"/>
        <pt x="492" y="460" on="1"/>
        <pt x="516" y="440" on="0"/>
        <pt x="516" y="410" on="1"/>
        <pt x="516" y="90" on="1"/>
        <pt x="516" y="60" on="0"/>
        <pt x="492" y="40" on="1"/>
        <pt x="468" y="20" on="1"/>
        <pt x="444" y="0" on="0"/>
        <pt x="420" y="0" on="1"/>
        <pt x="244" y="0" on="1"/>
        <pt x="218" y="0" on="0"/>
        <pt x="196" y="20" on="1"/>
        <pt x="172" y="44" on="0"/>
        <pt x="172" y="50" on="1"/>
        <pt x="168" y="50" on="1"/>
        <pt x="168" y="-260" on="1"/>
        <pt x="84" y="-260" on="1"/>
        <pt x="84" y="389" on="1"/>
        <pt x="84" y="404" on="0"/>
        <pt x="81" y="413" on="0"/>
        <pt x="63" y="427" on="0"/>
        <pt x="60" y="436" on="0"/>
        <pt x="60" y="451" on="1"/>
      </contour>
      <contour>
        <pt x="240" y="70" on="1"/>
        <pt x="383" y="70" on="1"/>
        <pt x="401" y="70" on="0"/>
        <pt x="411" y="73" on="0"/>
        <pt x="429" y="87" on="0"/>
        <pt x="432" y="96" on="0"/>
        <pt x="432" y="111" on="1"/>
        <pt x="432" y="389" on="1"/>
        <pt x="432" y="404" on="0"/>
        <pt x="429" y="413" on="0"/>
        <pt x="411" y="427" on="0"/>
        <pt x="401" y="430" on="0"/>
        <pt x="383" y="430" on="1"/>
        <pt x="241" y="430" on="1"/>
        <pt x="223" y="430" on="0"/>
        <pt x="210" y="426" on="0"/>
        <pt x="174" y="404" on="0"/>
        <pt x="168" y="394" on="0"/>
        <pt x="168" y="379" on="1"/>
        <pt x="168" y="130" on="1"/>
        <pt x="168" y="110" on="0"/>
        <pt x="216" y="70" on="0"/>
      </contour>
    </TTGlyph>
    <TTGlyph name="paragraph" xMin="60" yMin="-180" xMax="420" yMax="740">
      <contour>
        <pt x="109" y="740" on="1"/>
        <pt x="285" y="740" on="1"/>
        <pt x="285" y="-180" on="1"/>
        <pt x="225" y="-180" on="1"/>
        <pt x="225" y="386" on="1"/>
        <pt x="109" y="386" on="1"/>
        <pt x="97" y="386" on="0"/>
        <pt x="85" y="396" on="1"/>
        <pt x="72" y="407" on="1"/>
        <pt x="60" y="417" on="0"/>
        <pt x="60" y="432" on="1"/>
        <pt x="60" y="694" on="1"/>
        <pt x="60" y="709" on="0"/>
        <pt x="72" y="719" on="1"/>
        <pt x="85" y="730" on="1"/>
        <pt x="97" y="740" on="0"/>
      </contour>
      <contour>
        <pt x="360" y="740" on="1"/>
        <pt x="420" y="740" on="1"/>
        <pt x="420" y="-180" on="1"/>
        <pt x="360" y="-180" on="1"/>
      </contour>
    </TTGlyph>
    <TTGlyph name="parenleft" xMin="58" yMin="-110" xMax="164" yMax="710">
      <contour>
        <pt x="58" y="-36" on="1"/>
        <pt x="58" y="636" on="1"/>
        <pt x="58" y="659" on="0"/>
        <pt x="63" y="671" on="0"/>
        <pt x="78" y="681" on="1"/>
        <pt x="100" y="696" on="1"/>
        <pt x="115" y="706" on="0"/>
        <pt x="127" y="710" on="0"/>
        <pt x="146" y="710" on="1"/>
        <pt x="164" y="710" on="1"/>
        <pt x="164" y="671" on="1"/>
        <pt x="164" y="648" on="0"/>
        <pt x="159" y="637" on="0"/>
        <pt x="146" y="627" on="1"/>
        <pt x="134" y="619" on="0"/>
        <pt x="130" y="608" on="0"/>
        <pt x="130" y="585" on="1"/>
        <pt x="130" y="15" on="1"/>
        <pt x="130" y="-8" on="0"/>
        <pt x="134" y="-19" on="0"/>
        <pt x="146" y="-27" on="1"/>
        <pt x="159" y="-37" on="0"/>
        <pt x="164" y="-48" on="0"/>
        <pt x="164" y="-71" on="1"/>
        <pt x="164" y="-110" on="1"/>
        <pt x="146" y="-110" on="1"/>
        <pt x="127" y="-110" on="0"/>
        <pt x="115" y="-106" on="0"/>
        <pt x="100" y="-96" on="1"/>
        <pt x="78" y="-81" on="1"/>
        <pt x="63" y="-71" on="0"/>
        <pt x="58" y="-59" on="0"/>
      </contour>
    </TTGlyph>
    <TTGlyph name="parenright" xMin="55" yMin="-110" xMax="161" yMax="710">
      <contour>
        <pt x="161" y="-36" on="1"/>
        <pt x="161" y="-59" on="0"/>
        <pt x="156" y="-71" on="0"/>
        <pt x="141" y="-81" on="1"/>
        <pt x="119" y="-96" on="1"/>
        <pt x="104" y="-106" on="0"/>
        <pt x="92" y="-110" on="0"/>
        <pt x="73" y="-110" on="1"/>
        <pt x="55" y="-110" on="1"/>
        <pt x="55" y="-71" on="1"/>
        <pt x="55" y="-48" on="0"/>
        <pt x="60" y="-37" on="0"/>
        <pt x="73" y="-27" on="1"/>
        <pt x="85" y="-19" on="0"/>
        <pt x="89" y="-8" on="0"/>
        <pt x="89" y="15" on="1"/>
        <pt x="89" y="585" on="1"/>
        <pt x="89" y="608" on="0"/>
        <pt x="85" y="619" on="0"/>
        <pt x="73" y="627" on="1"/>
        <pt x="60" y="637" on="0"/>
        <pt x="55" y="648" on="0"/>
        <pt x="55" y="671" on="1"/>
        <pt x="55" y="710" on="1"/>
        <pt x="73" y="710" on="1"/>
        <pt x="92" y="710" on="0"/>
        <pt x="104" y="706" on="0"/>
        <pt x="119" y="696" on="1"/>
        <pt x="141" y="681" on="1"/>
        <pt x="156" y="671" on="0"/>
        <pt x="161" y="659" on="0"/>
        <pt x="161" y="636" on="1"/>
      </contour>
    </TTGlyph>
</ttFont>
